<?xml version="1.0" encoding="utf-8" standalone="no"?>
<!DOCTYPE svg PUBLIC "-//W3C//DTD SVG 1.1//EN"
  "http://www.w3.org/Graphics/SVG/1.1/DTD/svg11.dtd">
<svg xmlns:xlink="http://www.w3.org/1999/xlink" width="460.8pt" height="345.6pt" viewBox="0 0 460.8 345.6" xmlns="http://www.w3.org/2000/svg" version="1.1">
 <metadata>
  <rdf:RDF xmlns:dc="http://purl.org/dc/elements/1.1/" xmlns:cc="http://creativecommons.org/ns#" xmlns:rdf="http://www.w3.org/1999/02/22-rdf-syntax-ns#">
   <cc:Work>
    <dc:type rdf:resource="http://purl.org/dc/dcmitype/StillImage"/>
    <dc:date>2025-11-03T13:51:57.674073</dc:date>
    <dc:format>image/svg+xml</dc:format>
    <dc:creator>
     <cc:Agent>
      <dc:title>Matplotlib v3.8.1, https://matplotlib.org/</dc:title>
     </cc:Agent>
    </dc:creator>
   </cc:Work>
  </rdf:RDF>
 </metadata>
 <defs>
  <style type="text/css">*{stroke-linejoin: round; stroke-linecap: butt}</style>
 </defs>
 <g id="figure_1">
  <g id="patch_1">
   <path d="M 0 345.6 
L 460.8 345.6 
L 460.8 0 
L 0 0 
z
" style="fill: #ffffff"/>
  </g>
  <g id="patch_2">
   <path d="M 76.44 334.8 
L 384.36 334.8 
L 384.36 26.88 
L 76.44 26.88 
z
" style="fill: #ffffff"/>
  </g>
  <g id="pane3d_1">
   <g id="patch_3">
    <path d="M 99.690083 258.876796 
L 201.375324 173.642211 
L 199.961801 50.718703 
L 93.410398 128.475064 
" style="fill: #f2f2f2; opacity: 0.5; stroke: #f2f2f2; stroke-linejoin: miter"/>
   </g>
  </g>
  <g id="pane3d_2">
   <g id="patch_4">
    <path d="M 201.375324 173.642211 
L 364.543853 221.068861 
L 370.366762 93.911394 
L 199.961801 50.718703 
" style="fill: #e6e6e6; opacity: 0.5; stroke: #e6e6e6; stroke-linejoin: miter"/>
   </g>
  </g>
  <g id="pane3d_3">
   <g id="patch_5">
    <path d="M 99.690083 258.876796 
L 272.656694 315.367691 
L 364.543853 221.068861 
L 201.375324 173.642211 
" style="fill: #ececec; opacity: 0.5; stroke: #ececec; stroke-linejoin: miter"/>
   </g>
  </g>
  <g id="grid3d_1">
   <g id="Line3DCollection_1">
    <path d="M 116.620141 264.406153 
L 217.410064 178.302877 
L 216.675823 54.955221 
" style="fill: none; stroke: #b0b0b0; stroke-width: 0.8"/>
    <path d="M 142.242912 272.77455 
L 241.65143 185.348885 
L 241.957288 61.363335 
" style="fill: none; stroke: #b0b0b0; stroke-width: 0.8"/>
    <path d="M 168.277906 281.277579 
L 266.250301 192.498806 
L 267.627805 67.870063 
" style="fill: none; stroke: #b0b0b0; stroke-width: 0.8"/>
    <path d="M 194.735151 289.918515 
L 291.214645 199.754955 
L 293.696423 74.477698 
" style="fill: none; stroke: #b0b0b0; stroke-width: 0.8"/>
    <path d="M 221.625003 298.700741 
L 316.552666 207.119718 
L 320.172476 81.188605 
" style="fill: none; stroke: #b0b0b0; stroke-width: 0.8"/>
    <path d="M 248.958161 307.62775 
L 342.272819 214.595551 
L 347.06559 88.005226 
" style="fill: none; stroke: #b0b0b0; stroke-width: 0.8"/>
   </g>
  </g>
  <g id="grid3d_2">
   <g id="Line3DCollection_2">
    <path d="M 104.286085 120.538484 
L 110.033747 250.206533 
L 282.040808 305.737281 
" style="fill: none; stroke: #b0b0b0; stroke-width: 0.8"/>
    <path d="M 124.757407 105.599445 
L 129.525374 233.868264 
L 299.701329 287.613242 
" style="fill: none; stroke: #b0b0b0; stroke-width: 0.8"/>
    <path d="M 144.563725 91.145696 
L 148.410889 218.038051 
L 316.784164 270.082051 
" style="fill: none; stroke: #b0b0b0; stroke-width: 0.8"/>
    <path d="M 163.736925 77.153968 
L 166.71813 202.692559 
L 333.3172 253.115089 
" style="fill: none; stroke: #b0b0b0; stroke-width: 0.8"/>
    <path d="M 182.306885 63.602457 
L 184.473257 187.809859 
L 349.326559 236.685548 
" style="fill: none; stroke: #b0b0b0; stroke-width: 0.8"/>
   </g>
  </g>
  <g id="grid3d_3">
   <g id="Line3DCollection_3">
    <path d="M 365.004291 211.014067 
L 201.263334 163.903298 
L 99.194297 248.581466 
" style="fill: none; stroke: #b0b0b0; stroke-width: 0.8"/>
    <path d="M 366.171104 185.533842 
L 200.979704 139.238124 
L 97.937314 222.479403 
" style="fill: none; stroke: #b0b0b0; stroke-width: 0.8"/>
    <path d="M 367.358981 159.593663 
L 200.691201 114.149145 
L 96.656768 195.888041 
" style="fill: none; stroke: #b0b0b0; stroke-width: 0.8"/>
    <path d="M 368.568495 133.18096 
L 200.397698 88.625344 
L 95.351991 168.793492 
" style="fill: none; stroke: #b0b0b0; stroke-width: 0.8"/>
    <path d="M 369.800244 106.282705 
L 200.099063 62.655316 
L 94.022287 141.181338 
" style="fill: none; stroke: #b0b0b0; stroke-width: 0.8"/>
   </g>
  </g>
  <g id="axis3d_1">
   <g id="line2d_1">
    <path d="M 99.690083 258.876796 
L 272.656694 315.367691 
" style="fill: none; stroke: #000000; stroke-width: 0.8; stroke-linecap: square"/>
   </g>
   <g id="xtick_1">
    <g id="line2d_2">
     <path d="M 117.497957 263.656248 
L 114.860733 265.909187 
" style="fill: none; stroke: #000000; stroke-width: 0.8; stroke-linecap: square"/>
    </g>
    <g id="text_1">
     <!-- −20 -->
     <g transform="translate(98.548106 287.745888) scale(0.1 -0.1)">
      <defs>
       <path id="DejaVuSans-2212" d="M 678 2272 
L 4684 2272 
L 4684 1741 
L 678 1741 
L 678 2272 
z
" transform="scale(0.015625)"/>
       <path id="DejaVuSans-32" d="M 1228 531 
L 3431 531 
L 3431 0 
L 469 0 
L 469 531 
Q 828 903 1448 1529 
Q 2069 2156 2228 2338 
Q 2531 2678 2651 2914 
Q 2772 3150 2772 3378 
Q 2772 3750 2511 3984 
Q 2250 4219 1831 4219 
Q 1534 4219 1204 4116 
Q 875 4013 500 3803 
L 500 4441 
Q 881 4594 1212 4672 
Q 1544 4750 1819 4750 
Q 2544 4750 2975 4387 
Q 3406 4025 3406 3419 
Q 3406 3131 3298 2873 
Q 3191 2616 2906 2266 
Q 2828 2175 2409 1742 
Q 1991 1309 1228 531 
z
" transform="scale(0.015625)"/>
       <path id="DejaVuSans-30" d="M 2034 4250 
Q 1547 4250 1301 3770 
Q 1056 3291 1056 2328 
Q 1056 1369 1301 889 
Q 1547 409 2034 409 
Q 2525 409 2770 889 
Q 3016 1369 3016 2328 
Q 3016 3291 2770 3770 
Q 2525 4250 2034 4250 
z
M 2034 4750 
Q 2819 4750 3233 4129 
Q 3647 3509 3647 2328 
Q 3647 1150 3233 529 
Q 2819 -91 2034 -91 
Q 1250 -91 836 529 
Q 422 1150 422 2328 
Q 422 3509 836 4129 
Q 1250 4750 2034 4750 
z
" transform="scale(0.015625)"/>
      </defs>
      <use xlink:href="#DejaVuSans-2212"/>
      <use xlink:href="#DejaVuSans-32" x="83.789062"/>
      <use xlink:href="#DejaVuSans-30" x="147.412109"/>
     </g>
    </g>
   </g>
   <g id="xtick_2">
    <g id="line2d_3">
     <path d="M 143.10926 272.012633 
L 140.506462 274.301686 
" style="fill: none; stroke: #000000; stroke-width: 0.8; stroke-linecap: square"/>
    </g>
    <g id="text_2">
     <!-- −10 -->
     <g transform="translate(124.193776 296.267446) scale(0.1 -0.1)">
      <defs>
       <path id="DejaVuSans-31" d="M 794 531 
L 1825 531 
L 1825 4091 
L 703 3866 
L 703 4441 
L 1819 4666 
L 2450 4666 
L 2450 531 
L 3481 531 
L 3481 0 
L 794 0 
L 794 531 
z
" transform="scale(0.015625)"/>
      </defs>
      <use xlink:href="#DejaVuSans-2212"/>
      <use xlink:href="#DejaVuSans-31" x="83.789062"/>
      <use xlink:href="#DejaVuSans-30" x="147.412109"/>
     </g>
    </g>
   </g>
   <g id="xtick_3">
    <g id="line2d_4">
     <path d="M 169.132301 280.503359 
L 166.565383 282.8294 
" style="fill: none; stroke: #000000; stroke-width: 0.8; stroke-linecap: square"/>
    </g>
    <g id="text_3">
     <!-- 0 -->
     <g transform="translate(157.624479 304.926549) scale(0.1 -0.1)">
      <use xlink:href="#DejaVuSans-30"/>
     </g>
    </g>
   </g>
   <g id="xtick_4">
    <g id="line2d_5">
     <path d="M 195.57709 289.131692 
L 193.047564 291.495625 
" style="fill: none; stroke: #000000; stroke-width: 0.8; stroke-linecap: square"/>
    </g>
    <g id="text_4">
     <!-- 10 -->
     <g transform="translate(180.926881 313.726552) scale(0.1 -0.1)">
      <use xlink:href="#DejaVuSans-31"/>
      <use xlink:href="#DejaVuSans-30" x="63.623047"/>
     </g>
    </g>
   </g>
   <g id="xtick_5">
    <g id="line2d_6">
     <path d="M 222.453964 297.901005 
L 219.963401 300.303763 
" style="fill: none; stroke: #000000; stroke-width: 0.8; stroke-linecap: square"/>
    </g>
    <g id="text_5">
     <!-- 20 -->
     <g transform="translate(207.845012 322.670925) scale(0.1 -0.1)">
      <use xlink:href="#DejaVuSans-32"/>
      <use xlink:href="#DejaVuSans-30" x="63.623047"/>
     </g>
    </g>
   </g>
   <g id="xtick_6">
    <g id="line2d_7">
     <path d="M 249.773599 306.81478 
L 247.323634 309.257329 
" style="fill: none; stroke: #000000; stroke-width: 0.8; stroke-linecap: square"/>
    </g>
    <g id="text_6">
     <!-- 30 -->
     <g transform="translate(235.208402 331.763248) scale(0.1 -0.1)">
      <defs>
       <path id="DejaVuSans-33" d="M 2597 2516 
Q 3050 2419 3304 2112 
Q 3559 1806 3559 1356 
Q 3559 666 3084 287 
Q 2609 -91 1734 -91 
Q 1441 -91 1130 -33 
Q 819 25 488 141 
L 488 750 
Q 750 597 1062 519 
Q 1375 441 1716 441 
Q 2309 441 2620 675 
Q 2931 909 2931 1356 
Q 2931 1769 2642 2001 
Q 2353 2234 1838 2234 
L 1294 2234 
L 1294 2753 
L 1863 2753 
Q 2328 2753 2575 2939 
Q 2822 3125 2822 3475 
Q 2822 3834 2567 4026 
Q 2313 4219 1838 4219 
Q 1578 4219 1281 4162 
Q 984 4106 628 3988 
L 628 4550 
Q 988 4650 1302 4700 
Q 1616 4750 1894 4750 
Q 2613 4750 3031 4423 
Q 3450 4097 3450 3541 
Q 3450 3153 3228 2886 
Q 3006 2619 2597 2516 
z
" transform="scale(0.015625)"/>
      </defs>
      <use xlink:href="#DejaVuSans-33"/>
      <use xlink:href="#DejaVuSans-30" x="63.623047"/>
     </g>
    </g>
   </g>
   <g id="text_7">
    <!-- τ₁ (in.lbs) -->
    <g transform="translate(144.120388 316.837648) rotate(-341.912962) scale(0.1 -0.1)">
     <defs>
      <path id="DejaVuSans-3c4" d="M 2319 638 
Q 2431 488 2769 488 
L 3047 488 
L 3047 0 
L 2700 0 
Q 2138 0 1881 300 
Q 1625 606 1625 1269 
L 1625 2925 
L 313 2925 
L 313 3500 
L 3541 3500 
L 3541 2925 
L 2213 2925 
L 2213 1234 
Q 2213 781 2319 638 
z
" transform="scale(0.015625)"/>
      <path id="DejaVuSans-2081" d="M 488 319 
L 1125 319 
L 1125 2229 
L 428 2101 
L 428 2463 
L 1147 2585 
L 1575 2585 
L 1575 319 
L 2216 319 
L 2216 -24 
L 488 -24 
L 488 319 
z
" transform="scale(0.015625)"/>
      <path id="DejaVuSans-20" transform="scale(0.015625)"/>
      <path id="DejaVuSans-28" d="M 1984 4856 
Q 1566 4138 1362 3434 
Q 1159 2731 1159 2009 
Q 1159 1288 1364 580 
Q 1569 -128 1984 -844 
L 1484 -844 
Q 1016 -109 783 600 
Q 550 1309 550 2009 
Q 550 2706 781 3412 
Q 1013 4119 1484 4856 
L 1984 4856 
z
" transform="scale(0.015625)"/>
      <path id="DejaVuSans-69" d="M 603 3500 
L 1178 3500 
L 1178 0 
L 603 0 
L 603 3500 
z
M 603 4863 
L 1178 4863 
L 1178 4134 
L 603 4134 
L 603 4863 
z
" transform="scale(0.015625)"/>
      <path id="DejaVuSans-6e" d="M 3513 2113 
L 3513 0 
L 2938 0 
L 2938 2094 
Q 2938 2591 2744 2837 
Q 2550 3084 2163 3084 
Q 1697 3084 1428 2787 
Q 1159 2491 1159 1978 
L 1159 0 
L 581 0 
L 581 3500 
L 1159 3500 
L 1159 2956 
Q 1366 3272 1645 3428 
Q 1925 3584 2291 3584 
Q 2894 3584 3203 3211 
Q 3513 2838 3513 2113 
z
" transform="scale(0.015625)"/>
      <path id="DejaVuSans-2e" d="M 684 794 
L 1344 794 
L 1344 0 
L 684 0 
L 684 794 
z
" transform="scale(0.015625)"/>
      <path id="DejaVuSans-6c" d="M 603 4863 
L 1178 4863 
L 1178 0 
L 603 0 
L 603 4863 
z
" transform="scale(0.015625)"/>
      <path id="DejaVuSans-62" d="M 3116 1747 
Q 3116 2381 2855 2742 
Q 2594 3103 2138 3103 
Q 1681 3103 1420 2742 
Q 1159 2381 1159 1747 
Q 1159 1113 1420 752 
Q 1681 391 2138 391 
Q 2594 391 2855 752 
Q 3116 1113 3116 1747 
z
M 1159 2969 
Q 1341 3281 1617 3432 
Q 1894 3584 2278 3584 
Q 2916 3584 3314 3078 
Q 3713 2572 3713 1747 
Q 3713 922 3314 415 
Q 2916 -91 2278 -91 
Q 1894 -91 1617 61 
Q 1341 213 1159 525 
L 1159 0 
L 581 0 
L 581 4863 
L 1159 4863 
L 1159 2969 
z
" transform="scale(0.015625)"/>
      <path id="DejaVuSans-73" d="M 2834 3397 
L 2834 2853 
Q 2591 2978 2328 3040 
Q 2066 3103 1784 3103 
Q 1356 3103 1142 2972 
Q 928 2841 928 2578 
Q 928 2378 1081 2264 
Q 1234 2150 1697 2047 
L 1894 2003 
Q 2506 1872 2764 1633 
Q 3022 1394 3022 966 
Q 3022 478 2636 193 
Q 2250 -91 1575 -91 
Q 1294 -91 989 -36 
Q 684 19 347 128 
L 347 722 
Q 666 556 975 473 
Q 1284 391 1588 391 
Q 1994 391 2212 530 
Q 2431 669 2431 922 
Q 2431 1156 2273 1281 
Q 2116 1406 1581 1522 
L 1381 1569 
Q 847 1681 609 1914 
Q 372 2147 372 2553 
Q 372 3047 722 3315 
Q 1072 3584 1716 3584 
Q 2034 3584 2315 3537 
Q 2597 3491 2834 3397 
z
" transform="scale(0.015625)"/>
      <path id="DejaVuSans-29" d="M 513 4856 
L 1013 4856 
Q 1481 4119 1714 3412 
Q 1947 2706 1947 2009 
Q 1947 1309 1714 600 
Q 1481 -109 1013 -844 
L 513 -844 
Q 928 -128 1133 580 
Q 1338 1288 1338 2009 
Q 1338 2731 1133 3434 
Q 928 4138 513 4856 
z
" transform="scale(0.015625)"/>
     </defs>
     <use xlink:href="#DejaVuSans-3c4"/>
     <use xlink:href="#DejaVuSans-2081" x="60.205078"/>
     <use xlink:href="#DejaVuSans-20" x="100.292969"/>
     <use xlink:href="#DejaVuSans-28" x="132.080078"/>
     <use xlink:href="#DejaVuSans-69" x="171.09375"/>
     <use xlink:href="#DejaVuSans-6e" x="198.876953"/>
     <use xlink:href="#DejaVuSans-2e" x="262.255859"/>
     <use xlink:href="#DejaVuSans-6c" x="294.042969"/>
     <use xlink:href="#DejaVuSans-62" x="321.826172"/>
     <use xlink:href="#DejaVuSans-73" x="385.302734"/>
     <use xlink:href="#DejaVuSans-29" x="437.402344"/>
    </g>
   </g>
  </g>
  <g id="axis3d_2">
   <g id="line2d_8">
    <path d="M 364.543853 221.068861 
L 272.656694 315.367691 
" style="fill: none; stroke: #000000; stroke-width: 0.8; stroke-linecap: square"/>
   </g>
   <g id="xtick_7">
    <g id="line2d_9">
     <path d="M 280.591508 305.269389 
L 284.943145 306.674272 
" style="fill: none; stroke: #000000; stroke-width: 0.8; stroke-linecap: square"/>
    </g>
    <g id="text_8">
     <!-- −20 -->
     <g transform="translate(284.333001 326.718164) scale(0.1 -0.1)">
      <use xlink:href="#DejaVuSans-2212"/>
      <use xlink:href="#DejaVuSans-32" x="83.789062"/>
      <use xlink:href="#DejaVuSans-30" x="147.412109"/>
     </g>
    </g>
   </g>
   <g id="xtick_8">
    <g id="line2d_10">
     <path d="M 298.268662 287.160777 
L 302.570297 288.519319 
" style="fill: none; stroke: #000000; stroke-width: 0.8; stroke-linecap: square"/>
    </g>
    <g id="text_9">
     <!-- −10 -->
     <g transform="translate(301.788806 308.362302) scale(0.1 -0.1)">
      <use xlink:href="#DejaVuSans-2212"/>
      <use xlink:href="#DejaVuSans-31" x="83.789062"/>
      <use xlink:href="#DejaVuSans-30" x="147.412109"/>
     </g>
    </g>
   </g>
   <g id="xtick_9">
    <g id="line2d_11">
     <path d="M 315.367826 269.644262 
L 319.620373 270.95872 
" style="fill: none; stroke: #000000; stroke-width: 0.8; stroke-linecap: square"/>
    </g>
    <g id="text_10">
     <!-- 0 -->
     <g transform="translate(326.044428 290.607172) scale(0.1 -0.1)">
      <use xlink:href="#DejaVuSans-30"/>
     </g>
    </g>
   </g>
   <g id="xtick_10">
    <g id="line2d_12">
     <path d="M 331.91689 252.691274 
L 336.121256 253.963759 
" style="fill: none; stroke: #000000; stroke-width: 0.8; stroke-linecap: square"/>
    </g>
    <g id="text_11">
     <!-- 10 -->
     <g transform="translate(339.204023 273.423759) scale(0.1 -0.1)">
      <use xlink:href="#DejaVuSans-31"/>
      <use xlink:href="#DejaVuSans-30" x="63.623047"/>
     </g>
    </g>
   </g>
   <g id="xtick_11">
    <g id="line2d_13">
     <path d="M 347.94198 236.275048 
L 352.09906 237.507539 
" style="fill: none; stroke: #000000; stroke-width: 0.8; stroke-linecap: square"/>
    </g>
    <g id="text_12">
     <!-- 20 -->
     <g transform="translate(355.027029 256.784885) scale(0.1 -0.1)">
      <use xlink:href="#DejaVuSans-32"/>
      <use xlink:href="#DejaVuSans-30" x="63.623047"/>
     </g>
    </g>
   </g>
   <g id="text_13">
    <!-- τ₂ (in.lbs) -->
    <g transform="translate(332.975431 313.099597) rotate(-45.742112) scale(0.1 -0.1)">
     <defs>
      <path id="DejaVuSans-2082" d="M 838 332 
L 2163 332 
L 2163 -24 
L 294 -24 
L 294 319 
Q 400 416 597 591 
Q 1672 1544 1672 1838 
Q 1672 2044 1509 2170 
Q 1347 2297 1081 2297 
Q 919 2297 728 2242 
Q 538 2188 313 2079 
L 313 2463 
Q 553 2551 761 2594 
Q 969 2638 1147 2638 
Q 1600 2638 1872 2432 
Q 2144 2226 2144 1888 
Q 2144 1454 1109 566 
Q 934 416 838 332 
z
" transform="scale(0.015625)"/>
     </defs>
     <use xlink:href="#DejaVuSans-3c4"/>
     <use xlink:href="#DejaVuSans-2082" x="60.205078"/>
     <use xlink:href="#DejaVuSans-20" x="100.292969"/>
     <use xlink:href="#DejaVuSans-28" x="132.080078"/>
     <use xlink:href="#DejaVuSans-69" x="171.09375"/>
     <use xlink:href="#DejaVuSans-6e" x="198.876953"/>
     <use xlink:href="#DejaVuSans-2e" x="262.255859"/>
     <use xlink:href="#DejaVuSans-6c" x="294.042969"/>
     <use xlink:href="#DejaVuSans-62" x="321.826172"/>
     <use xlink:href="#DejaVuSans-73" x="385.302734"/>
     <use xlink:href="#DejaVuSans-29" x="437.402344"/>
    </g>
   </g>
  </g>
  <g id="axis3d_3">
   <g id="line2d_14">
    <path d="M 364.543853 221.068861 
L 370.366762 93.911394 
" style="fill: none; stroke: #000000; stroke-width: 0.8; stroke-linecap: square"/>
   </g>
   <g id="xtick_12">
    <g id="line2d_15">
     <path d="M 363.629826 210.618612 
L 367.756502 211.80592 
" style="fill: none; stroke: #000000; stroke-width: 0.8; stroke-linecap: square"/>
    </g>
    <g id="text_14">
     <!-- −20 -->
     <g transform="translate(372.771321 216.023395) scale(0.1 -0.1)">
      <use xlink:href="#DejaVuSans-2212"/>
      <use xlink:href="#DejaVuSans-32" x="83.789062"/>
      <use xlink:href="#DejaVuSans-30" x="147.412109"/>
     </g>
    </g>
   </g>
   <g id="xtick_13">
    <g id="line2d_16">
     <path d="M 364.783882 185.145066 
L 368.948891 186.312331 
" style="fill: none; stroke: #000000; stroke-width: 0.8; stroke-linecap: square"/>
    </g>
    <g id="text_15">
     <!-- −10 -->
     <g transform="translate(374.098508 190.586946) scale(0.1 -0.1)">
      <use xlink:href="#DejaVuSans-2212"/>
      <use xlink:href="#DejaVuSans-31" x="83.789062"/>
      <use xlink:href="#DejaVuSans-30" x="147.412109"/>
     </g>
    </g>
   </g>
   <g id="xtick_14">
    <g id="line2d_17">
     <path d="M 365.958762 159.211872 
L 370.162821 160.358173 
" style="fill: none; stroke: #000000; stroke-width: 0.8; stroke-linecap: square"/>
    </g>
    <g id="text_16">
     <!-- 0 -->
     <g transform="translate(382.820684 164.692548) scale(0.1 -0.1)">
      <use xlink:href="#DejaVuSans-30"/>
     </g>
    </g>
   </g>
   <g id="xtick_15">
    <g id="line2d_18">
     <path d="M 367.155034 132.806474 
L 371.398882 133.93085 
" style="fill: none; stroke: #000000; stroke-width: 0.8; stroke-linecap: square"/>
    </g>
    <g id="text_17">
     <!-- 10 -->
     <g transform="translate(381.015061 138.327721) scale(0.1 -0.1)">
      <use xlink:href="#DejaVuSans-31"/>
      <use xlink:href="#DejaVuSans-30" x="63.623047"/>
     </g>
    </g>
   </g>
   <g id="xtick_16">
    <g id="line2d_19">
     <path d="M 368.37329 105.915859 
L 372.657684 107.017306 
" style="fill: none; stroke: #000000; stroke-width: 0.8; stroke-linecap: square"/>
    </g>
    <g id="text_18">
     <!-- 20 -->
     <g transform="translate(382.415909 111.479529) scale(0.1 -0.1)">
      <use xlink:href="#DejaVuSans-32"/>
      <use xlink:href="#DejaVuSans-30" x="63.623047"/>
     </g>
    </g>
   </g>
   <g id="text_19">
    <!-- τ₃ (in.lbs) -->
    <g transform="translate(409.470566 177.390407) rotate(-87.378092) scale(0.1 -0.1)">
     <defs>
      <path id="DejaVuSans-2083" d="M 1638 1388 
Q 1925 1332 2083 1161 
Q 2241 991 2241 735 
Q 2241 347 1944 138 
Q 1647 -71 1094 -71 
Q 916 -71 720 -38 
Q 525 -6 306 57 
L 306 435 
Q 469 351 655 310 
Q 841 269 1050 269 
Q 1391 269 1578 392 
Q 1766 516 1766 735 
Q 1766 966 1592 1085 
Q 1419 1204 1081 1204 
L 813 1204 
L 813 1541 
L 1106 1541 
Q 1400 1541 1551 1639 
Q 1703 1738 1703 1926 
Q 1703 2107 1547 2202 
Q 1391 2297 1094 2297 
Q 969 2297 809 2269 
Q 650 2241 397 2169 
L 397 2529 
Q 625 2582 825 2610 
Q 1025 2638 1197 2638 
Q 1647 2638 1911 2453 
Q 2175 2269 2175 1960 
Q 2175 1744 2034 1594 
Q 1894 1444 1638 1388 
z
" transform="scale(0.015625)"/>
     </defs>
     <use xlink:href="#DejaVuSans-3c4"/>
     <use xlink:href="#DejaVuSans-2083" x="60.205078"/>
     <use xlink:href="#DejaVuSans-20" x="100.292969"/>
     <use xlink:href="#DejaVuSans-28" x="132.080078"/>
     <use xlink:href="#DejaVuSans-69" x="171.09375"/>
     <use xlink:href="#DejaVuSans-6e" x="198.876953"/>
     <use xlink:href="#DejaVuSans-2e" x="262.255859"/>
     <use xlink:href="#DejaVuSans-6c" x="294.042969"/>
     <use xlink:href="#DejaVuSans-62" x="321.826172"/>
     <use xlink:href="#DejaVuSans-73" x="385.302734"/>
     <use xlink:href="#DejaVuSans-29" x="437.402344"/>
    </g>
   </g>
  </g>
  <g id="axes_1">
   <g id="line2d_20">
    <path d="M 156.984033 159.715983 
L 307.158962 203.318635 
" clip-path="url(#pb69bf3a6ba)" style="fill: none; stroke: #000000; stroke-linecap: square"/>
   </g>
   <g id="line2d_21">
    <path d="M 173.680043 211.527983 
L 261.053222 137.194919 
" clip-path="url(#pb69bf3a6ba)" style="fill: none; stroke: #000000; stroke-linecap: square"/>
   </g>
   <g id="line2d_22">
    <path d="M 215.208898 230.848278 
L 214.440659 118.554651 
" clip-path="url(#pb69bf3a6ba)" style="fill: none; stroke: #000000; stroke-linecap: square"/>
   </g>
   <g id="Poly3DCollection_1">
    <defs>
     <path id="m64c1f02a6f" d="M 323.533676 -188.446947 
L 193.27983 -140.771082 
L 271.482308 -202.784364 
z
" style="stroke: #0343df"/>
    </defs>
    <g clip-path="url(#pb69bf3a6ba)">
     <use xlink:href="#m64c1f02a6f" x="0" y="345.6" style="fill: #0343df; fill-opacity: 0.4; stroke: #0343df"/>
    </g>
   </g>
   <g id="text_20">
    <!-- Best of Inherently Controllable Capability Polytope -->
    <g transform="translate(79.25625 20.88) scale(0.12 -0.12)">
     <defs>
      <path id="DejaVuSans-42" d="M 1259 2228 
L 1259 519 
L 2272 519 
Q 2781 519 3026 730 
Q 3272 941 3272 1375 
Q 3272 1813 3026 2020 
Q 2781 2228 2272 2228 
L 1259 2228 
z
M 1259 4147 
L 1259 2741 
L 2194 2741 
Q 2656 2741 2882 2914 
Q 3109 3088 3109 3444 
Q 3109 3797 2882 3972 
Q 2656 4147 2194 4147 
L 1259 4147 
z
M 628 4666 
L 2241 4666 
Q 2963 4666 3353 4366 
Q 3744 4066 3744 3513 
Q 3744 3084 3544 2831 
Q 3344 2578 2956 2516 
Q 3422 2416 3680 2098 
Q 3938 1781 3938 1306 
Q 3938 681 3513 340 
Q 3088 0 2303 0 
L 628 0 
L 628 4666 
z
" transform="scale(0.015625)"/>
      <path id="DejaVuSans-65" d="M 3597 1894 
L 3597 1613 
L 953 1613 
Q 991 1019 1311 708 
Q 1631 397 2203 397 
Q 2534 397 2845 478 
Q 3156 559 3463 722 
L 3463 178 
Q 3153 47 2828 -22 
Q 2503 -91 2169 -91 
Q 1331 -91 842 396 
Q 353 884 353 1716 
Q 353 2575 817 3079 
Q 1281 3584 2069 3584 
Q 2775 3584 3186 3129 
Q 3597 2675 3597 1894 
z
M 3022 2063 
Q 3016 2534 2758 2815 
Q 2500 3097 2075 3097 
Q 1594 3097 1305 2825 
Q 1016 2553 972 2059 
L 3022 2063 
z
" transform="scale(0.015625)"/>
      <path id="DejaVuSans-74" d="M 1172 4494 
L 1172 3500 
L 2356 3500 
L 2356 3053 
L 1172 3053 
L 1172 1153 
Q 1172 725 1289 603 
Q 1406 481 1766 481 
L 2356 481 
L 2356 0 
L 1766 0 
Q 1100 0 847 248 
Q 594 497 594 1153 
L 594 3053 
L 172 3053 
L 172 3500 
L 594 3500 
L 594 4494 
L 1172 4494 
z
" transform="scale(0.015625)"/>
      <path id="DejaVuSans-6f" d="M 1959 3097 
Q 1497 3097 1228 2736 
Q 959 2375 959 1747 
Q 959 1119 1226 758 
Q 1494 397 1959 397 
Q 2419 397 2687 759 
Q 2956 1122 2956 1747 
Q 2956 2369 2687 2733 
Q 2419 3097 1959 3097 
z
M 1959 3584 
Q 2709 3584 3137 3096 
Q 3566 2609 3566 1747 
Q 3566 888 3137 398 
Q 2709 -91 1959 -91 
Q 1206 -91 779 398 
Q 353 888 353 1747 
Q 353 2609 779 3096 
Q 1206 3584 1959 3584 
z
" transform="scale(0.015625)"/>
      <path id="DejaVuSans-66" d="M 2375 4863 
L 2375 4384 
L 1825 4384 
Q 1516 4384 1395 4259 
Q 1275 4134 1275 3809 
L 1275 3500 
L 2222 3500 
L 2222 3053 
L 1275 3053 
L 1275 0 
L 697 0 
L 697 3053 
L 147 3053 
L 147 3500 
L 697 3500 
L 697 3744 
Q 697 4328 969 4595 
Q 1241 4863 1831 4863 
L 2375 4863 
z
" transform="scale(0.015625)"/>
      <path id="DejaVuSans-49" d="M 628 4666 
L 1259 4666 
L 1259 0 
L 628 0 
L 628 4666 
z
" transform="scale(0.015625)"/>
      <path id="DejaVuSans-68" d="M 3513 2113 
L 3513 0 
L 2938 0 
L 2938 2094 
Q 2938 2591 2744 2837 
Q 2550 3084 2163 3084 
Q 1697 3084 1428 2787 
Q 1159 2491 1159 1978 
L 1159 0 
L 581 0 
L 581 4863 
L 1159 4863 
L 1159 2956 
Q 1366 3272 1645 3428 
Q 1925 3584 2291 3584 
Q 2894 3584 3203 3211 
Q 3513 2838 3513 2113 
z
" transform="scale(0.015625)"/>
      <path id="DejaVuSans-72" d="M 2631 2963 
Q 2534 3019 2420 3045 
Q 2306 3072 2169 3072 
Q 1681 3072 1420 2755 
Q 1159 2438 1159 1844 
L 1159 0 
L 581 0 
L 581 3500 
L 1159 3500 
L 1159 2956 
Q 1341 3275 1631 3429 
Q 1922 3584 2338 3584 
Q 2397 3584 2469 3576 
Q 2541 3569 2628 3553 
L 2631 2963 
z
" transform="scale(0.015625)"/>
      <path id="DejaVuSans-79" d="M 2059 -325 
Q 1816 -950 1584 -1140 
Q 1353 -1331 966 -1331 
L 506 -1331 
L 506 -850 
L 844 -850 
Q 1081 -850 1212 -737 
Q 1344 -625 1503 -206 
L 1606 56 
L 191 3500 
L 800 3500 
L 1894 763 
L 2988 3500 
L 3597 3500 
L 2059 -325 
z
" transform="scale(0.015625)"/>
      <path id="DejaVuSans-43" d="M 4122 4306 
L 4122 3641 
Q 3803 3938 3442 4084 
Q 3081 4231 2675 4231 
Q 1875 4231 1450 3742 
Q 1025 3253 1025 2328 
Q 1025 1406 1450 917 
Q 1875 428 2675 428 
Q 3081 428 3442 575 
Q 3803 722 4122 1019 
L 4122 359 
Q 3791 134 3420 21 
Q 3050 -91 2638 -91 
Q 1578 -91 968 557 
Q 359 1206 359 2328 
Q 359 3453 968 4101 
Q 1578 4750 2638 4750 
Q 3056 4750 3426 4639 
Q 3797 4528 4122 4306 
z
" transform="scale(0.015625)"/>
      <path id="DejaVuSans-61" d="M 2194 1759 
Q 1497 1759 1228 1600 
Q 959 1441 959 1056 
Q 959 750 1161 570 
Q 1363 391 1709 391 
Q 2188 391 2477 730 
Q 2766 1069 2766 1631 
L 2766 1759 
L 2194 1759 
z
M 3341 1997 
L 3341 0 
L 2766 0 
L 2766 531 
Q 2569 213 2275 61 
Q 1981 -91 1556 -91 
Q 1019 -91 701 211 
Q 384 513 384 1019 
Q 384 1609 779 1909 
Q 1175 2209 1959 2209 
L 2766 2209 
L 2766 2266 
Q 2766 2663 2505 2880 
Q 2244 3097 1772 3097 
Q 1472 3097 1187 3025 
Q 903 2953 641 2809 
L 641 3341 
Q 956 3463 1253 3523 
Q 1550 3584 1831 3584 
Q 2591 3584 2966 3190 
Q 3341 2797 3341 1997 
z
" transform="scale(0.015625)"/>
      <path id="DejaVuSans-70" d="M 1159 525 
L 1159 -1331 
L 581 -1331 
L 581 3500 
L 1159 3500 
L 1159 2969 
Q 1341 3281 1617 3432 
Q 1894 3584 2278 3584 
Q 2916 3584 3314 3078 
Q 3713 2572 3713 1747 
Q 3713 922 3314 415 
Q 2916 -91 2278 -91 
Q 1894 -91 1617 61 
Q 1341 213 1159 525 
z
M 3116 1747 
Q 3116 2381 2855 2742 
Q 2594 3103 2138 3103 
Q 1681 3103 1420 2742 
Q 1159 2381 1159 1747 
Q 1159 1113 1420 752 
Q 1681 391 2138 391 
Q 2594 391 2855 752 
Q 3116 1113 3116 1747 
z
" transform="scale(0.015625)"/>
      <path id="DejaVuSans-50" d="M 1259 4147 
L 1259 2394 
L 2053 2394 
Q 2494 2394 2734 2622 
Q 2975 2850 2975 3272 
Q 2975 3691 2734 3919 
Q 2494 4147 2053 4147 
L 1259 4147 
z
M 628 4666 
L 2053 4666 
Q 2838 4666 3239 4311 
Q 3641 3956 3641 3272 
Q 3641 2581 3239 2228 
Q 2838 1875 2053 1875 
L 1259 1875 
L 1259 0 
L 628 0 
L 628 4666 
z
" transform="scale(0.015625)"/>
     </defs>
     <use xlink:href="#DejaVuSans-42"/>
     <use xlink:href="#DejaVuSans-65" x="68.603516"/>
     <use xlink:href="#DejaVuSans-73" x="130.126953"/>
     <use xlink:href="#DejaVuSans-74" x="182.226562"/>
     <use xlink:href="#DejaVuSans-20" x="221.435547"/>
     <use xlink:href="#DejaVuSans-6f" x="253.222656"/>
     <use xlink:href="#DejaVuSans-66" x="314.404297"/>
     <use xlink:href="#DejaVuSans-20" x="349.609375"/>
     <use xlink:href="#DejaVuSans-49" x="381.396484"/>
     <use xlink:href="#DejaVuSans-6e" x="410.888672"/>
     <use xlink:href="#DejaVuSans-68" x="474.267578"/>
     <use xlink:href="#DejaVuSans-65" x="537.646484"/>
     <use xlink:href="#DejaVuSans-72" x="599.169922"/>
     <use xlink:href="#DejaVuSans-65" x="638.033203"/>
     <use xlink:href="#DejaVuSans-6e" x="699.556641"/>
     <use xlink:href="#DejaVuSans-74" x="762.935547"/>
     <use xlink:href="#DejaVuSans-6c" x="802.144531"/>
     <use xlink:href="#DejaVuSans-79" x="829.927734"/>
     <use xlink:href="#DejaVuSans-20" x="889.107422"/>
     <use xlink:href="#DejaVuSans-43" x="920.894531"/>
     <use xlink:href="#DejaVuSans-6f" x="990.71875"/>
     <use xlink:href="#DejaVuSans-6e" x="1051.900391"/>
     <use xlink:href="#DejaVuSans-74" x="1115.279297"/>
     <use xlink:href="#DejaVuSans-72" x="1154.488281"/>
     <use xlink:href="#DejaVuSans-6f" x="1193.351562"/>
     <use xlink:href="#DejaVuSans-6c" x="1254.533203"/>
     <use xlink:href="#DejaVuSans-6c" x="1282.316406"/>
     <use xlink:href="#DejaVuSans-61" x="1310.099609"/>
     <use xlink:href="#DejaVuSans-62" x="1371.378906"/>
     <use xlink:href="#DejaVuSans-6c" x="1434.855469"/>
     <use xlink:href="#DejaVuSans-65" x="1462.638672"/>
     <use xlink:href="#DejaVuSans-20" x="1524.162109"/>
     <use xlink:href="#DejaVuSans-43" x="1555.949219"/>
     <use xlink:href="#DejaVuSans-61" x="1625.773438"/>
     <use xlink:href="#DejaVuSans-70" x="1687.052734"/>
     <use xlink:href="#DejaVuSans-61" x="1750.529297"/>
     <use xlink:href="#DejaVuSans-62" x="1811.808594"/>
     <use xlink:href="#DejaVuSans-69" x="1875.285156"/>
     <use xlink:href="#DejaVuSans-6c" x="1903.068359"/>
     <use xlink:href="#DejaVuSans-69" x="1930.851562"/>
     <use xlink:href="#DejaVuSans-74" x="1958.634766"/>
     <use xlink:href="#DejaVuSans-79" x="1997.84375"/>
     <use xlink:href="#DejaVuSans-20" x="2057.023438"/>
     <use xlink:href="#DejaVuSans-50" x="2088.810547"/>
     <use xlink:href="#DejaVuSans-6f" x="2145.488281"/>
     <use xlink:href="#DejaVuSans-6c" x="2206.669922"/>
     <use xlink:href="#DejaVuSans-79" x="2234.453125"/>
     <use xlink:href="#DejaVuSans-74" x="2293.632812"/>
     <use xlink:href="#DejaVuSans-6f" x="2332.841797"/>
     <use xlink:href="#DejaVuSans-70" x="2394.023438"/>
     <use xlink:href="#DejaVuSans-65" x="2457.5"/>
    </g>
   </g>
   <g id="Poly3DCollection_2">
    <defs>
     <path id="mc109ca0c0d" d="M 323.533676 -188.446947 
L 193.27983 -140.771082 
L 243.880084 -125.547365 
z
" style="stroke: #0343df"/>
    </defs>
    <g clip-path="url(#pb69bf3a6ba)">
     <use xlink:href="#mc109ca0c0d" x="0" y="345.6" style="fill: #0343df; fill-opacity: 0.4; stroke: #0343df"/>
    </g>
   </g>
   <g id="Poly3DCollection_3">
    <defs>
     <path id="ma2165c4827" d="M 243.390919 -247.642166 
L 193.27983 -140.771082 
L 271.482308 -202.784364 
z
" style="stroke: #0343df"/>
    </defs>
    <g clip-path="url(#pb69bf3a6ba)">
     <use xlink:href="#ma2165c4827" x="0" y="345.6" style="fill: #0343df; fill-opacity: 0.4; stroke: #0343df"/>
    </g>
   </g>
   <g id="Poly3DCollection_4">
    <defs>
     <path id="m688801eb43" d="M 243.390919 -247.642166 
L 193.27983 -140.771082 
L 163.521912 -183.985772 
z
" style="stroke: #0343df"/>
    </defs>
    <g clip-path="url(#pb69bf3a6ba)">
     <use xlink:href="#m688801eb43" x="0" y="345.6" style="fill: #0343df; fill-opacity: 0.4; stroke: #0343df"/>
    </g>
   </g>
   <g id="Path3DCollection_1">
    <defs>
     <path id="m814c3eae50" d="M 0 2.236068 
C 0.593012 2.236068 1.161816 2.000462 1.581139 1.581139 
C 2.000462 1.161816 2.236068 0.593012 2.236068 0 
C 2.236068 -0.593012 2.000462 -1.161816 1.581139 -1.581139 
C 1.161816 -2.000462 0.593012 -2.236068 0 -2.236068 
C -0.593012 -2.236068 -1.161816 -2.000462 -1.581139 -1.581139 
C -2.000462 -1.161816 -2.236068 -0.593012 -2.236068 0 
C -2.236068 0.593012 -2.000462 1.161816 -1.581139 1.581139 
C -1.161816 2.000462 -0.593012 2.236068 0 2.236068 
z
" style="stroke: #0cff0c"/>
    </defs>
    <g clip-path="url(#pb69bf3a6ba)">
     <use xlink:href="#m814c3eae50" x="226.10315" y="144.364041" style="fill: #0cff0c; stroke: #0cff0c"/>
    </g>
   </g>
   <g id="Path3DCollection_2">
    <g clip-path="url(#pb69bf3a6ba)">
     <use xlink:href="#m814c3eae50" x="162.393433" y="176.086733" style="fill: #0cff0c; stroke: #0cff0c"/>
    </g>
   </g>
   <g id="Path3DCollection_3">
    <g clip-path="url(#pb69bf3a6ba)">
     <use xlink:href="#m814c3eae50" x="309.216966" y="149.898044" style="fill: #0cff0c; stroke: #0cff0c"/>
    </g>
   </g>
   <g id="Poly3DCollection_5">
    <defs>
     <path id="mcf1acce88b" d="M 296.221283 -233.677729 
L 323.533676 -188.446947 
L 271.482308 -202.784364 
z
" style="stroke: #0343df"/>
    </defs>
    <g clip-path="url(#pb69bf3a6ba)">
     <use xlink:href="#mcf1acce88b" x="0" y="345.6" style="fill: #0343df; fill-opacity: 0.4; stroke: #0343df"/>
    </g>
   </g>
   <g id="Poly3DCollection_6">
    <defs>
     <path id="m66c34e7307" d="M 296.221283 -233.677729 
L 243.390919 -247.642166 
L 271.482308 -202.784364 
z
" style="stroke: #0343df"/>
    </defs>
    <g clip-path="url(#pb69bf3a6ba)">
     <use xlink:href="#m66c34e7307" x="0" y="345.6" style="fill: #0343df; fill-opacity: 0.4; stroke: #0343df"/>
    </g>
   </g>
   <g id="Path3DCollection_4">
    <g clip-path="url(#pb69bf3a6ba)">
     <use xlink:href="#m814c3eae50" x="175.457125" y="183.602514" style="fill: #0cff0c; stroke: #0cff0c"/>
    </g>
   </g>
   <g id="Poly3DCollection_7">
    <defs>
     <path id="m6998dc5f51" d="M 225.515493 -88.276508 
L 323.533676 -188.446947 
L 243.880084 -125.547365 
z
" style="stroke: #0343df"/>
    </defs>
    <g clip-path="url(#pb69bf3a6ba)">
     <use xlink:href="#m6998dc5f51" x="0" y="345.6" style="fill: #0343df; fill-opacity: 0.4; stroke: #0343df"/>
    </g>
   </g>
   <g id="Poly3DCollection_8">
    <defs>
     <path id="m4451e1a4f5" d="M 225.515493 -88.276508 
L 193.27983 -140.771082 
L 243.880084 -125.547365 
z
" style="stroke: #0343df"/>
    </defs>
    <g clip-path="url(#pb69bf3a6ba)">
     <use xlink:href="#m4451e1a4f5" x="0" y="345.6" style="fill: #0343df; fill-opacity: 0.4; stroke: #0343df"/>
    </g>
   </g>
   <g id="Poly3DCollection_9">
    <defs>
     <path id="mfe743db4a7" d="M 225.515493 -88.276508 
L 193.27983 -140.771082 
L 173.355505 -104.64189 
z
" style="stroke: #0343df"/>
    </defs>
    <g clip-path="url(#pb69bf3a6ba)">
     <use xlink:href="#mfe743db4a7" x="0" y="345.6" style="fill: #0343df; fill-opacity: 0.4; stroke: #0343df"/>
    </g>
   </g>
   <g id="Poly3DCollection_10">
    <defs>
     <path id="m2043f67110" d="M 225.515493 -88.276508 
L 323.533676 -188.446947 
L 308.048677 -153.337173 
z
" style="stroke: #0343df"/>
    </defs>
    <g clip-path="url(#pb69bf3a6ba)">
     <use xlink:href="#m2043f67110" x="0" y="345.6" style="fill: #0343df; fill-opacity: 0.4; stroke: #0343df"/>
    </g>
   </g>
   <g id="Poly3DCollection_11">
    <defs>
     <path id="m829b7f99a2" d="M 296.221283 -233.677729 
L 323.533676 -188.446947 
L 308.048677 -153.337173 
z
" style="stroke: #0343df"/>
    </defs>
    <g clip-path="url(#pb69bf3a6ba)">
     <use xlink:href="#m829b7f99a2" x="0" y="345.6" style="fill: #0343df; fill-opacity: 0.4; stroke: #0343df"/>
    </g>
   </g>
   <g id="Poly3DCollection_12">
    <defs>
     <path id="m45d61ff223" d="M 142.008609 -148.609578 
L 193.27983 -140.771082 
L 173.355505 -104.64189 
z
" style="stroke: #0343df"/>
    </defs>
    <g clip-path="url(#pb69bf3a6ba)">
     <use xlink:href="#m45d61ff223" x="0" y="345.6" style="fill: #0343df; fill-opacity: 0.4; stroke: #0343df"/>
    </g>
   </g>
   <g id="Poly3DCollection_13">
    <defs>
     <path id="m28df3e703a" d="M 142.008609 -148.609578 
L 193.27983 -140.771082 
L 163.521912 -183.985772 
z
" style="stroke: #0343df"/>
    </defs>
    <g clip-path="url(#pb69bf3a6ba)">
     <use xlink:href="#m28df3e703a" x="0" y="345.6" style="fill: #0343df; fill-opacity: 0.4; stroke: #0343df"/>
    </g>
   </g>
   <g id="Poly3DCollection_14">
    <defs>
     <path id="m32995edf10" d="M 142.008609 -148.609578 
L 225.515493 -88.276508 
L 173.355505 -104.64189 
z
" style="stroke: #0343df"/>
    </defs>
    <g clip-path="url(#pb69bf3a6ba)">
     <use xlink:href="#m32995edf10" x="0" y="345.6" style="fill: #0343df; fill-opacity: 0.4; stroke: #0343df"/>
    </g>
   </g>
   <g id="Poly3DCollection_15">
    <defs>
     <path id="m1b1fa0bcc6" d="M 243.390919 -247.642166 
L 142.008609 -148.609578 
L 163.521912 -183.985772 
z
" style="stroke: #0343df"/>
    </defs>
    <g clip-path="url(#pb69bf3a6ba)">
     <use xlink:href="#m1b1fa0bcc6" x="0" y="345.6" style="fill: #0343df; fill-opacity: 0.4; stroke: #0343df"/>
    </g>
   </g>
   <g id="Poly3DCollection_16">
    <defs>
     <path id="mfecf481809" d="M 243.390919 -247.642166 
L 142.008609 -148.609578 
L 224.772168 -214.481916 
z
" style="stroke: #0343df"/>
    </defs>
    <g clip-path="url(#pb69bf3a6ba)">
     <use xlink:href="#mfecf481809" x="0" y="345.6" style="fill: #0343df; fill-opacity: 0.4; stroke: #0343df"/>
    </g>
   </g>
   <g id="Poly3DCollection_17">
    <defs>
     <path id="m68982a046c" d="M 296.221283 -233.677729 
L 243.390919 -247.642166 
L 224.772168 -214.481916 
z
" style="stroke: #0343df"/>
    </defs>
    <g clip-path="url(#pb69bf3a6ba)">
     <use xlink:href="#m68982a046c" x="0" y="345.6" style="fill: #0343df; fill-opacity: 0.4; stroke: #0343df"/>
    </g>
   </g>
   <g id="Poly3DCollection_18">
    <defs>
     <path id="m2442e263eb" d="M 142.008609 -148.609578 
L 225.515493 -88.276508 
L 194.92268 -132.56567 
z
" style="stroke: #0343df"/>
    </defs>
    <g clip-path="url(#pb69bf3a6ba)">
     <use xlink:href="#m2442e263eb" x="0" y="345.6" style="fill: #0343df; fill-opacity: 0.4; stroke: #0343df"/>
    </g>
   </g>
   <g id="Path3DCollection_5">
    <defs>
     <path id="C0_0_3783c88ec8" d="M 0 2.236068 
C 0.593012 2.236068 1.161816 2.000462 1.581139 1.581139 
C 2.000462 1.161816 2.236068 0.593012 2.236068 -0 
C 2.236068 -0.593012 2.000462 -1.161816 1.581139 -1.581139 
C 1.161816 -2.000462 0.593012 -2.236068 0 -2.236068 
C -0.593012 -2.236068 -1.161816 -2.000462 -1.581139 -1.581139 
C -2.000462 -1.161816 -2.236068 -0.593012 -2.236068 0 
C -2.236068 0.593012 -2.000462 1.161816 -1.581139 1.581139 
C -1.161816 2.000462 -0.593012 2.236068 0 2.236068 
z
"/>
    </defs>
    <g clip-path="url(#pb69bf3a6ba)">
     <use xlink:href="#C0_0_3783c88ec8" x="193.27983" y="204.828918" style="fill: #0343df; fill-opacity: 0.4; stroke: #0343df; stroke-opacity: 0.4"/>
    </g>
    <g clip-path="url(#pb69bf3a6ba)">
     <use xlink:href="#C0_0_3783c88ec8" x="271.482308" y="142.815636" style="fill: #0343df; fill-opacity: 0.4; stroke: #0343df; stroke-opacity: 0.4"/>
    </g>
    <g clip-path="url(#pb69bf3a6ba)">
     <use xlink:href="#C0_0_3783c88ec8" x="243.880084" y="220.052635" style="fill: #0343df; fill-opacity: 0.4; stroke: #0343df; stroke-opacity: 0.4"/>
    </g>
    <g clip-path="url(#pb69bf3a6ba)">
     <use xlink:href="#C0_0_3783c88ec8" x="323.533676" y="157.153053" style="fill: #0343df; fill-opacity: 0.4; stroke: #0343df; stroke-opacity: 0.4"/>
    </g>
    <g clip-path="url(#pb69bf3a6ba)">
     <use xlink:href="#C0_0_3783c88ec8" x="163.521912" y="161.614228" style="fill: #0343df; fill-opacity: 0.4; stroke: #0343df; stroke-opacity: 0.4"/>
    </g>
    <g clip-path="url(#pb69bf3a6ba)">
     <use xlink:href="#C0_0_3783c88ec8" x="243.390919" y="97.957834" style="fill: #0343df; fill-opacity: 0.4; stroke: #0343df; stroke-opacity: 0.4"/>
    </g>
    <g clip-path="url(#pb69bf3a6ba)">
     <use xlink:href="#C0_0_3783c88ec8" x="173.355505" y="240.95811" style="fill: #0343df; fill-opacity: 0.4; stroke: #0343df; stroke-opacity: 0.4"/>
    </g>
    <g clip-path="url(#pb69bf3a6ba)">
     <use xlink:href="#C0_0_3783c88ec8" x="214.837175" y="176.513397" style="fill: #0343df; fill-opacity: 0.4; stroke: #0343df; stroke-opacity: 0.4"/>
    </g>
    <g clip-path="url(#pb69bf3a6ba)">
     <use xlink:href="#C0_0_3783c88ec8" x="254.331241" y="176.844829" style="fill: #0343df; fill-opacity: 0.4; stroke: #0343df; stroke-opacity: 0.4"/>
    </g>
    <g clip-path="url(#pb69bf3a6ba)">
     <use xlink:href="#C0_0_3783c88ec8" x="296.221283" y="111.922271" style="fill: #0343df; fill-opacity: 0.4; stroke: #0343df; stroke-opacity: 0.4"/>
    </g>
    <g clip-path="url(#pb69bf3a6ba)">
     <use xlink:href="#C0_0_3783c88ec8" x="225.515493" y="257.323492" style="fill: #0343df; fill-opacity: 0.4; stroke: #0343df; stroke-opacity: 0.4"/>
    </g>
    <g clip-path="url(#pb69bf3a6ba)">
     <use xlink:href="#C0_0_3783c88ec8" x="308.048677" y="192.262827" style="fill: #0343df; fill-opacity: 0.4; stroke: #0343df; stroke-opacity: 0.4"/>
    </g>
    <g clip-path="url(#pb69bf3a6ba)">
     <use xlink:href="#C0_0_3783c88ec8" x="142.008609" y="196.990422" style="fill: #0343df; fill-opacity: 0.4; stroke: #0343df; stroke-opacity: 0.4"/>
    </g>
    <g clip-path="url(#pb69bf3a6ba)">
     <use xlink:href="#C0_0_3783c88ec8" x="224.772168" y="131.118084" style="fill: #0343df; fill-opacity: 0.4; stroke: #0343df; stroke-opacity: 0.4"/>
    </g>
    <g clip-path="url(#pb69bf3a6ba)">
     <use xlink:href="#C0_0_3783c88ec8" x="194.92268" y="213.03433" style="fill: #0343df; fill-opacity: 0.4; stroke: #0343df; stroke-opacity: 0.4"/>
    </g>
    <g clip-path="url(#pb69bf3a6ba)">
     <use xlink:href="#C0_0_3783c88ec8" x="279.314905" y="146.160946" style="fill: #0343df; fill-opacity: 0.4; stroke: #0343df; stroke-opacity: 0.4"/>
    </g>
   </g>
   <g id="Poly3DCollection_19">
    <defs>
     <path id="mc6b16425b5" d="M 279.314905 -199.439054 
L 225.515493 -88.276508 
L 308.048677 -153.337173 
z
" style="stroke: #0343df"/>
    </defs>
    <g clip-path="url(#pb69bf3a6ba)">
     <use xlink:href="#mc6b16425b5" x="0" y="345.6" style="fill: #0343df; fill-opacity: 0.4; stroke: #0343df"/>
    </g>
   </g>
   <g id="Poly3DCollection_20">
    <defs>
     <path id="mcbf695722d" d="M 279.314905 -199.439054 
L 225.515493 -88.276508 
L 194.92268 -132.56567 
z
" style="stroke: #0343df"/>
    </defs>
    <g clip-path="url(#pb69bf3a6ba)">
     <use xlink:href="#mcbf695722d" x="0" y="345.6" style="fill: #0343df; fill-opacity: 0.4; stroke: #0343df"/>
    </g>
   </g>
   <g id="Poly3DCollection_21">
    <defs>
     <path id="m710e31065c" d="M 142.008609 -148.609578 
L 279.314905 -199.439054 
L 194.92268 -132.56567 
z
" style="stroke: #0343df"/>
    </defs>
    <g clip-path="url(#pb69bf3a6ba)">
     <use xlink:href="#m710e31065c" x="0" y="345.6" style="fill: #0343df; fill-opacity: 0.4; stroke: #0343df"/>
    </g>
   </g>
   <g id="Poly3DCollection_22">
    <defs>
     <path id="m8694db5ac6" d="M 142.008609 -148.609578 
L 279.314905 -199.439054 
L 224.772168 -214.481916 
z
" style="stroke: #0343df"/>
    </defs>
    <g clip-path="url(#pb69bf3a6ba)">
     <use xlink:href="#m8694db5ac6" x="0" y="345.6" style="fill: #0343df; fill-opacity: 0.4; stroke: #0343df"/>
    </g>
   </g>
   <g id="Poly3DCollection_23">
    <defs>
     <path id="m6ba8e3fa8f" d="M 296.221283 -233.677729 
L 279.314905 -199.439054 
L 308.048677 -153.337173 
z
" style="stroke: #0343df"/>
    </defs>
    <g clip-path="url(#pb69bf3a6ba)">
     <use xlink:href="#m6ba8e3fa8f" x="0" y="345.6" style="fill: #0343df; fill-opacity: 0.4; stroke: #0343df"/>
    </g>
   </g>
   <g id="Poly3DCollection_24">
    <defs>
     <path id="m9714a02eb7" d="M 296.221283 -233.677729 
L 279.314905 -199.439054 
L 224.772168 -214.481916 
z
" style="stroke: #0343df"/>
    </defs>
    <g clip-path="url(#pb69bf3a6ba)">
     <use xlink:href="#m9714a02eb7" x="0" y="345.6" style="fill: #0343df; fill-opacity: 0.4; stroke: #0343df"/>
    </g>
   </g>
  </g>
 </g>
 <defs>
  <clipPath id="pb69bf3a6ba">
   <rect x="76.44" y="26.88" width="307.92" height="307.92"/>
  </clipPath>
 </defs>
</svg>
