<?xml version="1.0" encoding="utf-8" standalone="no"?>
<!DOCTYPE svg PUBLIC "-//W3C//DTD SVG 1.1//EN"
  "http://www.w3.org/Graphics/SVG/1.1/DTD/svg11.dtd">
<svg xmlns:xlink="http://www.w3.org/1999/xlink" width="460.8pt" height="345.6pt" viewBox="0 0 460.8 345.6" xmlns="http://www.w3.org/2000/svg" version="1.1">
 <metadata>
  <rdf:RDF xmlns:dc="http://purl.org/dc/elements/1.1/" xmlns:cc="http://creativecommons.org/ns#" xmlns:rdf="http://www.w3.org/1999/02/22-rdf-syntax-ns#">
   <cc:Work>
    <dc:type rdf:resource="http://purl.org/dc/dcmitype/StillImage"/>
    <dc:date>2025-11-03T13:51:52.874850</dc:date>
    <dc:format>image/svg+xml</dc:format>
    <dc:creator>
     <cc:Agent>
      <dc:title>Matplotlib v3.8.1, https://matplotlib.org/</dc:title>
     </cc:Agent>
    </dc:creator>
   </cc:Work>
  </rdf:RDF>
 </metadata>
 <defs>
  <style type="text/css">*{stroke-linejoin: round; stroke-linecap: butt}</style>
 </defs>
 <g id="figure_1">
  <g id="patch_1">
   <path d="M 0 345.6 
L 460.8 345.6 
L 460.8 0 
L 0 0 
z
" style="fill: #ffffff"/>
  </g>
  <g id="patch_2">
   <path d="M 76.44 334.8 
L 384.36 334.8 
L 384.36 26.88 
L 76.44 26.88 
z
" style="fill: #ffffff"/>
  </g>
  <g id="pane3d_1">
   <g id="patch_3">
    <path d="M 99.690083 258.876796 
L 201.375324 173.642211 
L 199.961801 50.718703 
L 93.410398 128.475064 
" style="fill: #f2f2f2; opacity: 0.5; stroke: #f2f2f2; stroke-linejoin: miter"/>
   </g>
  </g>
  <g id="pane3d_2">
   <g id="patch_4">
    <path d="M 201.375324 173.642211 
L 364.543853 221.068861 
L 370.366762 93.911394 
L 199.961801 50.718703 
" style="fill: #e6e6e6; opacity: 0.5; stroke: #e6e6e6; stroke-linejoin: miter"/>
   </g>
  </g>
  <g id="pane3d_3">
   <g id="patch_5">
    <path d="M 99.690083 258.876796 
L 272.656694 315.367691 
L 364.543853 221.068861 
L 201.375324 173.642211 
" style="fill: #ececec; opacity: 0.5; stroke: #ececec; stroke-linejoin: miter"/>
   </g>
  </g>
  <g id="grid3d_1">
   <g id="Line3DCollection_1">
    <path d="M 116.228686 264.278304 
L 217.039467 178.19516 
L 216.289449 54.857286 
" style="fill: none; stroke: #b0b0b0; stroke-width: 0.8"/>
    <path d="M 147.511827 274.495377 
L 246.632346 186.796641 
L 247.153878 62.680519 
" style="fill: none; stroke: #b0b0b0; stroke-width: 0.8"/>
    <path d="M 179.410606 284.913519 
L 276.758927 195.553249 
L 278.599218 70.650996 
" style="fill: none; stroke: #b0b0b0; stroke-width: 0.8"/>
    <path d="M 211.943379 295.538722 
L 307.433779 204.469217 
L 310.642023 78.772913 
" style="fill: none; stroke: #b0b0b0; stroke-width: 0.8"/>
    <path d="M 245.129235 306.377222 
L 338.672007 213.548937 
L 343.299485 87.050628 
" style="fill: none; stroke: #b0b0b0; stroke-width: 0.8"/>
   </g>
  </g>
  <g id="grid3d_2">
   <g id="Line3DCollection_2">
    <path d="M 101.133247 122.839281 
L 107.034317 252.720714 
L 279.320495 308.528991 
" style="fill: none; stroke: #b0b0b0; stroke-width: 0.8"/>
    <path d="M 113.470742 113.835939 
L 118.775341 242.879155 
L 289.964891 297.605222 
" style="fill: none; stroke: #b0b0b0; stroke-width: 0.8"/>
    <path d="M 125.565741 105.00956 
L 130.295607 233.22264 
L 300.39859 286.897681 
" style="fill: none; stroke: #b0b0b0; stroke-width: 0.8"/>
    <path d="M 137.425323 96.354977 
L 141.601282 223.745999 
L 310.627786 276.400009 
" style="fill: none; stroke: #b0b0b0; stroke-width: 0.8"/>
    <path d="M 149.056295 87.867224 
L 152.698307 214.444252 
L 320.658433 266.106098 
" style="fill: none; stroke: #b0b0b0; stroke-width: 0.8"/>
    <path d="M 160.465203 79.541522 
L 163.592405 205.312603 
L 330.496257 256.01007 
" style="fill: none; stroke: #b0b0b0; stroke-width: 0.8"/>
    <path d="M 171.658348 71.373274 
L 174.289092 196.346428 
L 340.146764 246.106275 
" style="fill: none; stroke: #b0b0b0; stroke-width: 0.8"/>
    <path d="M 182.641793 63.358057 
L 184.793685 187.54127 
L 349.615255 236.389275 
" style="fill: none; stroke: #b0b0b0; stroke-width: 0.8"/>
    <path d="M 193.421376 55.491608 
L 195.111314 178.892828 
L 358.90683 226.853833 
" style="fill: none; stroke: #b0b0b0; stroke-width: 0.8"/>
   </g>
  </g>
  <g id="grid3d_3">
   <g id="Line3DCollection_3">
    <path d="M 364.804246 215.382536 
L 201.311985 168.134128 
L 99.409716 253.054778 
" style="fill: none; stroke: #b0b0b0; stroke-width: 0.8"/>
    <path d="M 365.6554 196.795516 
L 201.105032 150.136989 
L 98.492976 234.018089 
" style="fill: none; stroke: #b0b0b0; stroke-width: 0.8"/>
    <path d="M 366.517751 177.963961 
L 200.895487 131.914407 
L 97.563715 214.721383 
" style="fill: none; stroke: #b0b0b0; stroke-width: 0.8"/>
    <path d="M 367.391523 158.883014 
L 200.683301 113.46212 
L 96.621674 195.159295 
" style="fill: none; stroke: #b0b0b0; stroke-width: 0.8"/>
    <path d="M 368.276944 139.547687 
L 200.468422 94.775756 
L 95.666588 175.326314 
" style="fill: none; stroke: #b0b0b0; stroke-width: 0.8"/>
    <path d="M 369.174248 119.95286 
L 200.250801 75.850834 
L 94.698184 155.216772 
" style="fill: none; stroke: #b0b0b0; stroke-width: 0.8"/>
    <path d="M 370.083676 100.093273 
L 200.030383 56.682754 
L 93.716181 134.824844 
" style="fill: none; stroke: #b0b0b0; stroke-width: 0.8"/>
   </g>
  </g>
  <g id="axis3d_1">
   <g id="line2d_1">
    <path d="M 99.690083 258.876796 
L 272.656694 315.367691 
" style="fill: none; stroke: #000000; stroke-width: 0.8; stroke-linecap: square"/>
   </g>
   <g id="xtick_1">
    <g id="line2d_2">
     <path d="M 117.106676 263.528581 
L 114.468932 265.780972 
" style="fill: none; stroke: #000000; stroke-width: 0.8; stroke-linecap: square"/>
    </g>
    <g id="text_1">
     <!-- −20 -->
     <g transform="translate(98.156312 287.615703) scale(0.1 -0.1)">
      <defs>
       <path id="DejaVuSans-2212" d="M 678 2272 
L 4684 2272 
L 4684 1741 
L 678 1741 
L 678 2272 
z
" transform="scale(0.015625)"/>
       <path id="DejaVuSans-32" d="M 1228 531 
L 3431 531 
L 3431 0 
L 469 0 
L 469 531 
Q 828 903 1448 1529 
Q 2069 2156 2228 2338 
Q 2531 2678 2651 2914 
Q 2772 3150 2772 3378 
Q 2772 3750 2511 3984 
Q 2250 4219 1831 4219 
Q 1534 4219 1204 4116 
Q 875 4013 500 3803 
L 500 4441 
Q 881 4594 1212 4672 
Q 1544 4750 1819 4750 
Q 2544 4750 2975 4387 
Q 3406 4025 3406 3419 
Q 3406 3131 3298 2873 
Q 3191 2616 2906 2266 
Q 2828 2175 2409 1742 
Q 1991 1309 1228 531 
z
" transform="scale(0.015625)"/>
       <path id="DejaVuSans-30" d="M 2034 4250 
Q 1547 4250 1301 3770 
Q 1056 3291 1056 2328 
Q 1056 1369 1301 889 
Q 1547 409 2034 409 
Q 2525 409 2770 889 
Q 3016 1369 3016 2328 
Q 3016 3291 2770 3770 
Q 2525 4250 2034 4250 
z
M 2034 4750 
Q 2819 4750 3233 4129 
Q 3647 3509 3647 2328 
Q 3647 1150 3233 529 
Q 2819 -91 2034 -91 
Q 1250 -91 836 529 
Q 422 1150 422 2328 
Q 422 3509 836 4129 
Q 1250 4750 2034 4750 
z
" transform="scale(0.015625)"/>
      </defs>
      <use xlink:href="#DejaVuSans-2212"/>
      <use xlink:href="#DejaVuSans-32" x="83.789062"/>
      <use xlink:href="#DejaVuSans-30" x="147.412109"/>
     </g>
    </g>
   </g>
   <g id="xtick_2">
    <g id="line2d_3">
     <path d="M 148.37578 273.730979 
L 145.78017 276.027493 
" style="fill: none; stroke: #000000; stroke-width: 0.8; stroke-linecap: square"/>
    </g>
    <g id="text_2">
     <!-- −10 -->
     <g transform="translate(129.467562 298.019823) scale(0.1 -0.1)">
      <defs>
       <path id="DejaVuSans-31" d="M 794 531 
L 1825 531 
L 1825 4091 
L 703 3866 
L 703 4441 
L 1819 4666 
L 2450 4666 
L 2450 531 
L 3481 531 
L 3481 0 
L 794 0 
L 794 531 
z
" transform="scale(0.015625)"/>
      </defs>
      <use xlink:href="#DejaVuSans-2212"/>
      <use xlink:href="#DejaVuSans-31" x="83.789062"/>
      <use xlink:href="#DejaVuSans-30" x="147.412109"/>
     </g>
    </g>
   </g>
   <g id="xtick_3">
    <g id="line2d_4">
     <path d="M 180.259798 284.134008 
L 177.7085 286.475956 
" style="fill: none; stroke: #000000; stroke-width: 0.8; stroke-linecap: square"/>
    </g>
    <g id="text_3">
     <!-- 0 -->
     <g transform="translate(168.76812 308.629364) scale(0.1 -0.1)">
      <use xlink:href="#DejaVuSans-30"/>
     </g>
    </g>
   </g>
   <g id="xtick_4">
    <g id="line2d_5">
     <path d="M 212.777049 294.743648 
L 210.272346 297.132391 
" style="fill: none; stroke: #000000; stroke-width: 0.8; stroke-linecap: square"/>
    </g>
    <g id="text_4">
     <!-- 10 -->
     <g transform="translate(198.153039 319.45047) scale(0.1 -0.1)">
      <use xlink:href="#DejaVuSans-31"/>
      <use xlink:href="#DejaVuSans-30" x="63.623047"/>
     </g>
    </g>
   </g>
   <g id="xtick_5">
    <g id="line2d_6">
     <path d="M 245.946587 305.566113 
L 243.490875 308.003068 
" style="fill: none; stroke: #000000; stroke-width: 0.8; stroke-linecap: square"/>
    </g>
    <g id="text_5">
     <!-- 20 -->
     <g transform="translate(231.37515 330.489533) scale(0.1 -0.1)">
      <use xlink:href="#DejaVuSans-32"/>
      <use xlink:href="#DejaVuSans-30" x="63.623047"/>
     </g>
    </g>
   </g>
   <g id="text_6">
    <!-- τ₁ (in.lbs) -->
    <g transform="translate(144.120388 316.837648) rotate(-341.912962) scale(0.1 -0.1)">
     <defs>
      <path id="DejaVuSans-3c4" d="M 2319 638 
Q 2431 488 2769 488 
L 3047 488 
L 3047 0 
L 2700 0 
Q 2138 0 1881 300 
Q 1625 606 1625 1269 
L 1625 2925 
L 313 2925 
L 313 3500 
L 3541 3500 
L 3541 2925 
L 2213 2925 
L 2213 1234 
Q 2213 781 2319 638 
z
" transform="scale(0.015625)"/>
      <path id="DejaVuSans-2081" d="M 488 319 
L 1125 319 
L 1125 2229 
L 428 2101 
L 428 2463 
L 1147 2585 
L 1575 2585 
L 1575 319 
L 2216 319 
L 2216 -24 
L 488 -24 
L 488 319 
z
" transform="scale(0.015625)"/>
      <path id="DejaVuSans-20" transform="scale(0.015625)"/>
      <path id="DejaVuSans-28" d="M 1984 4856 
Q 1566 4138 1362 3434 
Q 1159 2731 1159 2009 
Q 1159 1288 1364 580 
Q 1569 -128 1984 -844 
L 1484 -844 
Q 1016 -109 783 600 
Q 550 1309 550 2009 
Q 550 2706 781 3412 
Q 1013 4119 1484 4856 
L 1984 4856 
z
" transform="scale(0.015625)"/>
      <path id="DejaVuSans-69" d="M 603 3500 
L 1178 3500 
L 1178 0 
L 603 0 
L 603 3500 
z
M 603 4863 
L 1178 4863 
L 1178 4134 
L 603 4134 
L 603 4863 
z
" transform="scale(0.015625)"/>
      <path id="DejaVuSans-6e" d="M 3513 2113 
L 3513 0 
L 2938 0 
L 2938 2094 
Q 2938 2591 2744 2837 
Q 2550 3084 2163 3084 
Q 1697 3084 1428 2787 
Q 1159 2491 1159 1978 
L 1159 0 
L 581 0 
L 581 3500 
L 1159 3500 
L 1159 2956 
Q 1366 3272 1645 3428 
Q 1925 3584 2291 3584 
Q 2894 3584 3203 3211 
Q 3513 2838 3513 2113 
z
" transform="scale(0.015625)"/>
      <path id="DejaVuSans-2e" d="M 684 794 
L 1344 794 
L 1344 0 
L 684 0 
L 684 794 
z
" transform="scale(0.015625)"/>
      <path id="DejaVuSans-6c" d="M 603 4863 
L 1178 4863 
L 1178 0 
L 603 0 
L 603 4863 
z
" transform="scale(0.015625)"/>
      <path id="DejaVuSans-62" d="M 3116 1747 
Q 3116 2381 2855 2742 
Q 2594 3103 2138 3103 
Q 1681 3103 1420 2742 
Q 1159 2381 1159 1747 
Q 1159 1113 1420 752 
Q 1681 391 2138 391 
Q 2594 391 2855 752 
Q 3116 1113 3116 1747 
z
M 1159 2969 
Q 1341 3281 1617 3432 
Q 1894 3584 2278 3584 
Q 2916 3584 3314 3078 
Q 3713 2572 3713 1747 
Q 3713 922 3314 415 
Q 2916 -91 2278 -91 
Q 1894 -91 1617 61 
Q 1341 213 1159 525 
L 1159 0 
L 581 0 
L 581 4863 
L 1159 4863 
L 1159 2969 
z
" transform="scale(0.015625)"/>
      <path id="DejaVuSans-73" d="M 2834 3397 
L 2834 2853 
Q 2591 2978 2328 3040 
Q 2066 3103 1784 3103 
Q 1356 3103 1142 2972 
Q 928 2841 928 2578 
Q 928 2378 1081 2264 
Q 1234 2150 1697 2047 
L 1894 2003 
Q 2506 1872 2764 1633 
Q 3022 1394 3022 966 
Q 3022 478 2636 193 
Q 2250 -91 1575 -91 
Q 1294 -91 989 -36 
Q 684 19 347 128 
L 347 722 
Q 666 556 975 473 
Q 1284 391 1588 391 
Q 1994 391 2212 530 
Q 2431 669 2431 922 
Q 2431 1156 2273 1281 
Q 2116 1406 1581 1522 
L 1381 1569 
Q 847 1681 609 1914 
Q 372 2147 372 2553 
Q 372 3047 722 3315 
Q 1072 3584 1716 3584 
Q 2034 3584 2315 3537 
Q 2597 3491 2834 3397 
z
" transform="scale(0.015625)"/>
      <path id="DejaVuSans-29" d="M 513 4856 
L 1013 4856 
Q 1481 4119 1714 3412 
Q 1947 2706 1947 2009 
Q 1947 1309 1714 600 
Q 1481 -109 1013 -844 
L 513 -844 
Q 928 -128 1133 580 
Q 1338 1288 1338 2009 
Q 1338 2731 1133 3434 
Q 928 4138 513 4856 
z
" transform="scale(0.015625)"/>
     </defs>
     <use xlink:href="#DejaVuSans-3c4"/>
     <use xlink:href="#DejaVuSans-2081" x="60.205078"/>
     <use xlink:href="#DejaVuSans-20" x="100.292969"/>
     <use xlink:href="#DejaVuSans-28" x="132.080078"/>
     <use xlink:href="#DejaVuSans-69" x="171.09375"/>
     <use xlink:href="#DejaVuSans-6e" x="198.876953"/>
     <use xlink:href="#DejaVuSans-2e" x="262.255859"/>
     <use xlink:href="#DejaVuSans-6c" x="294.042969"/>
     <use xlink:href="#DejaVuSans-62" x="321.826172"/>
     <use xlink:href="#DejaVuSans-73" x="385.302734"/>
     <use xlink:href="#DejaVuSans-29" x="437.402344"/>
    </g>
   </g>
  </g>
  <g id="axis3d_2">
   <g id="line2d_7">
    <path d="M 364.543853 221.068861 
L 272.656694 315.367691 
" style="fill: none; stroke: #000000; stroke-width: 0.8; stroke-linecap: square"/>
   </g>
   <g id="xtick_6">
    <g id="line2d_8">
     <path d="M 277.868655 308.0587 
L 282.227928 309.470789 
" style="fill: none; stroke: #000000; stroke-width: 0.8; stroke-linecap: square"/>
    </g>
    <g id="text_7">
     <!-- −20 -->
     <g transform="translate(281.644196 329.545611) scale(0.1 -0.1)">
      <use xlink:href="#DejaVuSans-2212"/>
      <use xlink:href="#DejaVuSans-32" x="83.789062"/>
      <use xlink:href="#DejaVuSans-30" x="147.412109"/>
     </g>
    </g>
   </g>
   <g id="xtick_7">
    <g id="line2d_9">
     <path d="M 288.523023 297.144284 
L 292.852318 298.528278 
" style="fill: none; stroke: #000000; stroke-width: 0.8; stroke-linecap: square"/>
    </g>
    <g id="text_8">
     <!-- −15 -->
     <g transform="translate(292.165267 318.48205) scale(0.1 -0.1)">
      <defs>
       <path id="DejaVuSans-35" d="M 691 4666 
L 3169 4666 
L 3169 4134 
L 1269 4134 
L 1269 2991 
Q 1406 3038 1543 3061 
Q 1681 3084 1819 3084 
Q 2600 3084 3056 2656 
Q 3513 2228 3513 1497 
Q 3513 744 3044 326 
Q 2575 -91 1722 -91 
Q 1428 -91 1123 -41 
Q 819 9 494 109 
L 494 744 
Q 775 591 1075 516 
Q 1375 441 1709 441 
Q 2250 441 2565 725 
Q 2881 1009 2881 1497 
Q 2881 1984 2565 2268 
Q 2250 2553 1709 2553 
Q 1456 2553 1204 2497 
Q 953 2441 691 2322 
L 691 4666 
z
" transform="scale(0.015625)"/>
      </defs>
      <use xlink:href="#DejaVuSans-2212"/>
      <use xlink:href="#DejaVuSans-31" x="83.789062"/>
      <use xlink:href="#DejaVuSans-35" x="147.412109"/>
     </g>
    </g>
   </g>
   <g id="xtick_8">
    <g id="line2d_10">
     <path d="M 298.966584 286.44582 
L 303.266229 287.802548 
" style="fill: none; stroke: #000000; stroke-width: 0.8; stroke-linecap: square"/>
    </g>
    <g id="text_9">
     <!-- −10 -->
     <g transform="translate(302.477977 307.637596) scale(0.1 -0.1)">
      <use xlink:href="#DejaVuSans-2212"/>
      <use xlink:href="#DejaVuSans-31" x="83.789062"/>
      <use xlink:href="#DejaVuSans-30" x="147.412109"/>
     </g>
    </g>
   </g>
   <g id="xtick_9">
    <g id="line2d_11">
     <path d="M 309.205536 275.956959 
L 313.475855 277.287221 
" style="fill: none; stroke: #000000; stroke-width: 0.8; stroke-linecap: square"/>
    </g>
    <g id="text_10">
     <!-- −5 -->
     <g transform="translate(315.769705 297.005801) scale(0.1 -0.1)">
      <use xlink:href="#DejaVuSans-2212"/>
      <use xlink:href="#DejaVuSans-35" x="83.789062"/>
     </g>
    </g>
   </g>
   <g id="xtick_10">
    <g id="line2d_12">
     <path d="M 319.245831 265.671604 
L 323.487147 266.976165 
" style="fill: none; stroke: #000000; stroke-width: 0.8; stroke-linecap: square"/>
    </g>
    <g id="text_11">
     <!-- 0 -->
     <g transform="translate(329.873684 286.580472) scale(0.1 -0.1)">
      <use xlink:href="#DejaVuSans-30"/>
     </g>
    </g>
   </g>
   <g id="xtick_11">
    <g id="line2d_13">
     <path d="M 329.093196 255.583887 
L 333.305831 256.863485 
" style="fill: none; stroke: #000000; stroke-width: 0.8; stroke-linecap: square"/>
    </g>
    <g id="text_12">
     <!-- 5 -->
     <g transform="translate(339.597141 276.355653) scale(0.1 -0.1)">
      <use xlink:href="#DejaVuSans-35"/>
     </g>
    </g>
   </g>
   <g id="xtick_12">
    <g id="line2d_14">
     <path d="M 338.75314 245.688167 
L 342.93741 246.943512 
" style="fill: none; stroke: #000000; stroke-width: 0.8; stroke-linecap: square"/>
    </g>
    <g id="text_13">
     <!-- 10 -->
     <g transform="translate(345.95412 266.325613) scale(0.1 -0.1)">
      <use xlink:href="#DejaVuSans-31"/>
      <use xlink:href="#DejaVuSans-30" x="63.623047"/>
     </g>
    </g>
   </g>
   <g id="xtick_13">
    <g id="line2d_15">
     <path d="M 348.230962 235.979013 
L 352.387184 237.210788 
" style="fill: none; stroke: #000000; stroke-width: 0.8; stroke-linecap: square"/>
    </g>
    <g id="text_14">
     <!-- 15 -->
     <g transform="translate(355.312363 256.48484) scale(0.1 -0.1)">
      <use xlink:href="#DejaVuSans-31"/>
      <use xlink:href="#DejaVuSans-35" x="63.623047"/>
     </g>
    </g>
   </g>
   <g id="xtick_14">
    <g id="line2d_16">
     <path d="M 357.531765 226.451199 
L 361.660251 227.660062 
" style="fill: none; stroke: #000000; stroke-width: 0.8; stroke-linecap: square"/>
    </g>
    <g id="text_15">
     <!-- 20 -->
     <g transform="translate(364.495666 246.828026) scale(0.1 -0.1)">
      <use xlink:href="#DejaVuSans-32"/>
      <use xlink:href="#DejaVuSans-30" x="63.623047"/>
     </g>
    </g>
   </g>
   <g id="text_16">
    <!-- τ₂ (in.lbs) -->
    <g transform="translate(332.975431 313.099597) rotate(-45.742112) scale(0.1 -0.1)">
     <defs>
      <path id="DejaVuSans-2082" d="M 838 332 
L 2163 332 
L 2163 -24 
L 294 -24 
L 294 319 
Q 400 416 597 591 
Q 1672 1544 1672 1838 
Q 1672 2044 1509 2170 
Q 1347 2297 1081 2297 
Q 919 2297 728 2242 
Q 538 2188 313 2079 
L 313 2463 
Q 553 2551 761 2594 
Q 969 2638 1147 2638 
Q 1600 2638 1872 2432 
Q 2144 2226 2144 1888 
Q 2144 1454 1109 566 
Q 934 416 838 332 
z
" transform="scale(0.015625)"/>
     </defs>
     <use xlink:href="#DejaVuSans-3c4"/>
     <use xlink:href="#DejaVuSans-2082" x="60.205078"/>
     <use xlink:href="#DejaVuSans-20" x="100.292969"/>
     <use xlink:href="#DejaVuSans-28" x="132.080078"/>
     <use xlink:href="#DejaVuSans-69" x="171.09375"/>
     <use xlink:href="#DejaVuSans-6e" x="198.876953"/>
     <use xlink:href="#DejaVuSans-2e" x="262.255859"/>
     <use xlink:href="#DejaVuSans-6c" x="294.042969"/>
     <use xlink:href="#DejaVuSans-62" x="321.826172"/>
     <use xlink:href="#DejaVuSans-73" x="385.302734"/>
     <use xlink:href="#DejaVuSans-29" x="437.402344"/>
    </g>
   </g>
  </g>
  <g id="axis3d_3">
   <g id="line2d_17">
    <path d="M 364.543853 221.068861 
L 370.366762 93.911394 
" style="fill: none; stroke: #000000; stroke-width: 0.8; stroke-linecap: square"/>
   </g>
   <g id="xtick_15">
    <g id="line2d_18">
     <path d="M 363.431967 214.985955 
L 367.552074 216.176644 
" style="fill: none; stroke: #000000; stroke-width: 0.8; stroke-linecap: square"/>
    </g>
    <g id="text_17">
     <!-- −15 -->
     <g transform="translate(372.543774 220.384478) scale(0.1 -0.1)">
      <use xlink:href="#DejaVuSans-2212"/>
      <use xlink:href="#DejaVuSans-31" x="83.789062"/>
      <use xlink:href="#DejaVuSans-35" x="147.412109"/>
     </g>
    </g>
   </g>
   <g id="xtick_16">
    <g id="line2d_19">
     <path d="M 364.273816 196.403766 
L 368.42188 197.579956 
" style="fill: none; stroke: #000000; stroke-width: 0.8; stroke-linecap: square"/>
    </g>
    <g id="text_18">
     <!-- −10 -->
     <g transform="translate(373.51193 201.829126) scale(0.1 -0.1)">
      <use xlink:href="#DejaVuSans-2212"/>
      <use xlink:href="#DejaVuSans-31" x="83.789062"/>
      <use xlink:href="#DejaVuSans-30" x="147.412109"/>
     </g>
    </g>
   </g>
   <g id="xtick_17">
    <g id="line2d_20">
     <path d="M 365.126737 177.577204 
L 369.303139 178.738409 
" style="fill: none; stroke: #000000; stroke-width: 0.8; stroke-linecap: square"/>
    </g>
    <g id="text_19">
     <!-- −5 -->
     <g transform="translate(377.674039 183.030298) scale(0.1 -0.1)">
      <use xlink:href="#DejaVuSans-2212"/>
      <use xlink:href="#DejaVuSans-35" x="83.789062"/>
     </g>
    </g>
   </g>
   <g id="xtick_18">
    <g id="line2d_21">
     <path d="M 365.990948 158.501417 
L 370.196077 159.647136 
" style="fill: none; stroke: #000000; stroke-width: 0.8; stroke-linecap: square"/>
    </g>
    <g id="text_20">
     <!-- 0 -->
     <g transform="translate(382.857697 163.98317) scale(0.1 -0.1)">
      <use xlink:href="#DejaVuSans-30"/>
     </g>
    </g>
   </g>
   <g id="xtick_19">
    <g id="line2d_22">
     <path d="M 366.866676 139.171423 
L 371.10093 140.301137 
" style="fill: none; stroke: #000000; stroke-width: 0.8; stroke-linecap: square"/>
    </g>
    <g id="text_21">
     <!-- 5 -->
     <g transform="translate(383.864725 144.682792) scale(0.1 -0.1)">
      <use xlink:href="#DejaVuSans-35"/>
     </g>
    </g>
   </g>
   <g id="xtick_20">
    <g id="line2d_23">
     <path d="M 367.754153 119.582106 
L 372.017937 120.695282 
" style="fill: none; stroke: #000000; stroke-width: 0.8; stroke-linecap: square"/>
    </g>
    <g id="text_22">
     <!-- 10 -->
     <g transform="translate(381.703983 125.124077) scale(0.1 -0.1)">
      <use xlink:href="#DejaVuSans-31"/>
      <use xlink:href="#DejaVuSans-30" x="63.623047"/>
     </g>
    </g>
   </g>
   <g id="xtick_21">
    <g id="line2d_24">
     <path d="M 368.653615 99.728213 
L 372.947344 100.824299 
" style="fill: none; stroke: #000000; stroke-width: 0.8; stroke-linecap: square"/>
    </g>
    <g id="text_23">
     <!-- 15 -->
     <g transform="translate(382.738242 105.301804) scale(0.1 -0.1)">
      <use xlink:href="#DejaVuSans-31"/>
      <use xlink:href="#DejaVuSans-35" x="63.623047"/>
     </g>
    </g>
   </g>
   <g id="text_24">
    <!-- τ₃ (in.lbs) -->
    <g transform="translate(409.470566 177.390407) rotate(-87.378092) scale(0.1 -0.1)">
     <defs>
      <path id="DejaVuSans-2083" d="M 1638 1388 
Q 1925 1332 2083 1161 
Q 2241 991 2241 735 
Q 2241 347 1944 138 
Q 1647 -71 1094 -71 
Q 916 -71 720 -38 
Q 525 -6 306 57 
L 306 435 
Q 469 351 655 310 
Q 841 269 1050 269 
Q 1391 269 1578 392 
Q 1766 516 1766 735 
Q 1766 966 1592 1085 
Q 1419 1204 1081 1204 
L 813 1204 
L 813 1541 
L 1106 1541 
Q 1400 1541 1551 1639 
Q 1703 1738 1703 1926 
Q 1703 2107 1547 2202 
Q 1391 2297 1094 2297 
Q 969 2297 809 2269 
Q 650 2241 397 2169 
L 397 2529 
Q 625 2582 825 2610 
Q 1025 2638 1197 2638 
Q 1647 2638 1911 2453 
Q 2175 2269 2175 1960 
Q 2175 1744 2034 1594 
Q 1894 1444 1638 1388 
z
" transform="scale(0.015625)"/>
     </defs>
     <use xlink:href="#DejaVuSans-3c4"/>
     <use xlink:href="#DejaVuSans-2083" x="60.205078"/>
     <use xlink:href="#DejaVuSans-20" x="100.292969"/>
     <use xlink:href="#DejaVuSans-28" x="132.080078"/>
     <use xlink:href="#DejaVuSans-69" x="171.09375"/>
     <use xlink:href="#DejaVuSans-6e" x="198.876953"/>
     <use xlink:href="#DejaVuSans-2e" x="262.255859"/>
     <use xlink:href="#DejaVuSans-6c" x="294.042969"/>
     <use xlink:href="#DejaVuSans-62" x="321.826172"/>
     <use xlink:href="#DejaVuSans-73" x="385.302734"/>
     <use xlink:href="#DejaVuSans-29" x="437.402344"/>
    </g>
   </g>
  </g>
  <g id="axes_1">
   <g id="line2d_25">
    <path d="M 161.32835 155.538451 
L 301.861632 196.106915 
" clip-path="url(#p26ceb60d52)" style="fill: none; stroke: #000000; stroke-linecap: square"/>
   </g>
   <g id="line2d_26">
    <path d="M 185.008186 214.245782 
L 271.834393 139.452605 
" clip-path="url(#p26ceb60d52)" style="fill: none; stroke: #000000; stroke-linecap: square"/>
   </g>
   <g id="line2d_27">
    <path d="M 230.19538 230.433313 
L 230.022145 118.170945 
" clip-path="url(#p26ceb60d52)" style="fill: none; stroke: #000000; stroke-linecap: square"/>
   </g>
   <g id="Poly3DCollection_1">
    <defs>
     <path id="m66b9de0f26" d="M 270.369028 -131.053112 
L 208.709493 -149.35721 
L 248.192403 -208.498821 
z
" style="stroke: #0652ff"/>
    </defs>
    <g clip-path="url(#p26ceb60d52)">
     <use xlink:href="#m66b9de0f26" x="0" y="345.6" style="fill: #0652ff; fill-opacity: 0.4; stroke: #0652ff"/>
    </g>
   </g>
   <g id="text_25">
    <!-- Inherently Controllable Capability Polytope -->
    <g transform="translate(102.139688 20.88) scale(0.12 -0.12)">
     <defs>
      <path id="DejaVuSans-49" d="M 628 4666 
L 1259 4666 
L 1259 0 
L 628 0 
L 628 4666 
z
" transform="scale(0.015625)"/>
      <path id="DejaVuSans-68" d="M 3513 2113 
L 3513 0 
L 2938 0 
L 2938 2094 
Q 2938 2591 2744 2837 
Q 2550 3084 2163 3084 
Q 1697 3084 1428 2787 
Q 1159 2491 1159 1978 
L 1159 0 
L 581 0 
L 581 4863 
L 1159 4863 
L 1159 2956 
Q 1366 3272 1645 3428 
Q 1925 3584 2291 3584 
Q 2894 3584 3203 3211 
Q 3513 2838 3513 2113 
z
" transform="scale(0.015625)"/>
      <path id="DejaVuSans-65" d="M 3597 1894 
L 3597 1613 
L 953 1613 
Q 991 1019 1311 708 
Q 1631 397 2203 397 
Q 2534 397 2845 478 
Q 3156 559 3463 722 
L 3463 178 
Q 3153 47 2828 -22 
Q 2503 -91 2169 -91 
Q 1331 -91 842 396 
Q 353 884 353 1716 
Q 353 2575 817 3079 
Q 1281 3584 2069 3584 
Q 2775 3584 3186 3129 
Q 3597 2675 3597 1894 
z
M 3022 2063 
Q 3016 2534 2758 2815 
Q 2500 3097 2075 3097 
Q 1594 3097 1305 2825 
Q 1016 2553 972 2059 
L 3022 2063 
z
" transform="scale(0.015625)"/>
      <path id="DejaVuSans-72" d="M 2631 2963 
Q 2534 3019 2420 3045 
Q 2306 3072 2169 3072 
Q 1681 3072 1420 2755 
Q 1159 2438 1159 1844 
L 1159 0 
L 581 0 
L 581 3500 
L 1159 3500 
L 1159 2956 
Q 1341 3275 1631 3429 
Q 1922 3584 2338 3584 
Q 2397 3584 2469 3576 
Q 2541 3569 2628 3553 
L 2631 2963 
z
" transform="scale(0.015625)"/>
      <path id="DejaVuSans-74" d="M 1172 4494 
L 1172 3500 
L 2356 3500 
L 2356 3053 
L 1172 3053 
L 1172 1153 
Q 1172 725 1289 603 
Q 1406 481 1766 481 
L 2356 481 
L 2356 0 
L 1766 0 
Q 1100 0 847 248 
Q 594 497 594 1153 
L 594 3053 
L 172 3053 
L 172 3500 
L 594 3500 
L 594 4494 
L 1172 4494 
z
" transform="scale(0.015625)"/>
      <path id="DejaVuSans-79" d="M 2059 -325 
Q 1816 -950 1584 -1140 
Q 1353 -1331 966 -1331 
L 506 -1331 
L 506 -850 
L 844 -850 
Q 1081 -850 1212 -737 
Q 1344 -625 1503 -206 
L 1606 56 
L 191 3500 
L 800 3500 
L 1894 763 
L 2988 3500 
L 3597 3500 
L 2059 -325 
z
" transform="scale(0.015625)"/>
      <path id="DejaVuSans-43" d="M 4122 4306 
L 4122 3641 
Q 3803 3938 3442 4084 
Q 3081 4231 2675 4231 
Q 1875 4231 1450 3742 
Q 1025 3253 1025 2328 
Q 1025 1406 1450 917 
Q 1875 428 2675 428 
Q 3081 428 3442 575 
Q 3803 722 4122 1019 
L 4122 359 
Q 3791 134 3420 21 
Q 3050 -91 2638 -91 
Q 1578 -91 968 557 
Q 359 1206 359 2328 
Q 359 3453 968 4101 
Q 1578 4750 2638 4750 
Q 3056 4750 3426 4639 
Q 3797 4528 4122 4306 
z
" transform="scale(0.015625)"/>
      <path id="DejaVuSans-6f" d="M 1959 3097 
Q 1497 3097 1228 2736 
Q 959 2375 959 1747 
Q 959 1119 1226 758 
Q 1494 397 1959 397 
Q 2419 397 2687 759 
Q 2956 1122 2956 1747 
Q 2956 2369 2687 2733 
Q 2419 3097 1959 3097 
z
M 1959 3584 
Q 2709 3584 3137 3096 
Q 3566 2609 3566 1747 
Q 3566 888 3137 398 
Q 2709 -91 1959 -91 
Q 1206 -91 779 398 
Q 353 888 353 1747 
Q 353 2609 779 3096 
Q 1206 3584 1959 3584 
z
" transform="scale(0.015625)"/>
      <path id="DejaVuSans-61" d="M 2194 1759 
Q 1497 1759 1228 1600 
Q 959 1441 959 1056 
Q 959 750 1161 570 
Q 1363 391 1709 391 
Q 2188 391 2477 730 
Q 2766 1069 2766 1631 
L 2766 1759 
L 2194 1759 
z
M 3341 1997 
L 3341 0 
L 2766 0 
L 2766 531 
Q 2569 213 2275 61 
Q 1981 -91 1556 -91 
Q 1019 -91 701 211 
Q 384 513 384 1019 
Q 384 1609 779 1909 
Q 1175 2209 1959 2209 
L 2766 2209 
L 2766 2266 
Q 2766 2663 2505 2880 
Q 2244 3097 1772 3097 
Q 1472 3097 1187 3025 
Q 903 2953 641 2809 
L 641 3341 
Q 956 3463 1253 3523 
Q 1550 3584 1831 3584 
Q 2591 3584 2966 3190 
Q 3341 2797 3341 1997 
z
" transform="scale(0.015625)"/>
      <path id="DejaVuSans-70" d="M 1159 525 
L 1159 -1331 
L 581 -1331 
L 581 3500 
L 1159 3500 
L 1159 2969 
Q 1341 3281 1617 3432 
Q 1894 3584 2278 3584 
Q 2916 3584 3314 3078 
Q 3713 2572 3713 1747 
Q 3713 922 3314 415 
Q 2916 -91 2278 -91 
Q 1894 -91 1617 61 
Q 1341 213 1159 525 
z
M 3116 1747 
Q 3116 2381 2855 2742 
Q 2594 3103 2138 3103 
Q 1681 3103 1420 2742 
Q 1159 2381 1159 1747 
Q 1159 1113 1420 752 
Q 1681 391 2138 391 
Q 2594 391 2855 752 
Q 3116 1113 3116 1747 
z
" transform="scale(0.015625)"/>
      <path id="DejaVuSans-50" d="M 1259 4147 
L 1259 2394 
L 2053 2394 
Q 2494 2394 2734 2622 
Q 2975 2850 2975 3272 
Q 2975 3691 2734 3919 
Q 2494 4147 2053 4147 
L 1259 4147 
z
M 628 4666 
L 2053 4666 
Q 2838 4666 3239 4311 
Q 3641 3956 3641 3272 
Q 3641 2581 3239 2228 
Q 2838 1875 2053 1875 
L 1259 1875 
L 1259 0 
L 628 0 
L 628 4666 
z
" transform="scale(0.015625)"/>
     </defs>
     <use xlink:href="#DejaVuSans-49"/>
     <use xlink:href="#DejaVuSans-6e" x="29.492188"/>
     <use xlink:href="#DejaVuSans-68" x="92.871094"/>
     <use xlink:href="#DejaVuSans-65" x="156.25"/>
     <use xlink:href="#DejaVuSans-72" x="217.773438"/>
     <use xlink:href="#DejaVuSans-65" x="256.636719"/>
     <use xlink:href="#DejaVuSans-6e" x="318.160156"/>
     <use xlink:href="#DejaVuSans-74" x="381.539062"/>
     <use xlink:href="#DejaVuSans-6c" x="420.748047"/>
     <use xlink:href="#DejaVuSans-79" x="448.53125"/>
     <use xlink:href="#DejaVuSans-20" x="507.710938"/>
     <use xlink:href="#DejaVuSans-43" x="539.498047"/>
     <use xlink:href="#DejaVuSans-6f" x="609.322266"/>
     <use xlink:href="#DejaVuSans-6e" x="670.503906"/>
     <use xlink:href="#DejaVuSans-74" x="733.882812"/>
     <use xlink:href="#DejaVuSans-72" x="773.091797"/>
     <use xlink:href="#DejaVuSans-6f" x="811.955078"/>
     <use xlink:href="#DejaVuSans-6c" x="873.136719"/>
     <use xlink:href="#DejaVuSans-6c" x="900.919922"/>
     <use xlink:href="#DejaVuSans-61" x="928.703125"/>
     <use xlink:href="#DejaVuSans-62" x="989.982422"/>
     <use xlink:href="#DejaVuSans-6c" x="1053.458984"/>
     <use xlink:href="#DejaVuSans-65" x="1081.242188"/>
     <use xlink:href="#DejaVuSans-20" x="1142.765625"/>
     <use xlink:href="#DejaVuSans-43" x="1174.552734"/>
     <use xlink:href="#DejaVuSans-61" x="1244.376953"/>
     <use xlink:href="#DejaVuSans-70" x="1305.65625"/>
     <use xlink:href="#DejaVuSans-61" x="1369.132812"/>
     <use xlink:href="#DejaVuSans-62" x="1430.412109"/>
     <use xlink:href="#DejaVuSans-69" x="1493.888672"/>
     <use xlink:href="#DejaVuSans-6c" x="1521.671875"/>
     <use xlink:href="#DejaVuSans-69" x="1549.455078"/>
     <use xlink:href="#DejaVuSans-74" x="1577.238281"/>
     <use xlink:href="#DejaVuSans-79" x="1616.447266"/>
     <use xlink:href="#DejaVuSans-20" x="1675.626953"/>
     <use xlink:href="#DejaVuSans-50" x="1707.414062"/>
     <use xlink:href="#DejaVuSans-6f" x="1764.091797"/>
     <use xlink:href="#DejaVuSans-6c" x="1825.273438"/>
     <use xlink:href="#DejaVuSans-79" x="1853.056641"/>
     <use xlink:href="#DejaVuSans-74" x="1912.236328"/>
     <use xlink:href="#DejaVuSans-6f" x="1951.445312"/>
     <use xlink:href="#DejaVuSans-70" x="2012.626953"/>
     <use xlink:href="#DejaVuSans-65" x="2076.103516"/>
    </g>
   </g>
   <g id="Poly3DCollection_2">
    <defs>
     <path id="maa6fbbb1b1" d="M 270.369028 -131.053112 
L 310.986248 -191.189253 
L 248.192403 -208.498821 
z
" style="stroke: #0652ff"/>
    </defs>
    <g clip-path="url(#p26ceb60d52)">
     <use xlink:href="#maa6fbbb1b1" x="0" y="345.6" style="fill: #0652ff; fill-opacity: 0.4; stroke: #0652ff"/>
    </g>
   </g>
   <g id="Poly3DCollection_3">
    <defs>
     <path id="m751131698f" d="M 310.986248 -191.189253 
L 207.806542 -249.367943 
L 248.192403 -208.498821 
z
" style="stroke: #0652ff"/>
    </defs>
    <g clip-path="url(#p26ceb60d52)">
     <use xlink:href="#m751131698f" x="0" y="345.6" style="fill: #0652ff; fill-opacity: 0.4; stroke: #0652ff"/>
    </g>
   </g>
   <g id="Poly3DCollection_4">
    <defs>
     <path id="m0bedc47045" d="M 208.709493 -149.35721 
L 207.806542 -249.367943 
L 248.192403 -208.498821 
z
" style="stroke: #0652ff"/>
    </defs>
    <g clip-path="url(#p26ceb60d52)">
     <use xlink:href="#m0bedc47045" x="0" y="345.6" style="fill: #0652ff; fill-opacity: 0.4; stroke: #0652ff"/>
    </g>
   </g>
   <g id="Poly3DCollection_5">
    <defs>
     <path id="mc4f6d4c23a" d="M 208.709493 -149.35721 
L 207.806542 -249.367943 
L 167.463436 -188.290503 
z
" style="stroke: #0652ff"/>
    </defs>
    <g clip-path="url(#p26ceb60d52)">
     <use xlink:href="#mc4f6d4c23a" x="0" y="345.6" style="fill: #0652ff; fill-opacity: 0.4; stroke: #0652ff"/>
    </g>
   </g>
   <g id="Poly3DCollection_6">
    <defs>
     <path id="m75ac2ab5af" d="M 270.369028 -131.053112 
L 208.709493 -149.35721 
L 189.114185 -108.869836 
z
" style="stroke: #0652ff"/>
    </defs>
    <g clip-path="url(#p26ceb60d52)">
     <use xlink:href="#m75ac2ab5af" x="0" y="345.6" style="fill: #0652ff; fill-opacity: 0.4; stroke: #0652ff"/>
    </g>
   </g>
   <g id="Path3DCollection_1">
    <defs>
     <path id="mfdf2d40b12" d="M 0 2.236068 
C 0.593012 2.236068 1.161816 2.000462 1.581139 1.581139 
C 2.000462 1.161816 2.236068 0.593012 2.236068 0 
C 2.236068 -0.593012 2.000462 -1.161816 1.581139 -1.581139 
C 1.161816 -2.000462 0.593012 -2.236068 0 -2.236068 
C -0.593012 -2.236068 -1.161816 -2.000462 -1.581139 -1.581139 
C -2.000462 -1.161816 -2.236068 -0.593012 -2.236068 0 
C -2.236068 0.593012 -2.000462 1.161816 -1.581139 1.581139 
C -1.161816 2.000462 -0.593012 2.236068 0 2.236068 
z
" style="stroke: #0cff0c"/>
    </defs>
    <g clip-path="url(#p26ceb60d52)">
     <use xlink:href="#mfdf2d40b12" x="243.357512" y="131.594353" style="fill: #0cff0c; stroke: #0cff0c"/>
    </g>
   </g>
   <g id="Path3DCollection_2">
    <g clip-path="url(#p26ceb60d52)">
     <use xlink:href="#mfdf2d40b12" x="166.562274" y="174.568524" style="fill: #0cff0c; stroke: #0cff0c"/>
    </g>
   </g>
   <g id="Path3DCollection_3">
    <defs>
     <path id="mdf5bb397dc" d="M 0 2.236068 
C 0.593012 2.236068 1.161816 2.000462 1.581139 1.581139 
C 2.000462 1.161816 2.236068 0.593012 2.236068 0 
C 2.236068 -0.593012 2.000462 -1.161816 1.581139 -1.581139 
C 1.161816 -2.000462 0.593012 -2.236068 0 -2.236068 
C -0.593012 -2.236068 -1.161816 -2.000462 -1.581139 -1.581139 
C -2.000462 -1.161816 -2.236068 -0.593012 -2.236068 0 
C -2.236068 0.593012 -2.000462 1.161816 -1.581139 1.581139 
C -1.161816 2.000462 -0.593012 2.236068 0 2.236068 
z
" style="stroke: #ff000d"/>
    </defs>
    <g clip-path="url(#p26ceb60d52)">
     <use xlink:href="#mdf5bb397dc" x="344.598446" y="138.627427" style="fill: #ff000d; stroke: #ff000d"/>
    </g>
   </g>
   <g id="Poly3DCollection_7">
    <defs>
     <path id="m84563d17f4" d="M 310.986248 -191.189253 
L 207.806542 -249.367943 
L 271.643917 -232.345592 
z
" style="stroke: #0652ff"/>
    </defs>
    <g clip-path="url(#p26ceb60d52)">
     <use xlink:href="#m84563d17f4" x="0" y="345.6" style="fill: #0652ff; fill-opacity: 0.4; stroke: #0652ff"/>
    </g>
   </g>
   <g id="Path3DCollection_4">
    <g clip-path="url(#p26ceb60d52)">
     <use xlink:href="#mfdf2d40b12" x="182.636203" y="183.651218" style="fill: #0cff0c; stroke: #0cff0c"/>
    </g>
   </g>
   <g id="Poly3DCollection_8">
    <defs>
     <path id="m9a25fce57f" d="M 270.369028 -131.053112 
L 252.988071 -89.007611 
L 189.114185 -108.869836 
z
" style="stroke: #0652ff"/>
    </defs>
    <g clip-path="url(#p26ceb60d52)">
     <use xlink:href="#m9a25fce57f" x="0" y="345.6" style="fill: #0652ff; fill-opacity: 0.4; stroke: #0652ff"/>
    </g>
   </g>
   <g id="Poly3DCollection_9">
    <defs>
     <path id="m0d3412d120" d="M 270.369028 -131.053112 
L 310.986248 -191.189253 
L 295.211065 -151.412939 
z
" style="stroke: #0652ff"/>
    </defs>
    <g clip-path="url(#p26ceb60d52)">
     <use xlink:href="#m0d3412d120" x="0" y="345.6" style="fill: #0652ff; fill-opacity: 0.4; stroke: #0652ff"/>
    </g>
   </g>
   <g id="Poly3DCollection_10">
    <defs>
     <path id="mcf7b5f325b" d="M 270.369028 -131.053112 
L 252.988071 -89.007611 
L 295.211065 -151.412939 
z
" style="stroke: #0652ff"/>
    </defs>
    <g clip-path="url(#p26ceb60d52)">
     <use xlink:href="#mcf7b5f325b" x="0" y="345.6" style="fill: #0652ff; fill-opacity: 0.4; stroke: #0652ff"/>
    </g>
   </g>
   <g id="Poly3DCollection_11">
    <defs>
     <path id="mc7c897168a" d="M 145.536227 -148.262908 
L 207.806542 -249.367943 
L 167.463436 -188.290503 
z
" style="stroke: #0652ff"/>
    </defs>
    <g clip-path="url(#p26ceb60d52)">
     <use xlink:href="#mc7c897168a" x="0" y="345.6" style="fill: #0652ff; fill-opacity: 0.4; stroke: #0652ff"/>
    </g>
   </g>
   <g id="Poly3DCollection_12">
    <defs>
     <path id="m08efe951e4" d="M 208.709493 -149.35721 
L 145.536227 -148.262908 
L 167.463436 -188.290503 
z
" style="stroke: #0652ff"/>
    </defs>
    <g clip-path="url(#p26ceb60d52)">
     <use xlink:href="#m08efe951e4" x="0" y="345.6" style="fill: #0652ff; fill-opacity: 0.4; stroke: #0652ff"/>
    </g>
   </g>
   <g id="Poly3DCollection_13">
    <defs>
     <path id="m24908e05b9" d="M 208.709493 -149.35721 
L 145.536227 -148.262908 
L 189.114185 -108.869836 
z
" style="stroke: #0652ff"/>
    </defs>
    <g clip-path="url(#p26ceb60d52)">
     <use xlink:href="#m24908e05b9" x="0" y="345.6" style="fill: #0652ff; fill-opacity: 0.4; stroke: #0652ff"/>
    </g>
   </g>
   <g id="Poly3DCollection_14">
    <defs>
     <path id="m8fe4942307" d="M 252.988071 -89.007611 
L 145.536227 -148.262908 
L 189.114185 -108.869836 
z
" style="stroke: #0652ff"/>
    </defs>
    <g clip-path="url(#p26ceb60d52)">
     <use xlink:href="#m8fe4942307" x="0" y="345.6" style="fill: #0652ff; fill-opacity: 0.4; stroke: #0652ff"/>
    </g>
   </g>
   <g id="Poly3DCollection_15">
    <defs>
     <path id="m8430832737" d="M 145.536227 -148.262908 
L 207.806542 -249.367943 
L 187.458872 -211.685907 
z
" style="stroke: #0652ff"/>
    </defs>
    <g clip-path="url(#p26ceb60d52)">
     <use xlink:href="#m8430832737" x="0" y="345.6" style="fill: #0652ff; fill-opacity: 0.4; stroke: #0652ff"/>
    </g>
   </g>
   <g id="Poly3DCollection_16">
    <defs>
     <path id="m3c1bb4ba9a" d="M 252.988071 -89.007611 
L 145.536227 -148.262908 
L 210.460362 -128.591954 
z
" style="stroke: #0652ff"/>
    </defs>
    <g clip-path="url(#p26ceb60d52)">
     <use xlink:href="#m3c1bb4ba9a" x="0" y="345.6" style="fill: #0652ff; fill-opacity: 0.4; stroke: #0652ff"/>
    </g>
   </g>
   <g id="Path3DCollection_5">
    <defs>
     <path id="C0_0_de9300372e" d="M 0 2.236068 
C 0.593012 2.236068 1.161816 2.000462 1.581139 1.581139 
C 2.000462 1.161816 2.236068 0.593012 2.236068 -0 
C 2.236068 -0.593012 2.000462 -1.161816 1.581139 -1.581139 
C 1.161816 -2.000462 0.593012 -2.236068 0 -2.236068 
C -0.593012 -2.236068 -1.161816 -2.000462 -1.581139 -1.581139 
C -2.000462 -1.161816 -2.236068 -0.593012 -2.236068 0 
C -2.236068 0.593012 -2.000462 1.161816 -1.581139 1.581139 
C -1.161816 2.000462 -0.593012 2.236068 0 2.236068 
z
"/>
    </defs>
    <g clip-path="url(#p26ceb60d52)">
     <use xlink:href="#C0_0_de9300372e" x="208.709493" y="196.24279" style="fill: #0652ff; fill-opacity: 0.4; stroke: #0652ff; stroke-opacity: 0.4"/>
    </g>
    <g clip-path="url(#p26ceb60d52)">
     <use xlink:href="#C0_0_de9300372e" x="248.192403" y="137.101179" style="fill: #0652ff; fill-opacity: 0.4; stroke: #0652ff; stroke-opacity: 0.4"/>
    </g>
    <g clip-path="url(#p26ceb60d52)">
     <use xlink:href="#C0_0_de9300372e" x="270.369028" y="214.546888" style="fill: #0652ff; fill-opacity: 0.4; stroke: #0652ff; stroke-opacity: 0.4"/>
    </g>
    <g clip-path="url(#p26ceb60d52)">
     <use xlink:href="#C0_0_de9300372e" x="310.986248" y="154.410747" style="fill: #0652ff; fill-opacity: 0.4; stroke: #0652ff; stroke-opacity: 0.4"/>
    </g>
    <g clip-path="url(#p26ceb60d52)">
     <use xlink:href="#C0_0_de9300372e" x="167.463436" y="157.309497" style="fill: #0652ff; fill-opacity: 0.4; stroke: #0652ff; stroke-opacity: 0.4"/>
    </g>
    <g clip-path="url(#p26ceb60d52)">
     <use xlink:href="#C0_0_de9300372e" x="207.806542" y="96.232057" style="fill: #0652ff; fill-opacity: 0.4; stroke: #0652ff; stroke-opacity: 0.4"/>
    </g>
    <g clip-path="url(#p26ceb60d52)">
     <use xlink:href="#C0_0_de9300372e" x="189.114185" y="236.730164" style="fill: #0652ff; fill-opacity: 0.4; stroke: #0652ff; stroke-opacity: 0.4"/>
    </g>
    <g clip-path="url(#p26ceb60d52)">
     <use xlink:href="#C0_0_de9300372e" x="230.110448" y="175.394132" style="fill: #0652ff; fill-opacity: 0.4; stroke: #0652ff; stroke-opacity: 0.4"/>
    </g>
    <g clip-path="url(#p26ceb60d52)">
     <use xlink:href="#C0_0_de9300372e" x="230.110472" y="175.394139" style="fill: #0652ff; fill-opacity: 0.4; stroke: #0652ff; stroke-opacity: 0.4"/>
    </g>
    <g clip-path="url(#p26ceb60d52)">
     <use xlink:href="#C0_0_de9300372e" x="271.643917" y="113.254408" style="fill: #0652ff; fill-opacity: 0.4; stroke: #0652ff; stroke-opacity: 0.4"/>
    </g>
    <g clip-path="url(#p26ceb60d52)">
     <use xlink:href="#C0_0_de9300372e" x="252.988071" y="256.592389" style="fill: #0652ff; fill-opacity: 0.4; stroke: #0652ff; stroke-opacity: 0.4"/>
    </g>
    <g clip-path="url(#p26ceb60d52)">
     <use xlink:href="#C0_0_de9300372e" x="295.211065" y="194.187061" style="fill: #0652ff; fill-opacity: 0.4; stroke: #0652ff; stroke-opacity: 0.4"/>
    </g>
    <g clip-path="url(#p26ceb60d52)">
     <use xlink:href="#C0_0_de9300372e" x="145.536227" y="197.337092" style="fill: #0652ff; fill-opacity: 0.4; stroke: #0652ff; stroke-opacity: 0.4"/>
    </g>
    <g clip-path="url(#p26ceb60d52)">
     <use xlink:href="#C0_0_de9300372e" x="187.458872" y="133.914093" style="fill: #0652ff; fill-opacity: 0.4; stroke: #0652ff; stroke-opacity: 0.4"/>
    </g>
    <g clip-path="url(#p26ceb60d52)">
     <use xlink:href="#C0_0_de9300372e" x="210.460362" y="217.008046" style="fill: #0652ff; fill-opacity: 0.4; stroke: #0652ff; stroke-opacity: 0.4"/>
    </g>
    <g clip-path="url(#p26ceb60d52)">
     <use xlink:href="#C0_0_de9300372e" x="253.67278" y="152.439907" style="fill: #0652ff; fill-opacity: 0.4; stroke: #0652ff; stroke-opacity: 0.4"/>
    </g>
   </g>
   <g id="Poly3DCollection_17">
    <defs>
     <path id="m90697b2aaf" d="M 253.67278 -193.160093 
L 310.986248 -191.189253 
L 271.643917 -232.345592 
z
" style="stroke: #0652ff"/>
    </defs>
    <g clip-path="url(#p26ceb60d52)">
     <use xlink:href="#m90697b2aaf" x="0" y="345.6" style="fill: #0652ff; fill-opacity: 0.4; stroke: #0652ff"/>
    </g>
   </g>
   <g id="Poly3DCollection_18">
    <defs>
     <path id="md02f55fd81" d="M 253.67278 -193.160093 
L 310.986248 -191.189253 
L 295.211065 -151.412939 
z
" style="stroke: #0652ff"/>
    </defs>
    <g clip-path="url(#p26ceb60d52)">
     <use xlink:href="#md02f55fd81" x="0" y="345.6" style="fill: #0652ff; fill-opacity: 0.4; stroke: #0652ff"/>
    </g>
   </g>
   <g id="Poly3DCollection_19">
    <defs>
     <path id="mbfcd13bde1" d="M 253.67278 -193.160093 
L 207.806542 -249.367943 
L 271.643917 -232.345592 
z
" style="stroke: #0652ff"/>
    </defs>
    <g clip-path="url(#p26ceb60d52)">
     <use xlink:href="#mbfcd13bde1" x="0" y="345.6" style="fill: #0652ff; fill-opacity: 0.4; stroke: #0652ff"/>
    </g>
   </g>
   <g id="Poly3DCollection_20">
    <defs>
     <path id="m5b3c144355" d="M 253.67278 -193.160093 
L 207.806542 -249.367943 
L 187.458872 -211.685907 
z
" style="stroke: #0652ff"/>
    </defs>
    <g clip-path="url(#p26ceb60d52)">
     <use xlink:href="#m5b3c144355" x="0" y="345.6" style="fill: #0652ff; fill-opacity: 0.4; stroke: #0652ff"/>
    </g>
   </g>
   <g id="Poly3DCollection_21">
    <defs>
     <path id="m7cea039b70" d="M 145.536227 -148.262908 
L 253.67278 -193.160093 
L 187.458872 -211.685907 
z
" style="stroke: #0652ff"/>
    </defs>
    <g clip-path="url(#p26ceb60d52)">
     <use xlink:href="#m7cea039b70" x="0" y="345.6" style="fill: #0652ff; fill-opacity: 0.4; stroke: #0652ff"/>
    </g>
   </g>
   <g id="Poly3DCollection_22">
    <defs>
     <path id="m58f8500700" d="M 145.536227 -148.262908 
L 253.67278 -193.160093 
L 210.460362 -128.591954 
z
" style="stroke: #0652ff"/>
    </defs>
    <g clip-path="url(#p26ceb60d52)">
     <use xlink:href="#m58f8500700" x="0" y="345.6" style="fill: #0652ff; fill-opacity: 0.4; stroke: #0652ff"/>
    </g>
   </g>
   <g id="Poly3DCollection_23">
    <defs>
     <path id="m0964e05eb7" d="M 252.988071 -89.007611 
L 253.67278 -193.160093 
L 295.211065 -151.412939 
z
" style="stroke: #0652ff"/>
    </defs>
    <g clip-path="url(#p26ceb60d52)">
     <use xlink:href="#m0964e05eb7" x="0" y="345.6" style="fill: #0652ff; fill-opacity: 0.4; stroke: #0652ff"/>
    </g>
   </g>
   <g id="Poly3DCollection_24">
    <defs>
     <path id="m91a7837a94" d="M 252.988071 -89.007611 
L 253.67278 -193.160093 
L 210.460362 -128.591954 
z
" style="stroke: #0652ff"/>
    </defs>
    <g clip-path="url(#p26ceb60d52)">
     <use xlink:href="#m91a7837a94" x="0" y="345.6" style="fill: #0652ff; fill-opacity: 0.4; stroke: #0652ff"/>
    </g>
   </g>
  </g>
 </g>
 <defs>
  <clipPath id="p26ceb60d52">
   <rect x="76.44" y="26.88" width="307.92" height="307.92"/>
  </clipPath>
 </defs>
</svg>
