<?xml version="1.0" encoding="utf-8" standalone="no"?>
<!DOCTYPE svg PUBLIC "-//W3C//DTD SVG 1.1//EN"
  "http://www.w3.org/Graphics/SVG/1.1/DTD/svg11.dtd">
<svg xmlns:xlink="http://www.w3.org/1999/xlink" width="460.8pt" height="345.6pt" viewBox="0 0 460.8 345.6" xmlns="http://www.w3.org/2000/svg" version="1.1">
 <metadata>
  <rdf:RDF xmlns:dc="http://purl.org/dc/elements/1.1/" xmlns:cc="http://creativecommons.org/ns#" xmlns:rdf="http://www.w3.org/1999/02/22-rdf-syntax-ns#">
   <cc:Work>
    <dc:type rdf:resource="http://purl.org/dc/dcmitype/StillImage"/>
    <dc:date>2025-11-03T13:49:30.498417</dc:date>
    <dc:format>image/svg+xml</dc:format>
    <dc:creator>
     <cc:Agent>
      <dc:title>Matplotlib v3.8.1, https://matplotlib.org/</dc:title>
     </cc:Agent>
    </dc:creator>
   </cc:Work>
  </rdf:RDF>
 </metadata>
 <defs>
  <style type="text/css">*{stroke-linejoin: round; stroke-linecap: butt}</style>
 </defs>
 <g id="figure_1">
  <g id="patch_1">
   <path d="M 0 345.6 
L 460.8 345.6 
L 460.8 0 
L 0 0 
z
" style="fill: #ffffff"/>
  </g>
  <g id="patch_2">
   <path d="M 76.44 334.8 
L 384.36 334.8 
L 384.36 26.88 
L 76.44 26.88 
z
" style="fill: #ffffff"/>
  </g>
  <g id="pane3d_1">
   <g id="patch_3">
    <path d="M 99.690083 258.876796 
L 201.375324 173.642211 
L 199.961801 50.718703 
L 93.410398 128.475064 
" style="fill: #f2f2f2; opacity: 0.5; stroke: #f2f2f2; stroke-linejoin: miter"/>
   </g>
  </g>
  <g id="pane3d_2">
   <g id="patch_4">
    <path d="M 201.375324 173.642211 
L 364.543853 221.068861 
L 370.366762 93.911394 
L 199.961801 50.718703 
" style="fill: #e6e6e6; opacity: 0.5; stroke: #e6e6e6; stroke-linejoin: miter"/>
   </g>
  </g>
  <g id="pane3d_3">
   <g id="patch_5">
    <path d="M 99.690083 258.876796 
L 272.656694 315.367691 
L 364.543853 221.068861 
L 201.375324 173.642211 
" style="fill: #ececec; opacity: 0.5; stroke: #ececec; stroke-linejoin: miter"/>
   </g>
  </g>
  <g id="grid3d_1">
   <g id="Line3DCollection_1">
    <path d="M 116.405538 264.336063 
L 217.206897 178.243825 
L 216.464005 54.901531 
" style="fill: none; stroke: #b0b0b0; stroke-width: 0.8"/>
    <path d="M 136.118386 270.77428 
L 235.859984 183.665541 
L 235.915914 59.832023 
" style="fill: none; stroke: #b0b0b0; stroke-width: 0.8"/>
    <path d="M 156.074792 277.292042 
L 254.724401 189.148682 
L 255.597747 64.820794 
" style="fill: none; stroke: #b0b0b0; stroke-width: 0.8"/>
    <path d="M 176.279299 283.890834 
L 273.803757 194.694298 
L 275.513605 69.868883 
" style="fill: none; stroke: #b0b0b0; stroke-width: 0.8"/>
    <path d="M 196.73656 290.572175 
L 293.101749 200.303462 
L 295.667687 74.977355 
" style="fill: none; stroke: #b0b0b0; stroke-width: 0.8"/>
    <path d="M 217.45135 297.337625 
L 312.622156 205.977274 
L 316.064293 80.1473 
" style="fill: none; stroke: #b0b0b0; stroke-width: 0.8"/>
    <path d="M 238.428562 304.188783 
L 332.368845 211.716856 
L 336.707827 85.379835 
" style="fill: none; stroke: #b0b0b0; stroke-width: 0.8"/>
    <path d="M 259.673214 311.127286 
L 352.345774 217.523361 
L 357.602801 90.676101 
" style="fill: none; stroke: #b0b0b0; stroke-width: 0.8"/>
   </g>
  </g>
  <g id="grid3d_2">
   <g id="Line3DCollection_2">
    <path d="M 100.656433 123.187238 
L 106.580763 253.100892 
L 278.909085 308.951199 
" style="fill: none; stroke: #b0b0b0; stroke-width: 0.8"/>
    <path d="M 116.46217 111.652931 
L 121.623698 240.491605 
L 292.54557 294.956811 
" style="fill: none; stroke: #b0b0b0; stroke-width: 0.8"/>
    <path d="M 131.871155 100.408155 
L 136.305335 228.185166 
L 305.837348 281.316177 
" style="fill: none; stroke: #b0b0b0; stroke-width: 0.8"/>
    <path d="M 146.898142 89.442145 
L 150.638534 216.170795 
L 318.797326 268.016051 
" style="fill: none; stroke: #b0b0b0; stroke-width: 0.8"/>
    <path d="M 161.557161 78.744661 
L 164.635554 204.438215 
L 331.437776 255.04384 
" style="fill: none; stroke: #b0b0b0; stroke-width: 0.8"/>
    <path d="M 175.861565 68.305958 
L 178.308086 192.977628 
L 343.770371 242.387564 
" style="fill: none; stroke: #b0b0b0; stroke-width: 0.8"/>
    <path d="M 189.824067 58.11676 
L 191.667284 181.779683 
L 355.806221 230.03582 
" style="fill: none; stroke: #b0b0b0; stroke-width: 0.8"/>
   </g>
  </g>
  <g id="grid3d_3">
   <g id="Line3DCollection_3">
    <path d="M 365.118069 208.529452 
L 201.235666 161.497241 
L 99.071764 246.036991 
" style="fill: none; stroke: #b0b0b0; stroke-width: 0.8"/>
    <path d="M 365.872149 192.062264 
L 201.052352 145.555728 
L 98.259453 229.168829 
" style="fill: none; stroke: #b0b0b0; stroke-width: 0.8"/>
    <path d="M 366.634991 175.403746 
L 200.867009 129.437864 
L 97.437343 212.097185 
" style="fill: none; stroke: #b0b0b0; stroke-width: 0.8"/>
    <path d="M 367.406748 158.550544 
L 200.679605 113.140708 
L 96.605256 194.818354 
" style="fill: none; stroke: #b0b0b0; stroke-width: 0.8"/>
    <path d="M 368.187577 141.499226 
L 200.490104 96.66125 
L 95.763009 177.328542 
" style="fill: none; stroke: #b0b0b0; stroke-width: 0.8"/>
    <path d="M 368.97764 124.246276 
L 200.298472 79.996414 
L 94.910414 159.623861 
" style="fill: none; stroke: #b0b0b0; stroke-width: 0.8"/>
    <path d="M 369.777101 106.788098 
L 200.104672 63.143055 
L 94.04728 141.700326 
" style="fill: none; stroke: #b0b0b0; stroke-width: 0.8"/>
   </g>
  </g>
  <g id="axis3d_1">
   <g id="line2d_1">
    <path d="M 99.690083 258.876796 
L 272.656694 315.367691 
" style="fill: none; stroke: #000000; stroke-width: 0.8; stroke-linecap: square"/>
   </g>
   <g id="xtick_1">
    <g id="line2d_2">
     <path d="M 117.283449 263.586258 
L 114.64594 265.838897 
" style="fill: none; stroke: #000000; stroke-width: 0.8; stroke-linecap: square"/>
    </g>
    <g id="text_1">
     <!-- −20 -->
     <g transform="translate(98.333317 287.674518) scale(0.1 -0.1)">
      <defs>
       <path id="DejaVuSans-2212" d="M 678 2272 
L 4684 2272 
L 4684 1741 
L 678 1741 
L 678 2272 
z
" transform="scale(0.015625)"/>
       <path id="DejaVuSans-32" d="M 1228 531 
L 3431 531 
L 3431 0 
L 469 0 
L 469 531 
Q 828 903 1448 1529 
Q 2069 2156 2228 2338 
Q 2531 2678 2651 2914 
Q 2772 3150 2772 3378 
Q 2772 3750 2511 3984 
Q 2250 4219 1831 4219 
Q 1534 4219 1204 4116 
Q 875 4013 500 3803 
L 500 4441 
Q 881 4594 1212 4672 
Q 1544 4750 1819 4750 
Q 2544 4750 2975 4387 
Q 3406 4025 3406 3419 
Q 3406 3131 3298 2873 
Q 3191 2616 2906 2266 
Q 2828 2175 2409 1742 
Q 1991 1309 1228 531 
z
" transform="scale(0.015625)"/>
       <path id="DejaVuSans-30" d="M 2034 4250 
Q 1547 4250 1301 3770 
Q 1056 3291 1056 2328 
Q 1056 1369 1301 889 
Q 1547 409 2034 409 
Q 2525 409 2770 889 
Q 3016 1369 3016 2328 
Q 3016 3291 2770 3770 
Q 2525 4250 2034 4250 
z
M 2034 4750 
Q 2819 4750 3233 4129 
Q 3647 3509 3647 2328 
Q 3647 1150 3233 529 
Q 2819 -91 2034 -91 
Q 1250 -91 836 529 
Q 422 1150 422 2328 
Q 422 3509 836 4129 
Q 1250 4750 2034 4750 
z
" transform="scale(0.015625)"/>
      </defs>
      <use xlink:href="#DejaVuSans-2212"/>
      <use xlink:href="#DejaVuSans-32" x="83.789062"/>
      <use xlink:href="#DejaVuSans-30" x="147.412109"/>
     </g>
    </g>
   </g>
   <g id="xtick_2">
    <g id="line2d_3">
     <path d="M 136.987502 270.015243 
L 134.376395 272.295637 
" style="fill: none; stroke: #000000; stroke-width: 0.8; stroke-linecap: square"/>
    </g>
    <g id="text_2">
     <!-- −10 -->
     <g transform="translate(118.063656 294.230527) scale(0.1 -0.1)">
      <defs>
       <path id="DejaVuSans-31" d="M 794 531 
L 1825 531 
L 1825 4091 
L 703 3866 
L 703 4441 
L 1819 4666 
L 2450 4666 
L 2450 531 
L 3481 531 
L 3481 0 
L 794 0 
L 794 531 
z
" transform="scale(0.015625)"/>
      </defs>
      <use xlink:href="#DejaVuSans-2212"/>
      <use xlink:href="#DejaVuSans-31" x="83.789062"/>
      <use xlink:href="#DejaVuSans-30" x="147.412109"/>
     </g>
    </g>
   </g>
   <g id="xtick_3">
    <g id="line2d_4">
     <path d="M 156.934827 276.523601 
L 154.350979 278.832268 
" style="fill: none; stroke: #000000; stroke-width: 0.8; stroke-linecap: square"/>
    </g>
    <g id="text_3">
     <!-- 0 -->
     <g transform="translate(145.409658 300.867801) scale(0.1 -0.1)">
      <use xlink:href="#DejaVuSans-30"/>
     </g>
    </g>
   </g>
   <g id="xtick_4">
    <g id="line2d_5">
     <path d="M 177.129959 283.112813 
L 174.574251 285.450282 
" style="fill: none; stroke: #000000; stroke-width: 0.8; stroke-linecap: square"/>
    </g>
    <g id="text_4">
     <!-- 10 -->
     <g transform="translate(162.45246 307.587861) scale(0.1 -0.1)">
      <use xlink:href="#DejaVuSans-31"/>
      <use xlink:href="#DejaVuSans-30" x="63.623047"/>
     </g>
    </g>
   </g>
   <g id="xtick_5">
    <g id="line2d_6">
     <path d="M 197.577545 289.784395 
L 195.050885 292.151207 
" style="fill: none; stroke: #000000; stroke-width: 0.8; stroke-linecap: square"/>
    </g>
    <g id="text_5">
     <!-- 20 -->
     <g transform="translate(182.930346 314.392265) scale(0.1 -0.1)">
      <use xlink:href="#DejaVuSans-32"/>
      <use xlink:href="#DejaVuSans-30" x="63.623047"/>
     </g>
    </g>
   </g>
   <g id="xtick_6">
    <g id="line2d_7">
     <path d="M 218.282346 296.539901 
L 215.785673 298.936613 
" style="fill: none; stroke: #000000; stroke-width: 0.8; stroke-linecap: square"/>
    </g>
    <g id="text_6">
     <!-- 30 -->
     <g transform="translate(203.666875 321.282611) scale(0.1 -0.1)">
      <defs>
       <path id="DejaVuSans-33" d="M 2597 2516 
Q 3050 2419 3304 2112 
Q 3559 1806 3559 1356 
Q 3559 666 3084 287 
Q 2609 -91 1734 -91 
Q 1441 -91 1130 -33 
Q 819 25 488 141 
L 488 750 
Q 750 597 1062 519 
Q 1375 441 1716 441 
Q 2309 441 2620 675 
Q 2931 909 2931 1356 
Q 2931 1769 2642 2001 
Q 2353 2234 1838 2234 
L 1294 2234 
L 1294 2753 
L 1863 2753 
Q 2328 2753 2575 2939 
Q 2822 3125 2822 3475 
Q 2822 3834 2567 4026 
Q 2313 4219 1838 4219 
Q 1578 4219 1281 4162 
Q 984 4106 628 3988 
L 628 4550 
Q 988 4650 1302 4700 
Q 1616 4750 1894 4750 
Q 2613 4750 3031 4423 
Q 3450 4097 3450 3541 
Q 3450 3153 3228 2886 
Q 3006 2619 2597 2516 
z
" transform="scale(0.015625)"/>
      </defs>
      <use xlink:href="#DejaVuSans-33"/>
      <use xlink:href="#DejaVuSans-30" x="63.623047"/>
     </g>
    </g>
   </g>
   <g id="xtick_7">
    <g id="line2d_8">
     <path d="M 239.249248 303.380924 
L 236.783526 305.808106 
" style="fill: none; stroke: #000000; stroke-width: 0.8; stroke-linecap: square"/>
    </g>
    <g id="text_7">
     <!-- 40 -->
     <g transform="translate(224.666979 328.260538) scale(0.1 -0.1)">
      <defs>
       <path id="DejaVuSans-34" d="M 2419 4116 
L 825 1625 
L 2419 1625 
L 2419 4116 
z
M 2253 4666 
L 3047 4666 
L 3047 1625 
L 3713 1625 
L 3713 1100 
L 3047 1100 
L 3047 0 
L 2419 0 
L 2419 1100 
L 313 1100 
L 313 1709 
L 2253 4666 
z
" transform="scale(0.015625)"/>
      </defs>
      <use xlink:href="#DejaVuSans-34"/>
      <use xlink:href="#DejaVuSans-30" x="63.623047"/>
     </g>
    </g>
   </g>
   <g id="xtick_8">
    <g id="line2d_9">
     <path d="M 260.48326 310.309099 
L 258.049483 312.767335 
" style="fill: none; stroke: #000000; stroke-width: 0.8; stroke-linecap: square"/>
    </g>
    <g id="text_8">
     <!-- 50 -->
     <g transform="translate(245.935715 335.327726) scale(0.1 -0.1)">
      <defs>
       <path id="DejaVuSans-35" d="M 691 4666 
L 3169 4666 
L 3169 4134 
L 1269 4134 
L 1269 2991 
Q 1406 3038 1543 3061 
Q 1681 3084 1819 3084 
Q 2600 3084 3056 2656 
Q 3513 2228 3513 1497 
Q 3513 744 3044 326 
Q 2575 -91 1722 -91 
Q 1428 -91 1123 -41 
Q 819 9 494 109 
L 494 744 
Q 775 591 1075 516 
Q 1375 441 1709 441 
Q 2250 441 2565 725 
Q 2881 1009 2881 1497 
Q 2881 1984 2565 2268 
Q 2250 2553 1709 2553 
Q 1456 2553 1204 2497 
Q 953 2441 691 2322 
L 691 4666 
z
" transform="scale(0.015625)"/>
      </defs>
      <use xlink:href="#DejaVuSans-35"/>
      <use xlink:href="#DejaVuSans-30" x="63.623047"/>
     </g>
    </g>
   </g>
   <g id="text_9">
    <!-- τ₁ (in.lbs) -->
    <g transform="translate(144.120388 316.837648) rotate(-341.912962) scale(0.1 -0.1)">
     <defs>
      <path id="DejaVuSans-3c4" d="M 2319 638 
Q 2431 488 2769 488 
L 3047 488 
L 3047 0 
L 2700 0 
Q 2138 0 1881 300 
Q 1625 606 1625 1269 
L 1625 2925 
L 313 2925 
L 313 3500 
L 3541 3500 
L 3541 2925 
L 2213 2925 
L 2213 1234 
Q 2213 781 2319 638 
z
" transform="scale(0.015625)"/>
      <path id="DejaVuSans-2081" d="M 488 319 
L 1125 319 
L 1125 2229 
L 428 2101 
L 428 2463 
L 1147 2585 
L 1575 2585 
L 1575 319 
L 2216 319 
L 2216 -24 
L 488 -24 
L 488 319 
z
" transform="scale(0.015625)"/>
      <path id="DejaVuSans-20" transform="scale(0.015625)"/>
      <path id="DejaVuSans-28" d="M 1984 4856 
Q 1566 4138 1362 3434 
Q 1159 2731 1159 2009 
Q 1159 1288 1364 580 
Q 1569 -128 1984 -844 
L 1484 -844 
Q 1016 -109 783 600 
Q 550 1309 550 2009 
Q 550 2706 781 3412 
Q 1013 4119 1484 4856 
L 1984 4856 
z
" transform="scale(0.015625)"/>
      <path id="DejaVuSans-69" d="M 603 3500 
L 1178 3500 
L 1178 0 
L 603 0 
L 603 3500 
z
M 603 4863 
L 1178 4863 
L 1178 4134 
L 603 4134 
L 603 4863 
z
" transform="scale(0.015625)"/>
      <path id="DejaVuSans-6e" d="M 3513 2113 
L 3513 0 
L 2938 0 
L 2938 2094 
Q 2938 2591 2744 2837 
Q 2550 3084 2163 3084 
Q 1697 3084 1428 2787 
Q 1159 2491 1159 1978 
L 1159 0 
L 581 0 
L 581 3500 
L 1159 3500 
L 1159 2956 
Q 1366 3272 1645 3428 
Q 1925 3584 2291 3584 
Q 2894 3584 3203 3211 
Q 3513 2838 3513 2113 
z
" transform="scale(0.015625)"/>
      <path id="DejaVuSans-2e" d="M 684 794 
L 1344 794 
L 1344 0 
L 684 0 
L 684 794 
z
" transform="scale(0.015625)"/>
      <path id="DejaVuSans-6c" d="M 603 4863 
L 1178 4863 
L 1178 0 
L 603 0 
L 603 4863 
z
" transform="scale(0.015625)"/>
      <path id="DejaVuSans-62" d="M 3116 1747 
Q 3116 2381 2855 2742 
Q 2594 3103 2138 3103 
Q 1681 3103 1420 2742 
Q 1159 2381 1159 1747 
Q 1159 1113 1420 752 
Q 1681 391 2138 391 
Q 2594 391 2855 752 
Q 3116 1113 3116 1747 
z
M 1159 2969 
Q 1341 3281 1617 3432 
Q 1894 3584 2278 3584 
Q 2916 3584 3314 3078 
Q 3713 2572 3713 1747 
Q 3713 922 3314 415 
Q 2916 -91 2278 -91 
Q 1894 -91 1617 61 
Q 1341 213 1159 525 
L 1159 0 
L 581 0 
L 581 4863 
L 1159 4863 
L 1159 2969 
z
" transform="scale(0.015625)"/>
      <path id="DejaVuSans-73" d="M 2834 3397 
L 2834 2853 
Q 2591 2978 2328 3040 
Q 2066 3103 1784 3103 
Q 1356 3103 1142 2972 
Q 928 2841 928 2578 
Q 928 2378 1081 2264 
Q 1234 2150 1697 2047 
L 1894 2003 
Q 2506 1872 2764 1633 
Q 3022 1394 3022 966 
Q 3022 478 2636 193 
Q 2250 -91 1575 -91 
Q 1294 -91 989 -36 
Q 684 19 347 128 
L 347 722 
Q 666 556 975 473 
Q 1284 391 1588 391 
Q 1994 391 2212 530 
Q 2431 669 2431 922 
Q 2431 1156 2273 1281 
Q 2116 1406 1581 1522 
L 1381 1569 
Q 847 1681 609 1914 
Q 372 2147 372 2553 
Q 372 3047 722 3315 
Q 1072 3584 1716 3584 
Q 2034 3584 2315 3537 
Q 2597 3491 2834 3397 
z
" transform="scale(0.015625)"/>
      <path id="DejaVuSans-29" d="M 513 4856 
L 1013 4856 
Q 1481 4119 1714 3412 
Q 1947 2706 1947 2009 
Q 1947 1309 1714 600 
Q 1481 -109 1013 -844 
L 513 -844 
Q 928 -128 1133 580 
Q 1338 1288 1338 2009 
Q 1338 2731 1133 3434 
Q 928 4138 513 4856 
z
" transform="scale(0.015625)"/>
     </defs>
     <use xlink:href="#DejaVuSans-3c4"/>
     <use xlink:href="#DejaVuSans-2081" x="60.205078"/>
     <use xlink:href="#DejaVuSans-20" x="100.292969"/>
     <use xlink:href="#DejaVuSans-28" x="132.080078"/>
     <use xlink:href="#DejaVuSans-69" x="171.09375"/>
     <use xlink:href="#DejaVuSans-6e" x="198.876953"/>
     <use xlink:href="#DejaVuSans-2e" x="262.255859"/>
     <use xlink:href="#DejaVuSans-6c" x="294.042969"/>
     <use xlink:href="#DejaVuSans-62" x="321.826172"/>
     <use xlink:href="#DejaVuSans-73" x="385.302734"/>
     <use xlink:href="#DejaVuSans-29" x="437.402344"/>
    </g>
   </g>
  </g>
  <g id="axis3d_2">
   <g id="line2d_10">
    <path d="M 364.543853 221.068861 
L 272.656694 315.367691 
" style="fill: none; stroke: #000000; stroke-width: 0.8; stroke-linecap: square"/>
   </g>
   <g id="xtick_9">
    <g id="line2d_11">
     <path d="M 277.456862 308.480544 
L 281.817288 309.893725 
" style="fill: none; stroke: #000000; stroke-width: 0.8; stroke-linecap: square"/>
    </g>
    <g id="text_10">
     <!-- −20 -->
     <g transform="translate(281.23755 329.973224) scale(0.1 -0.1)">
      <use xlink:href="#DejaVuSans-2212"/>
      <use xlink:href="#DejaVuSans-32" x="83.789062"/>
      <use xlink:href="#DejaVuSans-30" x="147.412109"/>
     </g>
    </g>
   </g>
   <g id="xtick_10">
    <g id="line2d_12">
     <path d="M 291.106133 294.498127 
L 295.428119 295.875352 
" style="fill: none; stroke: #000000; stroke-width: 0.8; stroke-linecap: square"/>
    </g>
    <g id="text_11">
     <!-- −10 -->
     <g transform="translate(294.71603 315.799765) scale(0.1 -0.1)">
      <use xlink:href="#DejaVuSans-2212"/>
      <use xlink:href="#DejaVuSans-31" x="83.789062"/>
      <use xlink:href="#DejaVuSans-30" x="147.412109"/>
     </g>
    </g>
   </g>
   <g id="xtick_11">
    <g id="line2d_13">
     <path d="M 304.410519 280.869012 
L 308.694603 282.211636 
" style="fill: none; stroke: #000000; stroke-width: 0.8; stroke-linecap: square"/>
    </g>
    <g id="text_12">
     <!-- 0 -->
     <g transform="translate(315.22472 301.984767) scale(0.1 -0.1)">
      <use xlink:href="#DejaVuSans-30"/>
     </g>
    </g>
   </g>
   <g id="xtick_12">
    <g id="line2d_14">
     <path d="M 317.382928 267.579976 
L 321.629644 268.889287 
" style="fill: none; stroke: #000000; stroke-width: 0.8; stroke-linecap: square"/>
    </g>
    <g id="text_13">
     <!-- 10 -->
     <g transform="translate(324.852952 288.514801) scale(0.1 -0.1)">
      <use xlink:href="#DejaVuSans-31"/>
      <use xlink:href="#DejaVuSans-30" x="63.623047"/>
     </g>
    </g>
   </g>
   <g id="xtick_13">
    <g id="line2d_15">
     <path d="M 330.035633 254.618448 
L 334.24551 255.89567 
" style="fill: none; stroke: #000000; stroke-width: 0.8; stroke-linecap: square"/>
    </g>
    <g id="text_14">
     <!-- 20 -->
     <g transform="translate(337.346461 275.377101) scale(0.1 -0.1)">
      <use xlink:href="#DejaVuSans-32"/>
      <use xlink:href="#DejaVuSans-30" x="63.623047"/>
     </g>
    </g>
   </g>
   <g id="xtick_14">
    <g id="line2d_16">
     <path d="M 342.380309 241.972467 
L 346.553871 243.218766 
" style="fill: none; stroke: #000000; stroke-width: 0.8; stroke-linecap: square"/>
    </g>
    <g id="text_15">
     <!-- 30 -->
     <g transform="translate(349.535545 262.559523) scale(0.1 -0.1)">
      <use xlink:href="#DejaVuSans-33"/>
      <use xlink:href="#DejaVuSans-30" x="63.623047"/>
     </g>
    </g>
   </g>
   <g id="xtick_15">
    <g id="line2d_17">
     <path d="M 354.428069 229.63065 
L 358.565833 230.847134 
" style="fill: none; stroke: #000000; stroke-width: 0.8; stroke-linecap: square"/>
    </g>
    <g id="text_16">
     <!-- 40 -->
     <g transform="translate(361.431197 250.050506) scale(0.1 -0.1)">
      <use xlink:href="#DejaVuSans-34"/>
      <use xlink:href="#DejaVuSans-30" x="63.623047"/>
     </g>
    </g>
   </g>
   <g id="text_17">
    <!-- τ₂ (in.lbs) -->
    <g transform="translate(332.975431 313.099597) rotate(-45.742112) scale(0.1 -0.1)">
     <defs>
      <path id="DejaVuSans-2082" d="M 838 332 
L 2163 332 
L 2163 -24 
L 294 -24 
L 294 319 
Q 400 416 597 591 
Q 1672 1544 1672 1838 
Q 1672 2044 1509 2170 
Q 1347 2297 1081 2297 
Q 919 2297 728 2242 
Q 538 2188 313 2079 
L 313 2463 
Q 553 2551 761 2594 
Q 969 2638 1147 2638 
Q 1600 2638 1872 2432 
Q 2144 2226 2144 1888 
Q 2144 1454 1109 566 
Q 934 416 838 332 
z
" transform="scale(0.015625)"/>
     </defs>
     <use xlink:href="#DejaVuSans-3c4"/>
     <use xlink:href="#DejaVuSans-2082" x="60.205078"/>
     <use xlink:href="#DejaVuSans-20" x="100.292969"/>
     <use xlink:href="#DejaVuSans-28" x="132.080078"/>
     <use xlink:href="#DejaVuSans-69" x="171.09375"/>
     <use xlink:href="#DejaVuSans-6e" x="198.876953"/>
     <use xlink:href="#DejaVuSans-2e" x="262.255859"/>
     <use xlink:href="#DejaVuSans-6c" x="294.042969"/>
     <use xlink:href="#DejaVuSans-62" x="321.826172"/>
     <use xlink:href="#DejaVuSans-73" x="385.302734"/>
     <use xlink:href="#DejaVuSans-29" x="437.402344"/>
    </g>
   </g>
  </g>
  <g id="axis3d_3">
   <g id="line2d_18">
    <path d="M 364.543853 221.068861 
L 370.366762 93.911394 
" style="fill: none; stroke: #000000; stroke-width: 0.8; stroke-linecap: square"/>
   </g>
   <g id="xtick_16">
    <g id="line2d_19">
     <path d="M 363.74236 208.134641 
L 367.872773 209.320018 
" style="fill: none; stroke: #000000; stroke-width: 0.8; stroke-linecap: square"/>
    </g>
    <g id="text_18">
     <!-- −20 -->
     <g transform="translate(372.90074 213.542996) scale(0.1 -0.1)">
      <use xlink:href="#DejaVuSans-2212"/>
      <use xlink:href="#DejaVuSans-32" x="83.789062"/>
      <use xlink:href="#DejaVuSans-30" x="147.412109"/>
     </g>
    </g>
   </g>
   <g id="xtick_17">
    <g id="line2d_20">
     <path d="M 364.488196 191.671759 
L 368.643381 192.844211 
" style="fill: none; stroke: #000000; stroke-width: 0.8; stroke-linecap: square"/>
    </g>
    <g id="text_19">
     <!-- −15 -->
     <g transform="translate(373.758469 197.104038) scale(0.1 -0.1)">
      <use xlink:href="#DejaVuSans-2212"/>
      <use xlink:href="#DejaVuSans-31" x="83.789062"/>
      <use xlink:href="#DejaVuSans-35" x="147.412109"/>
     </g>
    </g>
   </g>
   <g id="xtick_18">
    <g id="line2d_21">
     <path d="M 365.242694 175.017675 
L 369.42295 176.17682 
" style="fill: none; stroke: #000000; stroke-width: 0.8; stroke-linecap: square"/>
    </g>
    <g id="text_20">
     <!-- −10 -->
     <g transform="translate(374.626137 180.474582) scale(0.1 -0.1)">
      <use xlink:href="#DejaVuSans-2212"/>
      <use xlink:href="#DejaVuSans-31" x="83.789062"/>
      <use xlink:href="#DejaVuSans-30" x="147.412109"/>
     </g>
    </g>
   </g>
   <g id="xtick_19">
    <g id="line2d_22">
     <path d="M 366.006006 158.169038 
L 370.211636 159.314484 
" style="fill: none; stroke: #000000; stroke-width: 0.8; stroke-linecap: square"/>
    </g>
    <g id="text_21">
     <!-- −5 -->
     <g transform="translate(378.685169 163.651296) scale(0.1 -0.1)">
      <use xlink:href="#DejaVuSans-2212"/>
      <use xlink:href="#DejaVuSans-35" x="83.789062"/>
     </g>
    </g>
   </g>
   <g id="xtick_20">
    <g id="line2d_23">
     <path d="M 366.778288 141.122418 
L 371.009602 142.253762 
" style="fill: none; stroke: #000000; stroke-width: 0.8; stroke-linecap: square"/>
    </g>
    <g id="text_22">
     <!-- 0 -->
     <g transform="translate(383.763086 146.630772) scale(0.1 -0.1)">
      <use xlink:href="#DejaVuSans-30"/>
     </g>
    </g>
   </g>
   <g id="xtick_21">
    <g id="line2d_24">
     <path d="M 367.559698 123.874305 
L 371.817011 124.991133 
" style="fill: none; stroke: #000000; stroke-width: 0.8; stroke-linecap: square"/>
    </g>
    <g id="text_23">
     <!-- 5 -->
     <g transform="translate(384.661633 129.40952) scale(0.1 -0.1)">
      <use xlink:href="#DejaVuSans-35"/>
     </g>
    </g>
   </g>
   <g id="xtick_22">
    <g id="line2d_25">
     <path d="M 368.3504 106.421106 
L 372.634032 107.52299 
" style="fill: none; stroke: #000000; stroke-width: 0.8; stroke-linecap: square"/>
    </g>
    <g id="text_24">
     <!-- 10 -->
     <g transform="translate(382.389589 111.98397) scale(0.1 -0.1)">
      <use xlink:href="#DejaVuSans-31"/>
      <use xlink:href="#DejaVuSans-30" x="63.623047"/>
     </g>
    </g>
   </g>
   <g id="text_25">
    <!-- τ₃ (in.lbs) -->
    <g transform="translate(409.470566 177.390407) rotate(-87.378092) scale(0.1 -0.1)">
     <defs>
      <path id="DejaVuSans-2083" d="M 1638 1388 
Q 1925 1332 2083 1161 
Q 2241 991 2241 735 
Q 2241 347 1944 138 
Q 1647 -71 1094 -71 
Q 916 -71 720 -38 
Q 525 -6 306 57 
L 306 435 
Q 469 351 655 310 
Q 841 269 1050 269 
Q 1391 269 1578 392 
Q 1766 516 1766 735 
Q 1766 966 1592 1085 
Q 1419 1204 1081 1204 
L 813 1204 
L 813 1541 
L 1106 1541 
Q 1400 1541 1551 1639 
Q 1703 1738 1703 1926 
Q 1703 2107 1547 2202 
Q 1391 2297 1094 2297 
Q 969 2297 809 2269 
Q 650 2241 397 2169 
L 397 2529 
Q 625 2582 825 2610 
Q 1025 2638 1197 2638 
Q 1647 2638 1911 2453 
Q 2175 2269 2175 1960 
Q 2175 1744 2034 1594 
Q 1894 1444 1638 1388 
z
" transform="scale(0.015625)"/>
     </defs>
     <use xlink:href="#DejaVuSans-3c4"/>
     <use xlink:href="#DejaVuSans-2083" x="60.205078"/>
     <use xlink:href="#DejaVuSans-20" x="100.292969"/>
     <use xlink:href="#DejaVuSans-28" x="132.080078"/>
     <use xlink:href="#DejaVuSans-69" x="171.09375"/>
     <use xlink:href="#DejaVuSans-6e" x="198.876953"/>
     <use xlink:href="#DejaVuSans-2e" x="262.255859"/>
     <use xlink:href="#DejaVuSans-6c" x="294.042969"/>
     <use xlink:href="#DejaVuSans-62" x="321.826172"/>
     <use xlink:href="#DejaVuSans-73" x="385.302734"/>
     <use xlink:href="#DejaVuSans-29" x="437.402344"/>
    </g>
   </g>
  </g>
  <g id="axes_1">
   <g id="line2d_26">
    <path d="M 144.09629 151.289657 
L 296.299012 195.260905 
" clip-path="url(#pd21b1e6b2c)" style="fill: none; stroke: #000000; stroke-linecap: square"/>
   </g>
   <g id="line2d_27">
    <path d="M 160.769202 189.032731 
L 249.32935 116.195248 
" clip-path="url(#pd21b1e6b2c)" style="fill: none; stroke: #000000; stroke-linecap: square"/>
   </g>
   <g id="line2d_28">
    <path d="M 191.509407 237.636754 
L 189.788464 124.833529 
" clip-path="url(#pd21b1e6b2c)" style="fill: none; stroke: #000000; stroke-linecap: square"/>
   </g>
   <g id="Poly3DCollection_1">
    <defs>
     <path id="mfb4fb3545c" d="M 258.420817 -125.452667 
L 324.789232 -170.064708 
L 284.976964 -181.240914 
z
" style="stroke: #0343df"/>
    </defs>
    <g clip-path="url(#pd21b1e6b2c)">
     <use xlink:href="#mfb4fb3545c" x="0" y="345.6" style="fill: #0343df; fill-opacity: 0.4; stroke: #0343df"/>
    </g>
   </g>
   <g id="text_26">
    <!-- Best of Inherently Controllable Capability Polytope -->
    <g transform="translate(79.25625 20.88) scale(0.12 -0.12)">
     <defs>
      <path id="DejaVuSans-42" d="M 1259 2228 
L 1259 519 
L 2272 519 
Q 2781 519 3026 730 
Q 3272 941 3272 1375 
Q 3272 1813 3026 2020 
Q 2781 2228 2272 2228 
L 1259 2228 
z
M 1259 4147 
L 1259 2741 
L 2194 2741 
Q 2656 2741 2882 2914 
Q 3109 3088 3109 3444 
Q 3109 3797 2882 3972 
Q 2656 4147 2194 4147 
L 1259 4147 
z
M 628 4666 
L 2241 4666 
Q 2963 4666 3353 4366 
Q 3744 4066 3744 3513 
Q 3744 3084 3544 2831 
Q 3344 2578 2956 2516 
Q 3422 2416 3680 2098 
Q 3938 1781 3938 1306 
Q 3938 681 3513 340 
Q 3088 0 2303 0 
L 628 0 
L 628 4666 
z
" transform="scale(0.015625)"/>
      <path id="DejaVuSans-65" d="M 3597 1894 
L 3597 1613 
L 953 1613 
Q 991 1019 1311 708 
Q 1631 397 2203 397 
Q 2534 397 2845 478 
Q 3156 559 3463 722 
L 3463 178 
Q 3153 47 2828 -22 
Q 2503 -91 2169 -91 
Q 1331 -91 842 396 
Q 353 884 353 1716 
Q 353 2575 817 3079 
Q 1281 3584 2069 3584 
Q 2775 3584 3186 3129 
Q 3597 2675 3597 1894 
z
M 3022 2063 
Q 3016 2534 2758 2815 
Q 2500 3097 2075 3097 
Q 1594 3097 1305 2825 
Q 1016 2553 972 2059 
L 3022 2063 
z
" transform="scale(0.015625)"/>
      <path id="DejaVuSans-74" d="M 1172 4494 
L 1172 3500 
L 2356 3500 
L 2356 3053 
L 1172 3053 
L 1172 1153 
Q 1172 725 1289 603 
Q 1406 481 1766 481 
L 2356 481 
L 2356 0 
L 1766 0 
Q 1100 0 847 248 
Q 594 497 594 1153 
L 594 3053 
L 172 3053 
L 172 3500 
L 594 3500 
L 594 4494 
L 1172 4494 
z
" transform="scale(0.015625)"/>
      <path id="DejaVuSans-6f" d="M 1959 3097 
Q 1497 3097 1228 2736 
Q 959 2375 959 1747 
Q 959 1119 1226 758 
Q 1494 397 1959 397 
Q 2419 397 2687 759 
Q 2956 1122 2956 1747 
Q 2956 2369 2687 2733 
Q 2419 3097 1959 3097 
z
M 1959 3584 
Q 2709 3584 3137 3096 
Q 3566 2609 3566 1747 
Q 3566 888 3137 398 
Q 2709 -91 1959 -91 
Q 1206 -91 779 398 
Q 353 888 353 1747 
Q 353 2609 779 3096 
Q 1206 3584 1959 3584 
z
" transform="scale(0.015625)"/>
      <path id="DejaVuSans-66" d="M 2375 4863 
L 2375 4384 
L 1825 4384 
Q 1516 4384 1395 4259 
Q 1275 4134 1275 3809 
L 1275 3500 
L 2222 3500 
L 2222 3053 
L 1275 3053 
L 1275 0 
L 697 0 
L 697 3053 
L 147 3053 
L 147 3500 
L 697 3500 
L 697 3744 
Q 697 4328 969 4595 
Q 1241 4863 1831 4863 
L 2375 4863 
z
" transform="scale(0.015625)"/>
      <path id="DejaVuSans-49" d="M 628 4666 
L 1259 4666 
L 1259 0 
L 628 0 
L 628 4666 
z
" transform="scale(0.015625)"/>
      <path id="DejaVuSans-68" d="M 3513 2113 
L 3513 0 
L 2938 0 
L 2938 2094 
Q 2938 2591 2744 2837 
Q 2550 3084 2163 3084 
Q 1697 3084 1428 2787 
Q 1159 2491 1159 1978 
L 1159 0 
L 581 0 
L 581 4863 
L 1159 4863 
L 1159 2956 
Q 1366 3272 1645 3428 
Q 1925 3584 2291 3584 
Q 2894 3584 3203 3211 
Q 3513 2838 3513 2113 
z
" transform="scale(0.015625)"/>
      <path id="DejaVuSans-72" d="M 2631 2963 
Q 2534 3019 2420 3045 
Q 2306 3072 2169 3072 
Q 1681 3072 1420 2755 
Q 1159 2438 1159 1844 
L 1159 0 
L 581 0 
L 581 3500 
L 1159 3500 
L 1159 2956 
Q 1341 3275 1631 3429 
Q 1922 3584 2338 3584 
Q 2397 3584 2469 3576 
Q 2541 3569 2628 3553 
L 2631 2963 
z
" transform="scale(0.015625)"/>
      <path id="DejaVuSans-79" d="M 2059 -325 
Q 1816 -950 1584 -1140 
Q 1353 -1331 966 -1331 
L 506 -1331 
L 506 -850 
L 844 -850 
Q 1081 -850 1212 -737 
Q 1344 -625 1503 -206 
L 1606 56 
L 191 3500 
L 800 3500 
L 1894 763 
L 2988 3500 
L 3597 3500 
L 2059 -325 
z
" transform="scale(0.015625)"/>
      <path id="DejaVuSans-43" d="M 4122 4306 
L 4122 3641 
Q 3803 3938 3442 4084 
Q 3081 4231 2675 4231 
Q 1875 4231 1450 3742 
Q 1025 3253 1025 2328 
Q 1025 1406 1450 917 
Q 1875 428 2675 428 
Q 3081 428 3442 575 
Q 3803 722 4122 1019 
L 4122 359 
Q 3791 134 3420 21 
Q 3050 -91 2638 -91 
Q 1578 -91 968 557 
Q 359 1206 359 2328 
Q 359 3453 968 4101 
Q 1578 4750 2638 4750 
Q 3056 4750 3426 4639 
Q 3797 4528 4122 4306 
z
" transform="scale(0.015625)"/>
      <path id="DejaVuSans-61" d="M 2194 1759 
Q 1497 1759 1228 1600 
Q 959 1441 959 1056 
Q 959 750 1161 570 
Q 1363 391 1709 391 
Q 2188 391 2477 730 
Q 2766 1069 2766 1631 
L 2766 1759 
L 2194 1759 
z
M 3341 1997 
L 3341 0 
L 2766 0 
L 2766 531 
Q 2569 213 2275 61 
Q 1981 -91 1556 -91 
Q 1019 -91 701 211 
Q 384 513 384 1019 
Q 384 1609 779 1909 
Q 1175 2209 1959 2209 
L 2766 2209 
L 2766 2266 
Q 2766 2663 2505 2880 
Q 2244 3097 1772 3097 
Q 1472 3097 1187 3025 
Q 903 2953 641 2809 
L 641 3341 
Q 956 3463 1253 3523 
Q 1550 3584 1831 3584 
Q 2591 3584 2966 3190 
Q 3341 2797 3341 1997 
z
" transform="scale(0.015625)"/>
      <path id="DejaVuSans-70" d="M 1159 525 
L 1159 -1331 
L 581 -1331 
L 581 3500 
L 1159 3500 
L 1159 2969 
Q 1341 3281 1617 3432 
Q 1894 3584 2278 3584 
Q 2916 3584 3314 3078 
Q 3713 2572 3713 1747 
Q 3713 922 3314 415 
Q 2916 -91 2278 -91 
Q 1894 -91 1617 61 
Q 1341 213 1159 525 
z
M 3116 1747 
Q 3116 2381 2855 2742 
Q 2594 3103 2138 3103 
Q 1681 3103 1420 2742 
Q 1159 2381 1159 1747 
Q 1159 1113 1420 752 
Q 1681 391 2138 391 
Q 2594 391 2855 752 
Q 3116 1113 3116 1747 
z
" transform="scale(0.015625)"/>
      <path id="DejaVuSans-50" d="M 1259 4147 
L 1259 2394 
L 2053 2394 
Q 2494 2394 2734 2622 
Q 2975 2850 2975 3272 
Q 2975 3691 2734 3919 
Q 2494 4147 2053 4147 
L 1259 4147 
z
M 628 4666 
L 2053 4666 
Q 2838 4666 3239 4311 
Q 3641 3956 3641 3272 
Q 3641 2581 3239 2228 
Q 2838 1875 2053 1875 
L 1259 1875 
L 1259 0 
L 628 0 
L 628 4666 
z
" transform="scale(0.015625)"/>
     </defs>
     <use xlink:href="#DejaVuSans-42"/>
     <use xlink:href="#DejaVuSans-65" x="68.603516"/>
     <use xlink:href="#DejaVuSans-73" x="130.126953"/>
     <use xlink:href="#DejaVuSans-74" x="182.226562"/>
     <use xlink:href="#DejaVuSans-20" x="221.435547"/>
     <use xlink:href="#DejaVuSans-6f" x="253.222656"/>
     <use xlink:href="#DejaVuSans-66" x="314.404297"/>
     <use xlink:href="#DejaVuSans-20" x="349.609375"/>
     <use xlink:href="#DejaVuSans-49" x="381.396484"/>
     <use xlink:href="#DejaVuSans-6e" x="410.888672"/>
     <use xlink:href="#DejaVuSans-68" x="474.267578"/>
     <use xlink:href="#DejaVuSans-65" x="537.646484"/>
     <use xlink:href="#DejaVuSans-72" x="599.169922"/>
     <use xlink:href="#DejaVuSans-65" x="638.033203"/>
     <use xlink:href="#DejaVuSans-6e" x="699.556641"/>
     <use xlink:href="#DejaVuSans-74" x="762.935547"/>
     <use xlink:href="#DejaVuSans-6c" x="802.144531"/>
     <use xlink:href="#DejaVuSans-79" x="829.927734"/>
     <use xlink:href="#DejaVuSans-20" x="889.107422"/>
     <use xlink:href="#DejaVuSans-43" x="920.894531"/>
     <use xlink:href="#DejaVuSans-6f" x="990.71875"/>
     <use xlink:href="#DejaVuSans-6e" x="1051.900391"/>
     <use xlink:href="#DejaVuSans-74" x="1115.279297"/>
     <use xlink:href="#DejaVuSans-72" x="1154.488281"/>
     <use xlink:href="#DejaVuSans-6f" x="1193.351562"/>
     <use xlink:href="#DejaVuSans-6c" x="1254.533203"/>
     <use xlink:href="#DejaVuSans-6c" x="1282.316406"/>
     <use xlink:href="#DejaVuSans-61" x="1310.099609"/>
     <use xlink:href="#DejaVuSans-62" x="1371.378906"/>
     <use xlink:href="#DejaVuSans-6c" x="1434.855469"/>
     <use xlink:href="#DejaVuSans-65" x="1462.638672"/>
     <use xlink:href="#DejaVuSans-20" x="1524.162109"/>
     <use xlink:href="#DejaVuSans-43" x="1555.949219"/>
     <use xlink:href="#DejaVuSans-61" x="1625.773438"/>
     <use xlink:href="#DejaVuSans-70" x="1687.052734"/>
     <use xlink:href="#DejaVuSans-61" x="1750.529297"/>
     <use xlink:href="#DejaVuSans-62" x="1811.808594"/>
     <use xlink:href="#DejaVuSans-69" x="1875.285156"/>
     <use xlink:href="#DejaVuSans-6c" x="1903.068359"/>
     <use xlink:href="#DejaVuSans-69" x="1930.851562"/>
     <use xlink:href="#DejaVuSans-74" x="1958.634766"/>
     <use xlink:href="#DejaVuSans-79" x="1997.84375"/>
     <use xlink:href="#DejaVuSans-20" x="2057.023438"/>
     <use xlink:href="#DejaVuSans-50" x="2088.810547"/>
     <use xlink:href="#DejaVuSans-6f" x="2145.488281"/>
     <use xlink:href="#DejaVuSans-6c" x="2206.669922"/>
     <use xlink:href="#DejaVuSans-79" x="2234.453125"/>
     <use xlink:href="#DejaVuSans-74" x="2293.632812"/>
     <use xlink:href="#DejaVuSans-6f" x="2332.841797"/>
     <use xlink:href="#DejaVuSans-70" x="2394.023438"/>
     <use xlink:href="#DejaVuSans-65" x="2457.5"/>
    </g>
   </g>
   <g id="Poly3DCollection_2">
    <defs>
     <path id="mf29bc57f69" d="M 258.420817 -125.452667 
L 219.343558 -137.159662 
L 284.976964 -181.240914 
z
" style="stroke: #0343df"/>
    </defs>
    <g clip-path="url(#pd21b1e6b2c)">
     <use xlink:href="#mf29bc57f69" x="0" y="345.6" style="fill: #0343df; fill-opacity: 0.4; stroke: #0343df"/>
    </g>
   </g>
   <g id="Poly3DCollection_3">
    <defs>
     <path id="mda5eeaaacf" d="M 258.420817 -125.452667 
L 219.343558 -137.159662 
L 210.37872 -111.967211 
z
" style="stroke: #0343df"/>
    </defs>
    <g clip-path="url(#pd21b1e6b2c)">
     <use xlink:href="#mda5eeaaacf" x="0" y="345.6" style="fill: #0343df; fill-opacity: 0.4; stroke: #0343df"/>
    </g>
   </g>
   <g id="Poly3DCollection_4">
    <defs>
     <path id="mb16cf5b2ce" d="M 324.789232 -170.064708 
L 218.807499 -238.027048 
L 284.976964 -181.240914 
z
" style="stroke: #0343df"/>
    </defs>
    <g clip-path="url(#pd21b1e6b2c)">
     <use xlink:href="#mb16cf5b2ce" x="0" y="345.6" style="fill: #0343df; fill-opacity: 0.4; stroke: #0343df"/>
    </g>
   </g>
   <g id="Poly3DCollection_5">
    <defs>
     <path id="m9f5a55c193" d="M 219.343558 -137.159662 
L 218.807499 -238.027048 
L 284.976964 -181.240914 
z
" style="stroke: #0343df"/>
    </defs>
    <g clip-path="url(#pd21b1e6b2c)">
     <use xlink:href="#m9f5a55c193" x="0" y="345.6" style="fill: #0343df; fill-opacity: 0.4; stroke: #0343df"/>
    </g>
   </g>
   <g id="Poly3DCollection_6">
    <defs>
     <path id="mda79c91a4e" d="M 219.343558 -137.159662 
L 218.807499 -238.027048 
L 150.717546 -192.397467 
z
" style="stroke: #0343df"/>
    </defs>
    <g clip-path="url(#pd21b1e6b2c)">
     <use xlink:href="#mda79c91a4e" x="0" y="345.6" style="fill: #0343df; fill-opacity: 0.4; stroke: #0343df"/>
    </g>
   </g>
   <g id="Poly3DCollection_7">
    <defs>
     <path id="m3e3200a84b" d="M 258.420817 -125.452667 
L 324.789232 -170.064708 
L 318.430623 -145.437413 
z
" style="stroke: #0343df"/>
    </defs>
    <g clip-path="url(#pd21b1e6b2c)">
     <use xlink:href="#m3e3200a84b" x="0" y="345.6" style="fill: #0343df; fill-opacity: 0.4; stroke: #0343df"/>
    </g>
   </g>
   <g id="Poly3DCollection_8">
    <defs>
     <path id="mc734f95b36" d="M 258.420817 -125.452667 
L 250.351207 -99.654812 
L 318.430623 -145.437413 
z
" style="stroke: #0343df"/>
    </defs>
    <g clip-path="url(#pd21b1e6b2c)">
     <use xlink:href="#mc734f95b36" x="0" y="345.6" style="fill: #0343df; fill-opacity: 0.4; stroke: #0343df"/>
    </g>
   </g>
   <g id="Poly3DCollection_9">
    <defs>
     <path id="m5f99620ab4" d="M 258.420817 -125.452667 
L 250.351207 -99.654812 
L 210.37872 -111.967211 
z
" style="stroke: #0343df"/>
    </defs>
    <g clip-path="url(#pd21b1e6b2c)">
     <use xlink:href="#m5f99620ab4" x="0" y="345.6" style="fill: #0343df; fill-opacity: 0.4; stroke: #0343df"/>
    </g>
   </g>
   <g id="Poly3DCollection_10">
    <defs>
     <path id="m577e2e12c8" d="M 324.789232 -170.064708 
L 218.807499 -238.027048 
L 259.277575 -227.132931 
z
" style="stroke: #0343df"/>
    </defs>
    <g clip-path="url(#pd21b1e6b2c)">
     <use xlink:href="#m577e2e12c8" x="0" y="345.6" style="fill: #0343df; fill-opacity: 0.4; stroke: #0343df"/>
    </g>
   </g>
   <g id="Path3DCollection_1">
    <defs>
     <path id="mae9b13d591" d="M 0 2.236068 
C 0.593012 2.236068 1.161816 2.000462 1.581139 1.581139 
C 2.000462 1.161816 2.236068 0.593012 2.236068 0 
C 2.236068 -0.593012 2.000462 -1.161816 1.581139 -1.581139 
C 1.161816 -2.000462 0.593012 -2.236068 0 -2.236068 
C -0.593012 -2.236068 -1.161816 -2.000462 -1.581139 -1.581139 
C -2.000462 -1.161816 -2.236068 -0.593012 -2.236068 0 
C -2.236068 0.593012 -2.000462 1.161816 -1.581139 1.581139 
C -1.161816 2.000462 -0.593012 2.236068 0 2.236068 
z
" style="stroke: #0cff0c"/>
    </defs>
    <g clip-path="url(#pd21b1e6b2c)">
     <use xlink:href="#mae9b13d591" x="199.103914" y="128.945943" style="fill: #0cff0c; stroke: #0cff0c"/>
    </g>
   </g>
   <g id="Path3DCollection_2">
    <g clip-path="url(#pd21b1e6b2c)">
     <use xlink:href="#mae9b13d591" x="149.524539" y="164.267781" style="fill: #0cff0c; stroke: #0cff0c"/>
    </g>
   </g>
   <g id="Path3DCollection_3">
    <g clip-path="url(#pd21b1e6b2c)">
     <use xlink:href="#mae9b13d591" x="264.043095" y="133.295525" style="fill: #0cff0c; stroke: #0cff0c"/>
    </g>
   </g>
   <g id="Path3DCollection_4">
    <g clip-path="url(#pd21b1e6b2c)">
     <use xlink:href="#mae9b13d591" x="159.653432" y="170.039357" style="fill: #0cff0c; stroke: #0cff0c"/>
    </g>
   </g>
   <g id="Poly3DCollection_11">
    <defs>
     <path id="m4fb712c456" d="M 139.611018 -167.717605 
L 250.351207 -99.654812 
L 210.37872 -111.967211 
z
" style="stroke: #0343df"/>
    </defs>
    <g clip-path="url(#pd21b1e6b2c)">
     <use xlink:href="#m4fb712c456" x="0" y="345.6" style="fill: #0343df; fill-opacity: 0.4; stroke: #0343df"/>
    </g>
   </g>
   <g id="Poly3DCollection_12">
    <defs>
     <path id="m92cd89906b" d="M 139.611018 -167.717605 
L 218.807499 -238.027048 
L 209.503063 -214.572564 
z
" style="stroke: #0343df"/>
    </defs>
    <g clip-path="url(#pd21b1e6b2c)">
     <use xlink:href="#m92cd89906b" x="0" y="345.6" style="fill: #0343df; fill-opacity: 0.4; stroke: #0343df"/>
    </g>
   </g>
   <g id="Poly3DCollection_13">
    <defs>
     <path id="ma34613aba1" d="M 139.611018 -167.717605 
L 218.807499 -238.027048 
L 150.717546 -192.397467 
z
" style="stroke: #0343df"/>
    </defs>
    <g clip-path="url(#pd21b1e6b2c)">
     <use xlink:href="#ma34613aba1" x="0" y="345.6" style="fill: #0343df; fill-opacity: 0.4; stroke: #0343df"/>
    </g>
   </g>
   <g id="Poly3DCollection_14">
    <defs>
     <path id="m794518228b" d="M 219.343558 -137.159662 
L 139.611018 -167.717605 
L 210.37872 -111.967211 
z
" style="stroke: #0343df"/>
    </defs>
    <g clip-path="url(#pd21b1e6b2c)">
     <use xlink:href="#m794518228b" x="0" y="345.6" style="fill: #0343df; fill-opacity: 0.4; stroke: #0343df"/>
    </g>
   </g>
   <g id="Poly3DCollection_15">
    <defs>
     <path id="meaca6aa02f" d="M 219.343558 -137.159662 
L 139.611018 -167.717605 
L 150.717546 -192.397467 
z
" style="stroke: #0343df"/>
    </defs>
    <g clip-path="url(#pd21b1e6b2c)">
     <use xlink:href="#meaca6aa02f" x="0" y="345.6" style="fill: #0343df; fill-opacity: 0.4; stroke: #0343df"/>
    </g>
   </g>
   <g id="Poly3DCollection_16">
    <defs>
     <path id="m3853470b6f" d="M 250.934109 -203.094226 
L 218.807499 -238.027048 
L 259.277575 -227.132931 
z
" style="stroke: #0343df"/>
    </defs>
    <g clip-path="url(#pd21b1e6b2c)">
     <use xlink:href="#m3853470b6f" x="0" y="345.6" style="fill: #0343df; fill-opacity: 0.4; stroke: #0343df"/>
    </g>
   </g>
   <g id="Poly3DCollection_17">
    <defs>
     <path id="m49c157e462" d="M 250.934109 -203.094226 
L 218.807499 -238.027048 
L 209.503063 -214.572564 
z
" style="stroke: #0343df"/>
    </defs>
    <g clip-path="url(#pd21b1e6b2c)">
     <use xlink:href="#m49c157e462" x="0" y="345.6" style="fill: #0343df; fill-opacity: 0.4; stroke: #0343df"/>
    </g>
   </g>
   <g id="Poly3DCollection_18">
    <defs>
     <path id="m1b8cfcc711" d="M 250.934109 -203.094226 
L 324.789232 -170.064708 
L 259.277575 -227.132931 
z
" style="stroke: #0343df"/>
    </defs>
    <g clip-path="url(#pd21b1e6b2c)">
     <use xlink:href="#m1b8cfcc711" x="0" y="345.6" style="fill: #0343df; fill-opacity: 0.4; stroke: #0343df"/>
    </g>
   </g>
   <g id="Poly3DCollection_19">
    <defs>
     <path id="m19d17a9514" d="M 250.934109 -203.094226 
L 324.789232 -170.064708 
L 318.430623 -145.437413 
z
" style="stroke: #0343df"/>
    </defs>
    <g clip-path="url(#pd21b1e6b2c)">
     <use xlink:href="#m19d17a9514" x="0" y="345.6" style="fill: #0343df; fill-opacity: 0.4; stroke: #0343df"/>
    </g>
   </g>
   <g id="Poly3DCollection_20">
    <defs>
     <path id="mdd09c52237" d="M 250.351207 -99.654812 
L 250.934109 -203.094226 
L 318.430623 -145.437413 
z
" style="stroke: #0343df"/>
    </defs>
    <g clip-path="url(#pd21b1e6b2c)">
     <use xlink:href="#mdd09c52237" x="0" y="345.6" style="fill: #0343df; fill-opacity: 0.4; stroke: #0343df"/>
    </g>
   </g>
   <g id="Poly3DCollection_21">
    <defs>
     <path id="m1740c686da" d="M 139.611018 -167.717605 
L 250.934109 -203.094226 
L 209.503063 -214.572564 
z
" style="stroke: #0343df"/>
    </defs>
    <g clip-path="url(#pd21b1e6b2c)">
     <use xlink:href="#m1740c686da" x="0" y="345.6" style="fill: #0343df; fill-opacity: 0.4; stroke: #0343df"/>
    </g>
   </g>
   <g id="Path3DCollection_5">
    <defs>
     <path id="C0_0_47b3aa530c" d="M 0 2.236068 
C 0.593012 2.236068 1.161816 2.000462 1.581139 1.581139 
C 2.000462 1.161816 2.236068 0.593012 2.236068 -0 
C 2.236068 -0.593012 2.000462 -1.161816 1.581139 -1.581139 
C 1.161816 -2.000462 0.593012 -2.236068 0 -2.236068 
C -0.593012 -2.236068 -1.161816 -2.000462 -1.581139 -1.581139 
C -2.000462 -1.161816 -2.236068 -0.593012 -2.236068 0 
C -2.236068 0.593012 -2.000462 1.161816 -1.581139 1.581139 
C -1.161816 2.000462 -0.593012 2.236068 0 2.236068 
z
"/>
    </defs>
    <g clip-path="url(#pd21b1e6b2c)">
     <use xlink:href="#C0_0_47b3aa530c" x="284.976964" y="164.359086" style="fill: #0343df; fill-opacity: 0.4; stroke: #0343df; stroke-opacity: 0.4"/>
    </g>
    <g clip-path="url(#pd21b1e6b2c)">
     <use xlink:href="#C0_0_47b3aa530c" x="219.343558" y="208.440338" style="fill: #0343df; fill-opacity: 0.4; stroke: #0343df; stroke-opacity: 0.4"/>
    </g>
    <g clip-path="url(#pd21b1e6b2c)">
     <use xlink:href="#C0_0_47b3aa530c" x="324.789232" y="175.535292" style="fill: #0343df; fill-opacity: 0.4; stroke: #0343df; stroke-opacity: 0.4"/>
    </g>
    <g clip-path="url(#pd21b1e6b2c)">
     <use xlink:href="#C0_0_47b3aa530c" x="258.420817" y="220.147333" style="fill: #0343df; fill-opacity: 0.4; stroke: #0343df; stroke-opacity: 0.4"/>
    </g>
    <g clip-path="url(#pd21b1e6b2c)">
     <use xlink:href="#C0_0_47b3aa530c" x="277.684952" y="188.409009" style="fill: #0343df; fill-opacity: 0.4; stroke: #0343df; stroke-opacity: 0.4"/>
    </g>
    <g clip-path="url(#pd21b1e6b2c)">
     <use xlink:href="#C0_0_47b3aa530c" x="210.37872" y="233.632789" style="fill: #0343df; fill-opacity: 0.4; stroke: #0343df; stroke-opacity: 0.4"/>
    </g>
    <g clip-path="url(#pd21b1e6b2c)">
     <use xlink:href="#C0_0_47b3aa530c" x="218.807499" y="107.572952" style="fill: #0343df; fill-opacity: 0.4; stroke: #0343df; stroke-opacity: 0.4"/>
    </g>
    <g clip-path="url(#pd21b1e6b2c)">
     <use xlink:href="#C0_0_47b3aa530c" x="150.717546" y="153.202533" style="fill: #0343df; fill-opacity: 0.4; stroke: #0343df; stroke-opacity: 0.4"/>
    </g>
    <g clip-path="url(#pd21b1e6b2c)">
     <use xlink:href="#C0_0_47b3aa530c" x="318.430623" y="200.162587" style="fill: #0343df; fill-opacity: 0.4; stroke: #0343df; stroke-opacity: 0.4"/>
    </g>
    <g clip-path="url(#pd21b1e6b2c)">
     <use xlink:href="#C0_0_47b3aa530c" x="250.351207" y="245.945188" style="fill: #0343df; fill-opacity: 0.4; stroke: #0343df; stroke-opacity: 0.4"/>
    </g>
    <g clip-path="url(#pd21b1e6b2c)">
     <use xlink:href="#C0_0_47b3aa530c" x="259.277575" y="118.467069" style="fill: #0343df; fill-opacity: 0.4; stroke: #0343df; stroke-opacity: 0.4"/>
    </g>
    <g clip-path="url(#pd21b1e6b2c)">
     <use xlink:href="#C0_0_47b3aa530c" x="190.396149" y="164.665651" style="fill: #0343df; fill-opacity: 0.4; stroke: #0343df; stroke-opacity: 0.4"/>
    </g>
    <g clip-path="url(#pd21b1e6b2c)">
     <use xlink:href="#C0_0_47b3aa530c" x="209.503063" y="131.027436" style="fill: #0343df; fill-opacity: 0.4; stroke: #0343df; stroke-opacity: 0.4"/>
    </g>
    <g clip-path="url(#pd21b1e6b2c)">
     <use xlink:href="#C0_0_47b3aa530c" x="139.611018" y="177.882395" style="fill: #0343df; fill-opacity: 0.4; stroke: #0343df; stroke-opacity: 0.4"/>
    </g>
    <g clip-path="url(#pd21b1e6b2c)">
     <use xlink:href="#C0_0_47b3aa530c" x="250.934109" y="142.505774" style="fill: #0343df; fill-opacity: 0.4; stroke: #0343df; stroke-opacity: 0.4"/>
    </g>
    <g clip-path="url(#pd21b1e6b2c)">
     <use xlink:href="#C0_0_47b3aa530c" x="180.207873" y="189.960893" style="fill: #0343df; fill-opacity: 0.4; stroke: #0343df; stroke-opacity: 0.4"/>
    </g>
   </g>
   <g id="Poly3DCollection_22">
    <defs>
     <path id="m33fec5f3c8" d="M 250.351207 -99.654812 
L 250.934109 -203.094226 
L 180.207873 -155.639107 
z
" style="stroke: #0343df"/>
    </defs>
    <g clip-path="url(#pd21b1e6b2c)">
     <use xlink:href="#m33fec5f3c8" x="0" y="345.6" style="fill: #0343df; fill-opacity: 0.4; stroke: #0343df"/>
    </g>
   </g>
   <g id="Poly3DCollection_23">
    <defs>
     <path id="m398d508324" d="M 139.611018 -167.717605 
L 250.351207 -99.654812 
L 180.207873 -155.639107 
z
" style="stroke: #0343df"/>
    </defs>
    <g clip-path="url(#pd21b1e6b2c)">
     <use xlink:href="#m398d508324" x="0" y="345.6" style="fill: #0343df; fill-opacity: 0.4; stroke: #0343df"/>
    </g>
   </g>
   <g id="Poly3DCollection_24">
    <defs>
     <path id="mb195d6410f" d="M 139.611018 -167.717605 
L 250.934109 -203.094226 
L 180.207873 -155.639107 
z
" style="stroke: #0343df"/>
    </defs>
    <g clip-path="url(#pd21b1e6b2c)">
     <use xlink:href="#mb195d6410f" x="0" y="345.6" style="fill: #0343df; fill-opacity: 0.4; stroke: #0343df"/>
    </g>
   </g>
  </g>
 </g>
 <defs>
  <clipPath id="pd21b1e6b2c">
   <rect x="76.44" y="26.88" width="307.92" height="307.92"/>
  </clipPath>
 </defs>
</svg>
