<?xml version="1.0" encoding="utf-8" standalone="no"?>
<!DOCTYPE svg PUBLIC "-//W3C//DTD SVG 1.1//EN"
  "http://www.w3.org/Graphics/SVG/1.1/DTD/svg11.dtd">
<svg xmlns:xlink="http://www.w3.org/1999/xlink" width="460.8pt" height="345.6pt" viewBox="0 0 460.8 345.6" xmlns="http://www.w3.org/2000/svg" version="1.1">
 <metadata>
  <rdf:RDF xmlns:dc="http://purl.org/dc/elements/1.1/" xmlns:cc="http://creativecommons.org/ns#" xmlns:rdf="http://www.w3.org/1999/02/22-rdf-syntax-ns#">
   <cc:Work>
    <dc:type rdf:resource="http://purl.org/dc/dcmitype/StillImage"/>
    <dc:date>2025-11-03T10:38:32.176430</dc:date>
    <dc:format>image/svg+xml</dc:format>
    <dc:creator>
     <cc:Agent>
      <dc:title>Matplotlib v3.8.1, https://matplotlib.org/</dc:title>
     </cc:Agent>
    </dc:creator>
   </cc:Work>
  </rdf:RDF>
 </metadata>
 <defs>
  <style type="text/css">*{stroke-linejoin: round; stroke-linecap: butt}</style>
 </defs>
 <g id="figure_1">
  <g id="patch_1">
   <path d="M 0 345.6 
L 460.8 345.6 
L 460.8 0 
L 0 0 
z
" style="fill: #ffffff"/>
  </g>
  <g id="patch_2">
   <path d="M 76.44 334.8 
L 384.36 334.8 
L 384.36 26.88 
L 76.44 26.88 
z
" style="fill: #ffffff"/>
  </g>
  <g id="pane3d_1">
   <g id="patch_3">
    <path d="M 99.690083 258.876796 
L 201.375324 173.642211 
L 199.961801 50.718703 
L 93.410398 128.475064 
" style="fill: #f2f2f2; opacity: 0.5; stroke: #f2f2f2; stroke-linejoin: miter"/>
   </g>
  </g>
  <g id="pane3d_2">
   <g id="patch_4">
    <path d="M 201.375324 173.642211 
L 364.543853 221.068861 
L 370.366762 93.911394 
L 199.961801 50.718703 
" style="fill: #e6e6e6; opacity: 0.5; stroke: #e6e6e6; stroke-linejoin: miter"/>
   </g>
  </g>
  <g id="pane3d_3">
   <g id="patch_5">
    <path d="M 99.690083 258.876796 
L 272.656694 315.367691 
L 364.543853 221.068861 
L 201.375324 173.642211 
" style="fill: #ececec; opacity: 0.5; stroke: #ececec; stroke-linejoin: miter"/>
   </g>
  </g>
  <g id="grid3d_1">
   <g id="Line3DCollection_1">
    <path d="M 108.776683 261.844479 
L 209.98312 176.144158 
L 208.93339 52.992739 
" style="fill: none; stroke: #b0b0b0; stroke-width: 0.8"/>
    <path d="M 128.736922 268.363494 
L 228.877549 181.636022 
L 228.633356 57.986107 
" style="fill: none; stroke: #b0b0b0; stroke-width: 0.8"/>
    <path d="M 148.947489 274.964265 
L 247.989303 187.191055 
L 248.569707 63.039391 
" style="fill: none; stroke: #b0b0b0; stroke-width: 0.8"/>
    <path d="M 169.413122 281.64834 
L 267.322153 192.810351 
L 268.746724 68.153676 
" style="fill: none; stroke: #b0b0b0; stroke-width: 0.8"/>
    <path d="M 190.138681 288.417308 
L 286.879959 198.495033 
L 289.168789 73.330074 
" style="fill: none; stroke: #b0b0b0; stroke-width: 0.8"/>
    <path d="M 211.129148 295.272794 
L 306.66667 204.246249 
L 309.840394 78.569724 
" style="fill: none; stroke: #b0b0b0; stroke-width: 0.8"/>
    <path d="M 232.389637 302.21647 
L 326.686328 210.065173 
L 330.766143 83.873791 
" style="fill: none; stroke: #b0b0b0; stroke-width: 0.8"/>
    <path d="M 253.92539 309.250047 
L 346.943071 215.953009 
L 351.950749 89.243471 
" style="fill: none; stroke: #b0b0b0; stroke-width: 0.8"/>
   </g>
  </g>
  <g id="grid3d_2">
   <g id="Line3DCollection_2">
    <path d="M 101.373993 122.663596 
L 107.263326 252.528754 
L 279.528218 308.315816 
" style="fill: none; stroke: #b0b0b0; stroke-width: 0.8"/>
    <path d="M 117.041072 111.230475 
L 122.174983 240.029507 
L 293.044973 294.444301 
" style="fill: none; stroke: #b0b0b0; stroke-width: 0.8"/>
    <path d="M 132.318065 100.082022 
L 136.731389 227.828039 
L 306.222816 280.920592 
" style="fill: none; stroke: #b0b0b0; stroke-width: 0.8"/>
    <path d="M 147.21936 89.207735 
L 150.945089 215.913834 
L 319.074335 267.731772 
" style="fill: none; stroke: #b0b0b0; stroke-width: 0.8"/>
    <path d="M 161.758649 78.597624 
L 164.828044 204.276866 
L 331.611504 254.865552 
" style="fill: none; stroke: #b0b0b0; stroke-width: 0.8"/>
    <path d="M 175.948965 68.242178 
L 178.391668 192.907568 
L 343.845716 242.310241 
" style="fill: none; stroke: #b0b0b0; stroke-width: 0.8"/>
    <path d="M 189.802722 58.132337 
L 191.646851 181.79681 
L 355.787823 230.054702 
" style="fill: none; stroke: #b0b0b0; stroke-width: 0.8"/>
   </g>
  </g>
  <g id="grid3d_3">
   <g id="Line3DCollection_3">
    <path d="M 364.779894 215.914313 
L 201.317908 168.649192 
L 99.435937 253.599281 
" style="fill: none; stroke: #b0b0b0; stroke-width: 0.8"/>
    <path d="M 365.466234 200.926401 
L 201.151016 154.135815 
L 98.696757 238.249722 
" style="fill: none; stroke: #b0b0b0; stroke-width: 0.8"/>
    <path d="M 366.159848 185.77966 
L 200.982439 139.475979 
L 97.949445 222.731304 
" style="fill: none; stroke: #b0b0b0; stroke-width: 0.8"/>
    <path d="M 366.86085 170.471551 
L 200.812153 124.667455 
L 97.193866 207.041226 
" style="fill: none; stroke: #b0b0b0; stroke-width: 0.8"/>
    <path d="M 367.569361 154.999482 
L 200.640131 109.70797 
L 96.429883 191.176624 
" style="fill: none; stroke: #b0b0b0; stroke-width: 0.8"/>
    <path d="M 368.285502 139.360803 
L 200.466346 94.595203 
L 95.657355 175.13457 
" style="fill: none; stroke: #b0b0b0; stroke-width: 0.8"/>
    <path d="M 369.009396 123.55281 
L 200.290772 79.326786 
L 94.876137 158.912069 
" style="fill: none; stroke: #b0b0b0; stroke-width: 0.8"/>
    <path d="M 369.74117 107.572738 
L 200.113379 63.900303 
L 94.086081 142.506059 
" style="fill: none; stroke: #b0b0b0; stroke-width: 0.8"/>
   </g>
  </g>
  <g id="axis3d_1">
   <g id="line2d_1">
    <path d="M 99.690083 258.876796 
L 272.656694 315.367691 
" style="fill: none; stroke: #000000; stroke-width: 0.8; stroke-linecap: square"/>
   </g>
   <g id="xtick_1">
    <g id="line2d_2">
     <path d="M 109.657952 261.098232 
L 107.010365 263.340175 
" style="fill: none; stroke: #000000; stroke-width: 0.8; stroke-linecap: square"/>
    </g>
    <g id="text_1">
     <!-- −25 -->
     <g transform="translate(90.697902 285.137418) scale(0.1 -0.1)">
      <defs>
       <path id="DejaVuSans-2212" d="M 678 2272 
L 4684 2272 
L 4684 1741 
L 678 1741 
L 678 2272 
z
" transform="scale(0.015625)"/>
       <path id="DejaVuSans-32" d="M 1228 531 
L 3431 531 
L 3431 0 
L 469 0 
L 469 531 
Q 828 903 1448 1529 
Q 2069 2156 2228 2338 
Q 2531 2678 2651 2914 
Q 2772 3150 2772 3378 
Q 2772 3750 2511 3984 
Q 2250 4219 1831 4219 
Q 1534 4219 1204 4116 
Q 875 4013 500 3803 
L 500 4441 
Q 881 4594 1212 4672 
Q 1544 4750 1819 4750 
Q 2544 4750 2975 4387 
Q 3406 4025 3406 3419 
Q 3406 3131 3298 2873 
Q 3191 2616 2906 2266 
Q 2828 2175 2409 1742 
Q 1991 1309 1228 531 
z
" transform="scale(0.015625)"/>
       <path id="DejaVuSans-35" d="M 691 4666 
L 3169 4666 
L 3169 4134 
L 1269 4134 
L 1269 2991 
Q 1406 3038 1543 3061 
Q 1681 3084 1819 3084 
Q 2600 3084 3056 2656 
Q 3513 2228 3513 1497 
Q 3513 744 3044 326 
Q 2575 -91 1722 -91 
Q 1428 -91 1123 -41 
Q 819 9 494 109 
L 494 744 
Q 775 591 1075 516 
Q 1375 441 1709 441 
Q 2250 441 2565 725 
Q 2881 1009 2881 1497 
Q 2881 1984 2565 2268 
Q 2250 2553 1709 2553 
Q 1456 2553 1204 2497 
Q 953 2441 691 2322 
L 691 4666 
z
" transform="scale(0.015625)"/>
      </defs>
      <use xlink:href="#DejaVuSans-2212"/>
      <use xlink:href="#DejaVuSans-32" x="83.789062"/>
      <use xlink:href="#DejaVuSans-35" x="147.412109"/>
     </g>
    </g>
   </g>
   <g id="xtick_2">
    <g id="line2d_3">
     <path d="M 129.609352 267.60792 
L 126.988298 269.877902 
" style="fill: none; stroke: #000000; stroke-width: 0.8; stroke-linecap: square"/>
    </g>
    <g id="text_2">
     <!-- 0 -->
     <g transform="translate(118.046646 291.775603) scale(0.1 -0.1)">
      <defs>
       <path id="DejaVuSans-30" d="M 2034 4250 
Q 1547 4250 1301 3770 
Q 1056 3291 1056 2328 
Q 1056 1369 1301 889 
Q 1547 409 2034 409 
Q 2525 409 2770 889 
Q 3016 1369 3016 2328 
Q 3016 3291 2770 3770 
Q 2525 4250 2034 4250 
z
M 2034 4750 
Q 2819 4750 3233 4129 
Q 3647 3509 3647 2328 
Q 3647 1150 3233 529 
Q 2819 -91 2034 -91 
Q 1250 -91 836 529 
Q 422 1150 422 2328 
Q 422 3509 836 4129 
Q 1250 4750 2034 4750 
z
" transform="scale(0.015625)"/>
      </defs>
      <use xlink:href="#DejaVuSans-30"/>
     </g>
    </g>
   </g>
   <g id="xtick_3">
    <g id="line2d_4">
     <path d="M 149.810788 274.199189 
L 147.217143 276.497739 
" style="fill: none; stroke: #000000; stroke-width: 0.8; stroke-linecap: square"/>
    </g>
    <g id="text_3">
     <!-- 25 -->
     <g transform="translate(135.094405 298.49731) scale(0.1 -0.1)">
      <use xlink:href="#DejaVuSans-32"/>
      <use xlink:href="#DejaVuSans-35" x="63.623047"/>
     </g>
    </g>
   </g>
   <g id="xtick_4">
    <g id="line2d_5">
     <path d="M 170.266989 280.873582 
L 167.701657 283.201243 
" style="fill: none; stroke: #000000; stroke-width: 0.8; stroke-linecap: square"/>
    </g>
    <g id="text_4">
     <!-- 50 -->
     <g transform="translate(155.579549 305.304126) scale(0.1 -0.1)">
      <use xlink:href="#DejaVuSans-35"/>
      <use xlink:href="#DejaVuSans-30" x="63.623047"/>
     </g>
    </g>
   </g>
   <g id="xtick_5">
    <g id="line2d_6">
     <path d="M 190.982806 287.632682 
L 188.446717 289.99001 
" style="fill: none; stroke: #000000; stroke-width: 0.8; stroke-linecap: square"/>
    </g>
    <g id="text_5">
     <!-- 75 -->
     <g transform="translate(176.325723 312.197677) scale(0.1 -0.1)">
      <defs>
       <path id="DejaVuSans-37" d="M 525 4666 
L 3525 4666 
L 3525 4397 
L 1831 0 
L 1172 0 
L 2766 4134 
L 525 4134 
L 525 4666 
z
" transform="scale(0.015625)"/>
      </defs>
      <use xlink:href="#DejaVuSans-37"/>
      <use xlink:href="#DejaVuSans-35" x="63.623047"/>
     </g>
    </g>
   </g>
   <g id="xtick_6">
    <g id="line2d_7">
     <path d="M 211.963213 294.478112 
L 209.457327 296.865678 
" style="fill: none; stroke: #000000; stroke-width: 0.8; stroke-linecap: square"/>
    </g>
    <g id="text_6">
     <!-- 100 -->
     <g transform="translate(194.156697 319.179631) scale(0.1 -0.1)">
      <defs>
       <path id="DejaVuSans-31" d="M 794 531 
L 1825 531 
L 1825 4091 
L 703 3866 
L 703 4441 
L 1819 4666 
L 2450 4666 
L 2450 531 
L 3481 531 
L 3481 0 
L 794 0 
L 794 531 
z
" transform="scale(0.015625)"/>
      </defs>
      <use xlink:href="#DejaVuSans-31"/>
      <use xlink:href="#DejaVuSans-30" x="63.623047"/>
      <use xlink:href="#DejaVuSans-30" x="127.246094"/>
     </g>
    </g>
   </g>
   <g id="xtick_7">
    <g id="line2d_8">
     <path d="M 233.213311 301.411535 
L 230.738618 303.829925 
" style="fill: none; stroke: #000000; stroke-width: 0.8; stroke-linecap: square"/>
    </g>
    <g id="text_7">
     <!-- 125 -->
     <g transform="translate(215.440123 326.2517) scale(0.1 -0.1)">
      <use xlink:href="#DejaVuSans-31"/>
      <use xlink:href="#DejaVuSans-32" x="63.623047"/>
      <use xlink:href="#DejaVuSans-35" x="127.246094"/>
     </g>
    </g>
   </g>
   <g id="xtick_8">
    <g id="line2d_9">
     <path d="M 254.738334 308.43466 
L 252.295855 310.884475 
" style="fill: none; stroke: #000000; stroke-width: 0.8; stroke-linecap: square"/>
    </g>
    <g id="text_8">
     <!-- 150 -->
     <g transform="translate(237.000035 333.415641) scale(0.1 -0.1)">
      <use xlink:href="#DejaVuSans-31"/>
      <use xlink:href="#DejaVuSans-35" x="63.623047"/>
      <use xlink:href="#DejaVuSans-30" x="127.246094"/>
     </g>
    </g>
   </g>
   <g id="text_9">
    <!-- τ₁ (in.lbs) -->
    <g transform="translate(144.120388 316.837648) rotate(-341.912962) scale(0.1 -0.1)">
     <defs>
      <path id="DejaVuSans-3c4" d="M 2319 638 
Q 2431 488 2769 488 
L 3047 488 
L 3047 0 
L 2700 0 
Q 2138 0 1881 300 
Q 1625 606 1625 1269 
L 1625 2925 
L 313 2925 
L 313 3500 
L 3541 3500 
L 3541 2925 
L 2213 2925 
L 2213 1234 
Q 2213 781 2319 638 
z
" transform="scale(0.015625)"/>
      <path id="DejaVuSans-2081" d="M 488 319 
L 1125 319 
L 1125 2229 
L 428 2101 
L 428 2463 
L 1147 2585 
L 1575 2585 
L 1575 319 
L 2216 319 
L 2216 -24 
L 488 -24 
L 488 319 
z
" transform="scale(0.015625)"/>
      <path id="DejaVuSans-20" transform="scale(0.015625)"/>
      <path id="DejaVuSans-28" d="M 1984 4856 
Q 1566 4138 1362 3434 
Q 1159 2731 1159 2009 
Q 1159 1288 1364 580 
Q 1569 -128 1984 -844 
L 1484 -844 
Q 1016 -109 783 600 
Q 550 1309 550 2009 
Q 550 2706 781 3412 
Q 1013 4119 1484 4856 
L 1984 4856 
z
" transform="scale(0.015625)"/>
      <path id="DejaVuSans-69" d="M 603 3500 
L 1178 3500 
L 1178 0 
L 603 0 
L 603 3500 
z
M 603 4863 
L 1178 4863 
L 1178 4134 
L 603 4134 
L 603 4863 
z
" transform="scale(0.015625)"/>
      <path id="DejaVuSans-6e" d="M 3513 2113 
L 3513 0 
L 2938 0 
L 2938 2094 
Q 2938 2591 2744 2837 
Q 2550 3084 2163 3084 
Q 1697 3084 1428 2787 
Q 1159 2491 1159 1978 
L 1159 0 
L 581 0 
L 581 3500 
L 1159 3500 
L 1159 2956 
Q 1366 3272 1645 3428 
Q 1925 3584 2291 3584 
Q 2894 3584 3203 3211 
Q 3513 2838 3513 2113 
z
" transform="scale(0.015625)"/>
      <path id="DejaVuSans-2e" d="M 684 794 
L 1344 794 
L 1344 0 
L 684 0 
L 684 794 
z
" transform="scale(0.015625)"/>
      <path id="DejaVuSans-6c" d="M 603 4863 
L 1178 4863 
L 1178 0 
L 603 0 
L 603 4863 
z
" transform="scale(0.015625)"/>
      <path id="DejaVuSans-62" d="M 3116 1747 
Q 3116 2381 2855 2742 
Q 2594 3103 2138 3103 
Q 1681 3103 1420 2742 
Q 1159 2381 1159 1747 
Q 1159 1113 1420 752 
Q 1681 391 2138 391 
Q 2594 391 2855 752 
Q 3116 1113 3116 1747 
z
M 1159 2969 
Q 1341 3281 1617 3432 
Q 1894 3584 2278 3584 
Q 2916 3584 3314 3078 
Q 3713 2572 3713 1747 
Q 3713 922 3314 415 
Q 2916 -91 2278 -91 
Q 1894 -91 1617 61 
Q 1341 213 1159 525 
L 1159 0 
L 581 0 
L 581 4863 
L 1159 4863 
L 1159 2969 
z
" transform="scale(0.015625)"/>
      <path id="DejaVuSans-73" d="M 2834 3397 
L 2834 2853 
Q 2591 2978 2328 3040 
Q 2066 3103 1784 3103 
Q 1356 3103 1142 2972 
Q 928 2841 928 2578 
Q 928 2378 1081 2264 
Q 1234 2150 1697 2047 
L 1894 2003 
Q 2506 1872 2764 1633 
Q 3022 1394 3022 966 
Q 3022 478 2636 193 
Q 2250 -91 1575 -91 
Q 1294 -91 989 -36 
Q 684 19 347 128 
L 347 722 
Q 666 556 975 473 
Q 1284 391 1588 391 
Q 1994 391 2212 530 
Q 2431 669 2431 922 
Q 2431 1156 2273 1281 
Q 2116 1406 1581 1522 
L 1381 1569 
Q 847 1681 609 1914 
Q 372 2147 372 2553 
Q 372 3047 722 3315 
Q 1072 3584 1716 3584 
Q 2034 3584 2315 3537 
Q 2597 3491 2834 3397 
z
" transform="scale(0.015625)"/>
      <path id="DejaVuSans-29" d="M 513 4856 
L 1013 4856 
Q 1481 4119 1714 3412 
Q 1947 2706 1947 2009 
Q 1947 1309 1714 600 
Q 1481 -109 1013 -844 
L 513 -844 
Q 928 -128 1133 580 
Q 1338 1288 1338 2009 
Q 1338 2731 1133 3434 
Q 928 4138 513 4856 
z
" transform="scale(0.015625)"/>
     </defs>
     <use xlink:href="#DejaVuSans-3c4"/>
     <use xlink:href="#DejaVuSans-2081" x="60.205078"/>
     <use xlink:href="#DejaVuSans-20" x="100.292969"/>
     <use xlink:href="#DejaVuSans-28" x="132.080078"/>
     <use xlink:href="#DejaVuSans-69" x="171.09375"/>
     <use xlink:href="#DejaVuSans-6e" x="198.876953"/>
     <use xlink:href="#DejaVuSans-2e" x="262.255859"/>
     <use xlink:href="#DejaVuSans-6c" x="294.042969"/>
     <use xlink:href="#DejaVuSans-62" x="321.826172"/>
     <use xlink:href="#DejaVuSans-73" x="385.302734"/>
     <use xlink:href="#DejaVuSans-29" x="437.402344"/>
    </g>
   </g>
  </g>
  <g id="axis3d_2">
   <g id="line2d_10">
    <path d="M 364.543853 221.068861 
L 272.656694 315.367691 
" style="fill: none; stroke: #000000; stroke-width: 0.8; stroke-linecap: square"/>
   </g>
   <g id="xtick_9">
    <g id="line2d_11">
     <path d="M 278.076572 307.845709 
L 282.435262 309.257247 
" style="fill: none; stroke: #000000; stroke-width: 0.8; stroke-linecap: square"/>
    </g>
    <g id="text_10">
     <!-- −20 -->
     <g transform="translate(281.849513 329.329707) scale(0.1 -0.1)">
      <use xlink:href="#DejaVuSans-2212"/>
      <use xlink:href="#DejaVuSans-32" x="83.789062"/>
      <use xlink:href="#DejaVuSans-30" x="147.412109"/>
     </g>
    </g>
   </g>
   <g id="xtick_10">
    <g id="line2d_12">
     <path d="M 291.606007 293.986051 
L 295.926577 295.361968 
" style="fill: none; stroke: #000000; stroke-width: 0.8; stroke-linecap: square"/>
    </g>
    <g id="text_11">
     <!-- 0 -->
     <g transform="translate(302.580737 315.2807) scale(0.1 -0.1)">
      <use xlink:href="#DejaVuSans-30"/>
     </g>
    </g>
   </g>
   <g id="xtick_11">
    <g id="line2d_13">
     <path d="M 304.796354 280.473759 
L 309.079333 281.815386 
" style="fill: none; stroke: #000000; stroke-width: 0.8; stroke-linecap: square"/>
    </g>
    <g id="text_12">
     <!-- 20 -->
     <g transform="translate(312.424464 301.584128) scale(0.1 -0.1)">
      <use xlink:href="#DejaVuSans-32"/>
      <use xlink:href="#DejaVuSans-30" x="63.623047"/>
     </g>
    </g>
   </g>
   <g id="xtick_12">
    <g id="line2d_14">
     <path d="M 317.660204 267.295932 
L 321.906117 268.604535 
" style="fill: none; stroke: #000000; stroke-width: 0.8; stroke-linecap: square"/>
    </g>
    <g id="text_13">
     <!-- 40 -->
     <g transform="translate(325.126742 288.226894) scale(0.1 -0.1)">
      <defs>
       <path id="DejaVuSans-34" d="M 2419 4116 
L 825 1625 
L 2419 1625 
L 2419 4116 
z
M 2253 4666 
L 3047 4666 
L 3047 1625 
L 3713 1625 
L 3713 1100 
L 3047 1100 
L 3047 0 
L 2419 0 
L 2419 1100 
L 313 1100 
L 313 1709 
L 2253 4666 
z
" transform="scale(0.015625)"/>
      </defs>
      <use xlink:href="#DejaVuSans-34"/>
      <use xlink:href="#DejaVuSans-30" x="63.623047"/>
     </g>
    </g>
   </g>
   <g id="xtick_13">
    <g id="line2d_15">
     <path d="M 330.20953 254.440306 
L 334.418898 255.71709 
" style="fill: none; stroke: #000000; stroke-width: 0.8; stroke-linecap: square"/>
    </g>
    <g id="text_14">
     <!-- 60 -->
     <g transform="translate(337.518168 275.196541) scale(0.1 -0.1)">
      <defs>
       <path id="DejaVuSans-36" d="M 2113 2584 
Q 1688 2584 1439 2293 
Q 1191 2003 1191 1497 
Q 1191 994 1439 701 
Q 1688 409 2113 409 
Q 2538 409 2786 701 
Q 3034 994 3034 1497 
Q 3034 2003 2786 2293 
Q 2538 2584 2113 2584 
z
M 3366 4563 
L 3366 3988 
Q 3128 4100 2886 4159 
Q 2644 4219 2406 4219 
Q 1781 4219 1451 3797 
Q 1122 3375 1075 2522 
Q 1259 2794 1537 2939 
Q 1816 3084 2150 3084 
Q 2853 3084 3261 2657 
Q 3669 2231 3669 1497 
Q 3669 778 3244 343 
Q 2819 -91 2113 -91 
Q 1303 -91 875 529 
Q 447 1150 447 2328 
Q 447 3434 972 4092 
Q 1497 4750 2381 4750 
Q 2619 4750 2861 4703 
Q 3103 4656 3366 4563 
z
" transform="scale(0.015625)"/>
      </defs>
      <use xlink:href="#DejaVuSans-36"/>
      <use xlink:href="#DejaVuSans-30" x="63.623047"/>
     </g>
    </g>
   </g>
   <g id="xtick_14">
    <g id="line2d_16">
     <path d="M 342.455729 241.895206 
L 346.629067 243.141317 
" style="fill: none; stroke: #000000; stroke-width: 0.8; stroke-linecap: square"/>
    </g>
    <g id="text_15">
     <!-- 80 -->
     <g transform="translate(349.610013 262.481214) scale(0.1 -0.1)">
      <defs>
       <path id="DejaVuSans-38" d="M 2034 2216 
Q 1584 2216 1326 1975 
Q 1069 1734 1069 1313 
Q 1069 891 1326 650 
Q 1584 409 2034 409 
Q 2484 409 2743 651 
Q 3003 894 3003 1313 
Q 3003 1734 2745 1975 
Q 2488 2216 2034 2216 
z
M 1403 2484 
Q 997 2584 770 2862 
Q 544 3141 544 3541 
Q 544 4100 942 4425 
Q 1341 4750 2034 4750 
Q 2731 4750 3128 4425 
Q 3525 4100 3525 3541 
Q 3525 3141 3298 2862 
Q 3072 2584 2669 2484 
Q 3125 2378 3379 2068 
Q 3634 1759 3634 1313 
Q 3634 634 3220 271 
Q 2806 -91 2034 -91 
Q 1263 -91 848 271 
Q 434 634 434 1313 
Q 434 1759 690 2068 
Q 947 2378 1403 2484 
z
M 1172 3481 
Q 1172 3119 1398 2916 
Q 1625 2713 2034 2713 
Q 2441 2713 2670 2916 
Q 2900 3119 2900 3481 
Q 2900 3844 2670 4047 
Q 2441 4250 2034 4250 
Q 1625 4250 1398 4047 
Q 1172 3844 1172 3481 
z
" transform="scale(0.015625)"/>
      </defs>
      <use xlink:href="#DejaVuSans-38"/>
      <use xlink:href="#DejaVuSans-30" x="63.623047"/>
     </g>
    </g>
   </g>
   <g id="xtick_15">
    <g id="line2d_17">
     <path d="M 354.409652 229.649516 
L 358.547472 230.866046 
" style="fill: none; stroke: #000000; stroke-width: 0.8; stroke-linecap: square"/>
    </g>
    <g id="text_16">
     <!-- 100 -->
     <g transform="translate(358.231763 250.069627) scale(0.1 -0.1)">
      <use xlink:href="#DejaVuSans-31"/>
      <use xlink:href="#DejaVuSans-30" x="63.623047"/>
      <use xlink:href="#DejaVuSans-30" x="127.246094"/>
     </g>
    </g>
   </g>
   <g id="text_17">
    <!-- τ₂ (in.lbs) -->
    <g transform="translate(332.975431 313.099597) rotate(-45.742112) scale(0.1 -0.1)">
     <defs>
      <path id="DejaVuSans-2082" d="M 838 332 
L 2163 332 
L 2163 -24 
L 294 -24 
L 294 319 
Q 400 416 597 591 
Q 1672 1544 1672 1838 
Q 1672 2044 1509 2170 
Q 1347 2297 1081 2297 
Q 919 2297 728 2242 
Q 538 2188 313 2079 
L 313 2463 
Q 553 2551 761 2594 
Q 969 2638 1147 2638 
Q 1600 2638 1872 2432 
Q 2144 2226 2144 1888 
Q 2144 1454 1109 566 
Q 934 416 838 332 
z
" transform="scale(0.015625)"/>
     </defs>
     <use xlink:href="#DejaVuSans-3c4"/>
     <use xlink:href="#DejaVuSans-2082" x="60.205078"/>
     <use xlink:href="#DejaVuSans-20" x="100.292969"/>
     <use xlink:href="#DejaVuSans-28" x="132.080078"/>
     <use xlink:href="#DejaVuSans-69" x="171.09375"/>
     <use xlink:href="#DejaVuSans-6e" x="198.876953"/>
     <use xlink:href="#DejaVuSans-2e" x="262.255859"/>
     <use xlink:href="#DejaVuSans-6c" x="294.042969"/>
     <use xlink:href="#DejaVuSans-62" x="321.826172"/>
     <use xlink:href="#DejaVuSans-73" x="385.302734"/>
     <use xlink:href="#DejaVuSans-29" x="437.402344"/>
    </g>
   </g>
  </g>
  <g id="axis3d_3">
   <g id="line2d_18">
    <path d="M 364.543853 221.068861 
L 370.366762 93.911394 
" style="fill: none; stroke: #000000; stroke-width: 0.8; stroke-linecap: square"/>
   </g>
   <g id="xtick_16">
    <g id="line2d_19">
     <path d="M 363.407882 215.517595 
L 367.527189 216.708695 
" style="fill: none; stroke: #000000; stroke-width: 0.8; stroke-linecap: square"/>
    </g>
    <g id="text_18">
     <!-- −20 -->
     <g transform="translate(372.516075 220.915358) scale(0.1 -0.1)">
      <use xlink:href="#DejaVuSans-2212"/>
      <use xlink:href="#DejaVuSans-32" x="83.789062"/>
      <use xlink:href="#DejaVuSans-30" x="147.412109"/>
     </g>
    </g>
   </g>
   <g id="xtick_17">
    <g id="line2d_20">
     <path d="M 364.086719 200.533569 
L 368.228569 201.713007 
" style="fill: none; stroke: #000000; stroke-width: 0.8; stroke-linecap: square"/>
    </g>
    <g id="text_19">
     <!-- −10 -->
     <g transform="translate(373.296764 205.952919) scale(0.1 -0.1)">
      <use xlink:href="#DejaVuSans-2212"/>
      <use xlink:href="#DejaVuSans-31" x="83.789062"/>
      <use xlink:href="#DejaVuSans-30" x="147.412109"/>
     </g>
    </g>
   </g>
   <g id="xtick_18">
    <g id="line2d_21">
     <path d="M 364.772748 185.390819 
L 368.937387 186.558279 
" style="fill: none; stroke: #000000; stroke-width: 0.8; stroke-linecap: square"/>
    </g>
    <g id="text_20">
     <!-- 0 -->
     <g transform="translate(381.456799 190.832336) scale(0.1 -0.1)">
      <use xlink:href="#DejaVuSans-30"/>
     </g>
    </g>
   </g>
   <g id="xtick_19">
    <g id="line2d_22">
     <path d="M 365.466082 170.086808 
L 369.653763 171.241969 
" style="fill: none; stroke: #000000; stroke-width: 0.8; stroke-linecap: square"/>
    </g>
    <g id="text_21">
     <!-- 10 -->
     <g transform="translate(379.072872 175.551088) scale(0.1 -0.1)">
      <use xlink:href="#DejaVuSans-31"/>
      <use xlink:href="#DejaVuSans-30" x="63.623047"/>
     </g>
    </g>
   </g>
   <g id="xtick_20">
    <g id="line2d_23">
     <path d="M 366.16684 154.618947 
L 370.377818 155.761476 
" style="fill: none; stroke: #000000; stroke-width: 0.8; stroke-linecap: square"/>
    </g>
    <g id="text_22">
     <!-- 20 -->
     <g transform="translate(379.878713 160.106603) scale(0.1 -0.1)">
      <use xlink:href="#DejaVuSans-32"/>
      <use xlink:href="#DejaVuSans-30" x="63.623047"/>
     </g>
    </g>
   </g>
   <g id="xtick_21">
    <g id="line2d_24">
     <path d="M 366.87514 138.984591 
L 371.109676 140.114149 
" style="fill: none; stroke: #000000; stroke-width: 0.8; stroke-linecap: square"/>
    </g>
    <g id="text_23">
     <!-- 30 -->
     <g transform="translate(380.693209 144.496249) scale(0.1 -0.1)">
      <defs>
       <path id="DejaVuSans-33" d="M 2597 2516 
Q 3050 2419 3304 2112 
Q 3559 1806 3559 1356 
Q 3559 666 3084 287 
Q 2609 -91 1734 -91 
Q 1441 -91 1130 -33 
Q 819 25 488 141 
L 488 750 
Q 750 597 1062 519 
Q 1375 441 1716 441 
Q 2309 441 2620 675 
Q 2931 909 2931 1356 
Q 2931 1769 2642 2001 
Q 2353 2234 1838 2234 
L 1294 2234 
L 1294 2753 
L 1863 2753 
Q 2328 2753 2575 2939 
Q 2822 3125 2822 3475 
Q 2822 3834 2567 4026 
Q 2313 4219 1838 4219 
Q 1578 4219 1281 4162 
Q 984 4106 628 3988 
L 628 4550 
Q 988 4650 1302 4700 
Q 1616 4750 1894 4750 
Q 2613 4750 3031 4423 
Q 3450 4097 3450 3541 
Q 3450 3153 3228 2886 
Q 3006 2619 2597 2516 
z
" transform="scale(0.015625)"/>
      </defs>
      <use xlink:href="#DejaVuSans-33"/>
      <use xlink:href="#DejaVuSans-30" x="63.623047"/>
     </g>
    </g>
   </g>
   <g id="xtick_22">
    <g id="line2d_25">
     <path d="M 367.591106 123.181036 
L 371.849464 124.297274 
" style="fill: none; stroke: #000000; stroke-width: 0.8; stroke-linecap: square"/>
    </g>
    <g id="text_24">
     <!-- 40 -->
     <g transform="translate(381.516498 128.71734) scale(0.1 -0.1)">
      <use xlink:href="#DejaVuSans-34"/>
      <use xlink:href="#DejaVuSans-30" x="63.623047"/>
     </g>
    </g>
   </g>
   <g id="xtick_23">
    <g id="line2d_26">
     <path d="M 368.314863 107.205521 
L 372.597312 108.308082 
" style="fill: none; stroke: #000000; stroke-width: 0.8; stroke-linecap: square"/>
    </g>
    <g id="text_25">
     <!-- 50 -->
     <g transform="translate(382.348726 112.767131) scale(0.1 -0.1)">
      <use xlink:href="#DejaVuSans-35"/>
      <use xlink:href="#DejaVuSans-30" x="63.623047"/>
     </g>
    </g>
   </g>
   <g id="text_26">
    <!-- τ₃ (in.lbs) -->
    <g transform="translate(409.470566 177.390407) rotate(-87.378092) scale(0.1 -0.1)">
     <defs>
      <path id="DejaVuSans-2083" d="M 1638 1388 
Q 1925 1332 2083 1161 
Q 2241 991 2241 735 
Q 2241 347 1944 138 
Q 1647 -71 1094 -71 
Q 916 -71 720 -38 
Q 525 -6 306 57 
L 306 435 
Q 469 351 655 310 
Q 841 269 1050 269 
Q 1391 269 1578 392 
Q 1766 516 1766 735 
Q 1766 966 1592 1085 
Q 1419 1204 1081 1204 
L 813 1204 
L 813 1541 
L 1106 1541 
Q 1400 1541 1551 1639 
Q 1703 1738 1703 1926 
Q 1703 2107 1547 2202 
Q 1391 2297 1094 2297 
Q 969 2297 809 2269 
Q 650 2241 397 2169 
L 397 2529 
Q 625 2582 825 2610 
Q 1025 2638 1197 2638 
Q 1647 2638 1911 2453 
Q 2175 2269 2175 1960 
Q 2175 1744 2034 1594 
Q 1894 1444 1638 1388 
z
" transform="scale(0.015625)"/>
     </defs>
     <use xlink:href="#DejaVuSans-3c4"/>
     <use xlink:href="#DejaVuSans-2083" x="60.205078"/>
     <use xlink:href="#DejaVuSans-20" x="100.292969"/>
     <use xlink:href="#DejaVuSans-28" x="132.080078"/>
     <use xlink:href="#DejaVuSans-69" x="171.09375"/>
     <use xlink:href="#DejaVuSans-6e" x="198.876953"/>
     <use xlink:href="#DejaVuSans-2e" x="262.255859"/>
     <use xlink:href="#DejaVuSans-6c" x="294.042969"/>
     <use xlink:href="#DejaVuSans-62" x="321.826172"/>
     <use xlink:href="#DejaVuSans-73" x="385.302734"/>
     <use xlink:href="#DejaVuSans-29" x="437.402344"/>
    </g>
   </g>
  </g>
  <g id="axes_1">
   <g id="line2d_27">
    <path d="M 131.236388 207.530658 
L 282.258715 253.968087 
" clip-path="url(#p0a075e2a3e)" style="fill: none; stroke: #000000; stroke-linecap: square"/>
   </g>
   <g id="line2d_28">
    <path d="M 134.361243 226.15995 
L 222.860408 152.245546 
" clip-path="url(#p0a075e2a3e)" style="fill: none; stroke: #000000; stroke-linecap: square"/>
   </g>
   <g id="line2d_29">
    <path d="M 150.657755 241.27025 
L 147.29141 128.195637 
" clip-path="url(#p0a075e2a3e)" style="fill: none; stroke: #000000; stroke-linecap: square"/>
   </g>
   <g id="Poly3DCollection_1">
    <defs>
     <path id="m2a792a94b2" d="M 299.521377 -221.765045 
L 213.51049 -131.193661 
L 287.169121 -225.07025 
z
" style="stroke: #0652ff"/>
    </defs>
    <g clip-path="url(#p0a075e2a3e)">
     <use xlink:href="#m2a792a94b2" x="0" y="345.6" style="fill: #0652ff; fill-opacity: 0.4; stroke: #0652ff"/>
    </g>
   </g>
   <g id="text_27">
    <!-- Joint-Space Torque Capability Polytope -->
    <g transform="translate(115.105313 20.88) scale(0.12 -0.12)">
     <defs>
      <path id="DejaVuSans-4a" d="M 628 4666 
L 1259 4666 
L 1259 325 
Q 1259 -519 939 -900 
Q 619 -1281 -91 -1281 
L -331 -1281 
L -331 -750 
L -134 -750 
Q 284 -750 456 -515 
Q 628 -281 628 325 
L 628 4666 
z
" transform="scale(0.015625)"/>
      <path id="DejaVuSans-6f" d="M 1959 3097 
Q 1497 3097 1228 2736 
Q 959 2375 959 1747 
Q 959 1119 1226 758 
Q 1494 397 1959 397 
Q 2419 397 2687 759 
Q 2956 1122 2956 1747 
Q 2956 2369 2687 2733 
Q 2419 3097 1959 3097 
z
M 1959 3584 
Q 2709 3584 3137 3096 
Q 3566 2609 3566 1747 
Q 3566 888 3137 398 
Q 2709 -91 1959 -91 
Q 1206 -91 779 398 
Q 353 888 353 1747 
Q 353 2609 779 3096 
Q 1206 3584 1959 3584 
z
" transform="scale(0.015625)"/>
      <path id="DejaVuSans-74" d="M 1172 4494 
L 1172 3500 
L 2356 3500 
L 2356 3053 
L 1172 3053 
L 1172 1153 
Q 1172 725 1289 603 
Q 1406 481 1766 481 
L 2356 481 
L 2356 0 
L 1766 0 
Q 1100 0 847 248 
Q 594 497 594 1153 
L 594 3053 
L 172 3053 
L 172 3500 
L 594 3500 
L 594 4494 
L 1172 4494 
z
" transform="scale(0.015625)"/>
      <path id="DejaVuSans-2d" d="M 313 2009 
L 1997 2009 
L 1997 1497 
L 313 1497 
L 313 2009 
z
" transform="scale(0.015625)"/>
      <path id="DejaVuSans-53" d="M 3425 4513 
L 3425 3897 
Q 3066 4069 2747 4153 
Q 2428 4238 2131 4238 
Q 1616 4238 1336 4038 
Q 1056 3838 1056 3469 
Q 1056 3159 1242 3001 
Q 1428 2844 1947 2747 
L 2328 2669 
Q 3034 2534 3370 2195 
Q 3706 1856 3706 1288 
Q 3706 609 3251 259 
Q 2797 -91 1919 -91 
Q 1588 -91 1214 -16 
Q 841 59 441 206 
L 441 856 
Q 825 641 1194 531 
Q 1563 422 1919 422 
Q 2459 422 2753 634 
Q 3047 847 3047 1241 
Q 3047 1584 2836 1778 
Q 2625 1972 2144 2069 
L 1759 2144 
Q 1053 2284 737 2584 
Q 422 2884 422 3419 
Q 422 4038 858 4394 
Q 1294 4750 2059 4750 
Q 2388 4750 2728 4690 
Q 3069 4631 3425 4513 
z
" transform="scale(0.015625)"/>
      <path id="DejaVuSans-70" d="M 1159 525 
L 1159 -1331 
L 581 -1331 
L 581 3500 
L 1159 3500 
L 1159 2969 
Q 1341 3281 1617 3432 
Q 1894 3584 2278 3584 
Q 2916 3584 3314 3078 
Q 3713 2572 3713 1747 
Q 3713 922 3314 415 
Q 2916 -91 2278 -91 
Q 1894 -91 1617 61 
Q 1341 213 1159 525 
z
M 3116 1747 
Q 3116 2381 2855 2742 
Q 2594 3103 2138 3103 
Q 1681 3103 1420 2742 
Q 1159 2381 1159 1747 
Q 1159 1113 1420 752 
Q 1681 391 2138 391 
Q 2594 391 2855 752 
Q 3116 1113 3116 1747 
z
" transform="scale(0.015625)"/>
      <path id="DejaVuSans-61" d="M 2194 1759 
Q 1497 1759 1228 1600 
Q 959 1441 959 1056 
Q 959 750 1161 570 
Q 1363 391 1709 391 
Q 2188 391 2477 730 
Q 2766 1069 2766 1631 
L 2766 1759 
L 2194 1759 
z
M 3341 1997 
L 3341 0 
L 2766 0 
L 2766 531 
Q 2569 213 2275 61 
Q 1981 -91 1556 -91 
Q 1019 -91 701 211 
Q 384 513 384 1019 
Q 384 1609 779 1909 
Q 1175 2209 1959 2209 
L 2766 2209 
L 2766 2266 
Q 2766 2663 2505 2880 
Q 2244 3097 1772 3097 
Q 1472 3097 1187 3025 
Q 903 2953 641 2809 
L 641 3341 
Q 956 3463 1253 3523 
Q 1550 3584 1831 3584 
Q 2591 3584 2966 3190 
Q 3341 2797 3341 1997 
z
" transform="scale(0.015625)"/>
      <path id="DejaVuSans-63" d="M 3122 3366 
L 3122 2828 
Q 2878 2963 2633 3030 
Q 2388 3097 2138 3097 
Q 1578 3097 1268 2742 
Q 959 2388 959 1747 
Q 959 1106 1268 751 
Q 1578 397 2138 397 
Q 2388 397 2633 464 
Q 2878 531 3122 666 
L 3122 134 
Q 2881 22 2623 -34 
Q 2366 -91 2075 -91 
Q 1284 -91 818 406 
Q 353 903 353 1747 
Q 353 2603 823 3093 
Q 1294 3584 2113 3584 
Q 2378 3584 2631 3529 
Q 2884 3475 3122 3366 
z
" transform="scale(0.015625)"/>
      <path id="DejaVuSans-65" d="M 3597 1894 
L 3597 1613 
L 953 1613 
Q 991 1019 1311 708 
Q 1631 397 2203 397 
Q 2534 397 2845 478 
Q 3156 559 3463 722 
L 3463 178 
Q 3153 47 2828 -22 
Q 2503 -91 2169 -91 
Q 1331 -91 842 396 
Q 353 884 353 1716 
Q 353 2575 817 3079 
Q 1281 3584 2069 3584 
Q 2775 3584 3186 3129 
Q 3597 2675 3597 1894 
z
M 3022 2063 
Q 3016 2534 2758 2815 
Q 2500 3097 2075 3097 
Q 1594 3097 1305 2825 
Q 1016 2553 972 2059 
L 3022 2063 
z
" transform="scale(0.015625)"/>
      <path id="DejaVuSans-54" d="M -19 4666 
L 3928 4666 
L 3928 4134 
L 2272 4134 
L 2272 0 
L 1638 0 
L 1638 4134 
L -19 4134 
L -19 4666 
z
" transform="scale(0.015625)"/>
      <path id="DejaVuSans-72" d="M 2631 2963 
Q 2534 3019 2420 3045 
Q 2306 3072 2169 3072 
Q 1681 3072 1420 2755 
Q 1159 2438 1159 1844 
L 1159 0 
L 581 0 
L 581 3500 
L 1159 3500 
L 1159 2956 
Q 1341 3275 1631 3429 
Q 1922 3584 2338 3584 
Q 2397 3584 2469 3576 
Q 2541 3569 2628 3553 
L 2631 2963 
z
" transform="scale(0.015625)"/>
      <path id="DejaVuSans-71" d="M 947 1747 
Q 947 1113 1208 752 
Q 1469 391 1925 391 
Q 2381 391 2643 752 
Q 2906 1113 2906 1747 
Q 2906 2381 2643 2742 
Q 2381 3103 1925 3103 
Q 1469 3103 1208 2742 
Q 947 2381 947 1747 
z
M 2906 525 
Q 2725 213 2448 61 
Q 2172 -91 1784 -91 
Q 1150 -91 751 415 
Q 353 922 353 1747 
Q 353 2572 751 3078 
Q 1150 3584 1784 3584 
Q 2172 3584 2448 3432 
Q 2725 3281 2906 2969 
L 2906 3500 
L 3481 3500 
L 3481 -1331 
L 2906 -1331 
L 2906 525 
z
" transform="scale(0.015625)"/>
      <path id="DejaVuSans-75" d="M 544 1381 
L 544 3500 
L 1119 3500 
L 1119 1403 
Q 1119 906 1312 657 
Q 1506 409 1894 409 
Q 2359 409 2629 706 
Q 2900 1003 2900 1516 
L 2900 3500 
L 3475 3500 
L 3475 0 
L 2900 0 
L 2900 538 
Q 2691 219 2414 64 
Q 2138 -91 1772 -91 
Q 1169 -91 856 284 
Q 544 659 544 1381 
z
M 1991 3584 
L 1991 3584 
z
" transform="scale(0.015625)"/>
      <path id="DejaVuSans-43" d="M 4122 4306 
L 4122 3641 
Q 3803 3938 3442 4084 
Q 3081 4231 2675 4231 
Q 1875 4231 1450 3742 
Q 1025 3253 1025 2328 
Q 1025 1406 1450 917 
Q 1875 428 2675 428 
Q 3081 428 3442 575 
Q 3803 722 4122 1019 
L 4122 359 
Q 3791 134 3420 21 
Q 3050 -91 2638 -91 
Q 1578 -91 968 557 
Q 359 1206 359 2328 
Q 359 3453 968 4101 
Q 1578 4750 2638 4750 
Q 3056 4750 3426 4639 
Q 3797 4528 4122 4306 
z
" transform="scale(0.015625)"/>
      <path id="DejaVuSans-79" d="M 2059 -325 
Q 1816 -950 1584 -1140 
Q 1353 -1331 966 -1331 
L 506 -1331 
L 506 -850 
L 844 -850 
Q 1081 -850 1212 -737 
Q 1344 -625 1503 -206 
L 1606 56 
L 191 3500 
L 800 3500 
L 1894 763 
L 2988 3500 
L 3597 3500 
L 2059 -325 
z
" transform="scale(0.015625)"/>
      <path id="DejaVuSans-50" d="M 1259 4147 
L 1259 2394 
L 2053 2394 
Q 2494 2394 2734 2622 
Q 2975 2850 2975 3272 
Q 2975 3691 2734 3919 
Q 2494 4147 2053 4147 
L 1259 4147 
z
M 628 4666 
L 2053 4666 
Q 2838 4666 3239 4311 
Q 3641 3956 3641 3272 
Q 3641 2581 3239 2228 
Q 2838 1875 2053 1875 
L 1259 1875 
L 1259 0 
L 628 0 
L 628 4666 
z
" transform="scale(0.015625)"/>
     </defs>
     <use xlink:href="#DejaVuSans-4a"/>
     <use xlink:href="#DejaVuSans-6f" x="29.492188"/>
     <use xlink:href="#DejaVuSans-69" x="90.673828"/>
     <use xlink:href="#DejaVuSans-6e" x="118.457031"/>
     <use xlink:href="#DejaVuSans-74" x="181.835938"/>
     <use xlink:href="#DejaVuSans-2d" x="221.044922"/>
     <use xlink:href="#DejaVuSans-53" x="257.128906"/>
     <use xlink:href="#DejaVuSans-70" x="320.605469"/>
     <use xlink:href="#DejaVuSans-61" x="384.082031"/>
     <use xlink:href="#DejaVuSans-63" x="445.361328"/>
     <use xlink:href="#DejaVuSans-65" x="500.341797"/>
     <use xlink:href="#DejaVuSans-20" x="561.865234"/>
     <use xlink:href="#DejaVuSans-54" x="593.652344"/>
     <use xlink:href="#DejaVuSans-6f" x="637.736328"/>
     <use xlink:href="#DejaVuSans-72" x="698.917969"/>
     <use xlink:href="#DejaVuSans-71" x="738.28125"/>
     <use xlink:href="#DejaVuSans-75" x="801.757812"/>
     <use xlink:href="#DejaVuSans-65" x="865.136719"/>
     <use xlink:href="#DejaVuSans-20" x="926.660156"/>
     <use xlink:href="#DejaVuSans-43" x="958.447266"/>
     <use xlink:href="#DejaVuSans-61" x="1028.271484"/>
     <use xlink:href="#DejaVuSans-70" x="1089.550781"/>
     <use xlink:href="#DejaVuSans-61" x="1153.027344"/>
     <use xlink:href="#DejaVuSans-62" x="1214.306641"/>
     <use xlink:href="#DejaVuSans-69" x="1277.783203"/>
     <use xlink:href="#DejaVuSans-6c" x="1305.566406"/>
     <use xlink:href="#DejaVuSans-69" x="1333.349609"/>
     <use xlink:href="#DejaVuSans-74" x="1361.132812"/>
     <use xlink:href="#DejaVuSans-79" x="1400.341797"/>
     <use xlink:href="#DejaVuSans-20" x="1459.521484"/>
     <use xlink:href="#DejaVuSans-50" x="1491.308594"/>
     <use xlink:href="#DejaVuSans-6f" x="1547.986328"/>
     <use xlink:href="#DejaVuSans-6c" x="1609.167969"/>
     <use xlink:href="#DejaVuSans-79" x="1636.951172"/>
     <use xlink:href="#DejaVuSans-74" x="1696.130859"/>
     <use xlink:href="#DejaVuSans-6f" x="1735.339844"/>
     <use xlink:href="#DejaVuSans-70" x="1796.521484"/>
     <use xlink:href="#DejaVuSans-65" x="1859.998047"/>
    </g>
   </g>
   <g id="Poly3DCollection_2">
    <defs>
     <path id="mfa9d453bd9" d="M 299.521377 -221.765045 
L 213.51049 -131.193661 
L 225.489639 -127.576943 
z
" style="stroke: #0652ff"/>
    </defs>
    <g clip-path="url(#p0a075e2a3e)">
     <use xlink:href="#mfa9d453bd9" x="0" y="345.6" style="fill: #0652ff; fill-opacity: 0.4; stroke: #0652ff"/>
    </g>
   </g>
   <g id="Poly3DCollection_3">
    <defs>
     <path id="m341c069214" d="M 256.142659 -106.002438 
L 299.521377 -221.765045 
L 225.489639 -127.576943 
z
" style="stroke: #0652ff"/>
    </defs>
    <g clip-path="url(#p0a075e2a3e)">
     <use xlink:href="#m341c069214" x="0" y="345.6" style="fill: #0652ff; fill-opacity: 0.4; stroke: #0652ff"/>
    </g>
   </g>
   <g id="Poly3DCollection_4">
    <defs>
     <path id="mff6c1a19b2" d="M 256.142659 -106.002438 
L 213.51049 -131.193661 
L 225.489639 -127.576943 
z
" style="stroke: #0652ff"/>
    </defs>
    <g clip-path="url(#p0a075e2a3e)">
     <use xlink:href="#mff6c1a19b2" x="0" y="345.6" style="fill: #0652ff; fill-opacity: 0.4; stroke: #0652ff"/>
    </g>
   </g>
   <g id="Poly3DCollection_5">
    <defs>
     <path id="mae3f9730a6" d="M 256.142659 -106.002438 
L 213.51049 -131.193661 
L 243.79363 -109.776238 
z
" style="stroke: #0652ff"/>
    </defs>
    <g clip-path="url(#p0a075e2a3e)">
     <use xlink:href="#mae3f9730a6" x="0" y="345.6" style="fill: #0652ff; fill-opacity: 0.4; stroke: #0652ff"/>
    </g>
   </g>
   <g id="Poly3DCollection_6">
    <defs>
     <path id="m23d53ca2fa" d="M 256.142659 -106.002438 
L 299.521377 -221.765045 
L 332.054062 -202.044478 
z
" style="stroke: #0652ff"/>
    </defs>
    <g clip-path="url(#p0a075e2a3e)">
     <use xlink:href="#m23d53ca2fa" x="0" y="345.6" style="fill: #0652ff; fill-opacity: 0.4; stroke: #0652ff"/>
    </g>
   </g>
   <g id="Poly3DCollection_7">
    <defs>
     <path id="ma8ab1afba7" d="M 212.761124 -232.476383 
L 213.51049 -131.193661 
L 287.169121 -225.07025 
z
" style="stroke: #0652ff"/>
    </defs>
    <g clip-path="url(#p0a075e2a3e)">
     <use xlink:href="#ma8ab1afba7" x="0" y="345.6" style="fill: #0652ff; fill-opacity: 0.4; stroke: #0652ff"/>
    </g>
   </g>
   <g id="Poly3DCollection_8">
    <defs>
     <path id="mc16ae6740f" d="M 212.761124 -232.476383 
L 213.51049 -131.193661 
L 137.807366 -136.048851 
z
" style="stroke: #0652ff"/>
    </defs>
    <g clip-path="url(#p0a075e2a3e)">
     <use xlink:href="#mc16ae6740f" x="0" y="345.6" style="fill: #0652ff; fill-opacity: 0.4; stroke: #0652ff"/>
    </g>
   </g>
   <g id="Poly3DCollection_9">
    <defs>
     <path id="me0bfbeb2ea" d="M 225.1655 -229.110332 
L 299.521377 -221.765045 
L 332.054062 -202.044478 
z
" style="stroke: #0652ff"/>
    </defs>
    <g clip-path="url(#p0a075e2a3e)">
     <use xlink:href="#me0bfbeb2ea" x="0" y="345.6" style="fill: #0652ff; fill-opacity: 0.4; stroke: #0652ff"/>
    </g>
   </g>
   <g id="Poly3DCollection_10">
    <defs>
     <path id="m9d8daee9ed" d="M 225.1655 -229.110332 
L 299.521377 -221.765045 
L 287.169121 -225.07025 
z
" style="stroke: #0652ff"/>
    </defs>
    <g clip-path="url(#p0a075e2a3e)">
     <use xlink:href="#m9d8daee9ed" x="0" y="345.6" style="fill: #0652ff; fill-opacity: 0.4; stroke: #0652ff"/>
    </g>
   </g>
   <g id="Poly3DCollection_11">
    <defs>
     <path id="m7551e80993" d="M 225.1655 -229.110332 
L 212.761124 -232.476383 
L 287.169121 -225.07025 
z
" style="stroke: #0652ff"/>
    </defs>
    <g clip-path="url(#p0a075e2a3e)">
     <use xlink:href="#m7551e80993" x="0" y="345.6" style="fill: #0652ff; fill-opacity: 0.4; stroke: #0652ff"/>
    </g>
   </g>
   <g id="Poly3DCollection_12">
    <defs>
     <path id="mb6e7708edb" d="M 167.242593 -114.158773 
L 213.51049 -131.193661 
L 243.79363 -109.776238 
z
" style="stroke: #0652ff"/>
    </defs>
    <g clip-path="url(#p0a075e2a3e)">
     <use xlink:href="#mb6e7708edb" x="0" y="345.6" style="fill: #0652ff; fill-opacity: 0.4; stroke: #0652ff"/>
    </g>
   </g>
   <g id="Poly3DCollection_13">
    <defs>
     <path id="m5a6a3444cf" d="M 167.242593 -114.158773 
L 213.51049 -131.193661 
L 137.807366 -136.048851 
z
" style="stroke: #0652ff"/>
    </defs>
    <g clip-path="url(#p0a075e2a3e)">
     <use xlink:href="#m5a6a3444cf" x="0" y="345.6" style="fill: #0652ff; fill-opacity: 0.4; stroke: #0652ff"/>
    </g>
   </g>
   <g id="Poly3DCollection_14">
    <defs>
     <path id="mbdf5dd1641" d="M 167.242593 -114.158773 
L 256.142659 -106.002438 
L 243.79363 -109.776238 
z
" style="stroke: #0652ff"/>
    </defs>
    <g clip-path="url(#p0a075e2a3e)">
     <use xlink:href="#mbdf5dd1641" x="0" y="345.6" style="fill: #0652ff; fill-opacity: 0.4; stroke: #0652ff"/>
    </g>
   </g>
   <g id="Poly3DCollection_15">
    <defs>
     <path id="md61f293ebb" d="M 212.761124 -232.476383 
L 167.242593 -114.158773 
L 137.807366 -136.048851 
z
" style="stroke: #0652ff"/>
    </defs>
    <g clip-path="url(#p0a075e2a3e)">
     <use xlink:href="#md61f293ebb" x="0" y="345.6" style="fill: #0652ff; fill-opacity: 0.4; stroke: #0652ff"/>
    </g>
   </g>
   <g id="Poly3DCollection_16">
    <defs>
     <path id="m1a49d58959" d="M 167.242593 -114.158773 
L 256.142659 -106.002438 
L 179.636192 -110.299112 
z
" style="stroke: #0652ff"/>
    </defs>
    <g clip-path="url(#p0a075e2a3e)">
     <use xlink:href="#m1a49d58959" x="0" y="345.6" style="fill: #0652ff; fill-opacity: 0.4; stroke: #0652ff"/>
    </g>
   </g>
   <g id="Poly3DCollection_17">
    <defs>
     <path id="m75c5c97698" d="M 212.761124 -232.476383 
L 167.242593 -114.158773 
L 244.129598 -212.530695 
z
" style="stroke: #0652ff"/>
    </defs>
    <g clip-path="url(#p0a075e2a3e)">
     <use xlink:href="#m75c5c97698" x="0" y="345.6" style="fill: #0652ff; fill-opacity: 0.4; stroke: #0652ff"/>
    </g>
   </g>
   <g id="Poly3DCollection_18">
    <defs>
     <path id="mce97195ae8" d="M 225.1655 -229.110332 
L 212.761124 -232.476383 
L 244.129598 -212.530695 
z
" style="stroke: #0652ff"/>
    </defs>
    <g clip-path="url(#p0a075e2a3e)">
     <use xlink:href="#mce97195ae8" x="0" y="345.6" style="fill: #0652ff; fill-opacity: 0.4; stroke: #0652ff"/>
    </g>
   </g>
   <g id="Path3DCollection_1">
    <defs>
     <path id="C0_0_85578044de" d="M 0 2.236068 
C 0.593012 2.236068 1.161816 2.000462 1.581139 1.581139 
C 2.000462 1.161816 2.236068 0.593012 2.236068 -0 
C 2.236068 -0.593012 2.000462 -1.161816 1.581139 -1.581139 
C 1.161816 -2.000462 0.593012 -2.236068 0 -2.236068 
C -0.593012 -2.236068 -1.161816 -2.000462 -1.581139 -1.581139 
C -2.000462 -1.161816 -2.236068 -0.593012 -2.236068 0 
C -2.236068 0.593012 -2.000462 1.161816 -1.581139 1.581139 
C -1.161816 2.000462 -0.593012 2.236068 0 2.236068 
z
"/>
    </defs>
    <g clip-path="url(#p0a075e2a3e)">
     <use xlink:href="#C0_0_85578044de" x="213.51049" y="214.406339" style="fill: #0652ff; fill-opacity: 0.4; stroke: #0652ff; stroke-opacity: 0.4"/>
    </g>
    <g clip-path="url(#p0a075e2a3e)">
     <use xlink:href="#C0_0_85578044de" x="225.489639" y="218.023057" style="fill: #0652ff; fill-opacity: 0.4; stroke: #0652ff; stroke-opacity: 0.4"/>
    </g>
    <g clip-path="url(#p0a075e2a3e)">
     <use xlink:href="#C0_0_85578044de" x="287.169121" y="120.52975" style="fill: #0652ff; fill-opacity: 0.4; stroke: #0652ff; stroke-opacity: 0.4"/>
    </g>
    <g clip-path="url(#p0a075e2a3e)">
     <use xlink:href="#C0_0_85578044de" x="299.521377" y="123.834955" style="fill: #0652ff; fill-opacity: 0.4; stroke: #0652ff; stroke-opacity: 0.4"/>
    </g>
    <g clip-path="url(#p0a075e2a3e)">
     <use xlink:href="#C0_0_85578044de" x="243.79363" y="235.823762" style="fill: #0652ff; fill-opacity: 0.4; stroke: #0652ff; stroke-opacity: 0.4"/>
    </g>
    <g clip-path="url(#p0a075e2a3e)">
     <use xlink:href="#C0_0_85578044de" x="256.142659" y="239.597562" style="fill: #0652ff; fill-opacity: 0.4; stroke: #0652ff; stroke-opacity: 0.4"/>
    </g>
    <g clip-path="url(#p0a075e2a3e)">
     <use xlink:href="#C0_0_85578044de" x="137.807366" y="209.551149" style="fill: #0652ff; fill-opacity: 0.4; stroke: #0652ff; stroke-opacity: 0.4"/>
    </g>
    <g clip-path="url(#p0a075e2a3e)">
     <use xlink:href="#C0_0_85578044de" x="149.823443" y="213.245939" style="fill: #0652ff; fill-opacity: 0.4; stroke: #0652ff; stroke-opacity: 0.4"/>
    </g>
    <g clip-path="url(#p0a075e2a3e)">
     <use xlink:href="#C0_0_85578044de" x="319.313594" y="140.10548" style="fill: #0652ff; fill-opacity: 0.4; stroke: #0652ff; stroke-opacity: 0.4"/>
    </g>
    <g clip-path="url(#p0a075e2a3e)">
     <use xlink:href="#C0_0_85578044de" x="332.054062" y="143.555522" style="fill: #0652ff; fill-opacity: 0.4; stroke: #0652ff; stroke-opacity: 0.4"/>
    </g>
    <g clip-path="url(#p0a075e2a3e)">
     <use xlink:href="#C0_0_85578044de" x="212.761124" y="113.123617" style="fill: #0652ff; fill-opacity: 0.4; stroke: #0652ff; stroke-opacity: 0.4"/>
    </g>
    <g clip-path="url(#p0a075e2a3e)">
     <use xlink:href="#C0_0_85578044de" x="225.1655" y="116.489668" style="fill: #0652ff; fill-opacity: 0.4; stroke: #0652ff; stroke-opacity: 0.4"/>
    </g>
    <g clip-path="url(#p0a075e2a3e)">
     <use xlink:href="#C0_0_85578044de" x="167.242593" y="231.441227" style="fill: #0652ff; fill-opacity: 0.4; stroke: #0652ff; stroke-opacity: 0.4"/>
    </g>
    <g clip-path="url(#p0a075e2a3e)">
     <use xlink:href="#C0_0_85578044de" x="179.636192" y="235.300888" style="fill: #0652ff; fill-opacity: 0.4; stroke: #0652ff; stroke-opacity: 0.4"/>
    </g>
    <g clip-path="url(#p0a075e2a3e)">
     <use xlink:href="#C0_0_85578044de" x="244.129598" y="133.069305" style="fill: #0652ff; fill-opacity: 0.4; stroke: #0652ff; stroke-opacity: 0.4"/>
    </g>
    <g clip-path="url(#p0a075e2a3e)">
     <use xlink:href="#C0_0_85578044de" x="256.931014" y="136.58694" style="fill: #0652ff; fill-opacity: 0.4; stroke: #0652ff; stroke-opacity: 0.4"/>
    </g>
   </g>
   <g id="Poly3DCollection_19">
    <defs>
     <path id="mdbf8ba234e" d="M 256.931014 -209.01306 
L 256.142659 -106.002438 
L 332.054062 -202.044478 
z
" style="stroke: #0652ff"/>
    </defs>
    <g clip-path="url(#p0a075e2a3e)">
     <use xlink:href="#mdbf8ba234e" x="0" y="345.6" style="fill: #0652ff; fill-opacity: 0.4; stroke: #0652ff"/>
    </g>
   </g>
   <g id="Poly3DCollection_20">
    <defs>
     <path id="m565ee8612e" d="M 256.931014 -209.01306 
L 256.142659 -106.002438 
L 179.636192 -110.299112 
z
" style="stroke: #0652ff"/>
    </defs>
    <g clip-path="url(#p0a075e2a3e)">
     <use xlink:href="#m565ee8612e" x="0" y="345.6" style="fill: #0652ff; fill-opacity: 0.4; stroke: #0652ff"/>
    </g>
   </g>
   <g id="Poly3DCollection_21">
    <defs>
     <path id="m58c0be51c1" d="M 167.242593 -114.158773 
L 256.931014 -209.01306 
L 179.636192 -110.299112 
z
" style="stroke: #0652ff"/>
    </defs>
    <g clip-path="url(#p0a075e2a3e)">
     <use xlink:href="#m58c0be51c1" x="0" y="345.6" style="fill: #0652ff; fill-opacity: 0.4; stroke: #0652ff"/>
    </g>
   </g>
   <g id="Poly3DCollection_22">
    <defs>
     <path id="mdc68d7d9ad" d="M 167.242593 -114.158773 
L 256.931014 -209.01306 
L 244.129598 -212.530695 
z
" style="stroke: #0652ff"/>
    </defs>
    <g clip-path="url(#p0a075e2a3e)">
     <use xlink:href="#mdc68d7d9ad" x="0" y="345.6" style="fill: #0652ff; fill-opacity: 0.4; stroke: #0652ff"/>
    </g>
   </g>
   <g id="Poly3DCollection_23">
    <defs>
     <path id="mde46f56793" d="M 225.1655 -229.110332 
L 256.931014 -209.01306 
L 332.054062 -202.044478 
z
" style="stroke: #0652ff"/>
    </defs>
    <g clip-path="url(#p0a075e2a3e)">
     <use xlink:href="#mde46f56793" x="0" y="345.6" style="fill: #0652ff; fill-opacity: 0.4; stroke: #0652ff"/>
    </g>
   </g>
   <g id="Poly3DCollection_24">
    <defs>
     <path id="m7e2d6d2485" d="M 225.1655 -229.110332 
L 256.931014 -209.01306 
L 244.129598 -212.530695 
z
" style="stroke: #0652ff"/>
    </defs>
    <g clip-path="url(#p0a075e2a3e)">
     <use xlink:href="#m7e2d6d2485" x="0" y="345.6" style="fill: #0652ff; fill-opacity: 0.4; stroke: #0652ff"/>
    </g>
   </g>
  </g>
 </g>
 <defs>
  <clipPath id="p0a075e2a3e">
   <rect x="76.44" y="26.88" width="307.92" height="307.92"/>
  </clipPath>
 </defs>
</svg>
